COMMENT @(#)42	1.1  src/bos/usr/lpp/zhls/fonts/rest27ucs.bdf, ils-zh_CN, bos41B, 9504A 12/21/94 10:20:04
COMMENT
COMMENT   COMPONENT_NAME: ils-zh_CN
COMMENT
COMMENT   FUNCTIONS: COMMENT
COMMENT
COMMENT   ORIGINS: 27
COMMENT
COMMENT   IBM CONFIDENTIAL -- (IBM Confidential Restricted when
COMMENT   combined with the aggregated modules for this product)
COMMENT                    SOURCE MATERIALS
COMMENT
COMMENT   (C) COPYRIGHT International Business Machines Corp. 1994
COMMENT   All Rights Reserved
COMMENT   US Government Users Restricted Rights - Use, duplication or
COMMENT   disclosure restricted by GSA ADP Schedule Contract with IBM Corp.
COMMENT
STARTFONT 2.1
COMMENT  
COMMENT  (C) 1993, ISAS.  Permission to use.
COMMENT  
COMMENT  WARNING:  This bdf file was generated from a pcf file using
COMMENT  pcftobdf.  The resulting font is subject to the same copyright,
COMMENT  license, and trademark restrictions as the original font.  The
COMMENT  authors and distributors of fstobdf disclaim all liability for
COMMENT  misuse of the program or its output.
COMMENT  
FONT -IBM_AIX-Cjk_song-Medium-R-Normal--27-170-100-100-M-260-UCS2.CJK-REST
SIZE 17 100 100
FONTBOUNDINGBOX 24 24 0 2
STARTPROPERTIES 23
FONTNAME_REGISTRY "-"
FOUNDRY "IBM_AIX"
FAMILY_NAME "Cjk_song"
WEIGHT_NAME "Medium"
SLANT "R"
SETWIDTH_NAME "Normal"
ADD_STYLE_NAME ""
PIXEL_SIZE 27
POINT_SIZE 170
RESOLUTION_X 100
RESOLUTION_Y 100
SPACING "M"
AVERAGE_WIDTH 260
CHARSET_REGISTRY "UCS2.CJK"
CHARSET_ENCODING "REST"
COPYRIGHT "(C) 1993, ISAS.  Permission to use."
FONT "-IBM_AIX-Cjk_song-Medium-R-Normal--27-170-100-100-M-260-UCS2.CJK-REST"
RESOLUTION 138
X_HEIGHT 21
QUAD_WIDTH 26
DEFAULT_CHAR 12288
FONT_ASCENT 26
FONT_DESCENT 1
ENDPROPERTIES
CHARS 5460
STARTCHAR 4e02
ENCODING 19970
SWIDTH 962 0
DWIDTH 26 0
BBX 26 27 0 -1
BITMAP
00000000
00000000
00000c00
7ffffe00
00300000
00300000
00300000
00600000
00600000
00c0c000
01ffe000
00c0c000
0000c000
0000c000
0000c000
0000c000
0000c000
0000c000
0000c000
0000c000
00018000
003f8000
00070000
00020000
00000000
00000000
00000000
ENDCHAR
STARTCHAR 4e04
ENCODING 19972
SWIDTH 962 0
DWIDTH 26 0
BBX 26 27 0 -1
BITMAP
00000000
00100000
001c0000
00180000
00180000
00180000
00180000
00180000
00180000
00180000
00180000
00180000
00180000
00180000
00180000
00180000
00180000
00180000
00180800
00181c00
7ffffe00
00000000
00000000
00000000
00000000
00000000
00000000
ENDCHAR
STARTCHAR 4e05
ENCODING 19973
SWIDTH 962 0
DWIDTH 26 0
BBX 26 27 0 -1
BITMAP
00000000
00000800
00001c00
7ffffe00
00180000
00180000
00180000
00180000
00180000
00180000
00180000
00180000
00180000
00180000
00180000
00180000
00180000
00180000
00180000
00180000
00180000
00180000
00100000
00000000
00000000
00000000
00000000
ENDCHAR
STARTCHAR 4e06
ENCODING 19974
SWIDTH 962 0
DWIDTH 26 0
BBX 26 27 0 -1
BITMAP
00000000
00000000
00000c00
7ffffe00
000c0000
000c0000
00180000
00180000
00300000
00300000
00600000
00600000
00c00000
01800000
03000000
06000000
0c000000
30000000
c0000000
00000000
00000000
00000000
00000000
00000000
00000000
00000000
00000000
ENDCHAR
STARTCHAR 4e12
ENCODING 19986
SWIDTH 962 0
DWIDTH 26 0
BBX 26 27 0 -1
BITMAP
00000000
00000000
00003000
0ffff800
00303000
00303000
00303000
00303000
04303000
03b03000
00f03000
007c3000
006e3000
00c73000
00c23000
01806000
03006000
040fc000
08038000
20010000
00000c00
7ffffe00
00000000
00000000
00000000
00000000
00000000
ENDCHAR
STARTCHAR 4e17
ENCODING 19991
SWIDTH 962 0
DWIDTH 26 0
BBX 26 27 0 -1
BITMAP
00000000
04104000
071c7000
06186000
06186000
06186000
06186000
06186000
06186400
7ffffe00
06186000
06186000
06186000
06186000
06186000
06186000
06186000
06186000
06186000
06186000
07ffe000
06006000
04004000
00000000
00000000
00000000
00000000
ENDCHAR
STARTCHAR 4e20
ENCODING 20000
SWIDTH 962 0
DWIDTH 26 0
BBX 26 27 0 -1
BITMAP
00040000
00870000
00e60000
00c60000
00c61000
00c61e00
00c63800
7fc66000
00c78000
00c60000
00c60000
00c60000
00c60400
01c60400
06c60400
7cc60600
30c7fe00
00c3fc00
00800000
00000000
00000600
7fffff00
00000000
00000000
00000000
00000000
00000000
ENDCHAR
STARTCHAR 4e21
ENCODING 20001
SWIDTH 962 0
DWIDTH 26 0
BBX 26 27 0 -1
BITMAP
00000000
00000c00
7ffffe00
00180000
00180000
00180000
20180c00
3ffffe00
30180c00
30180c00
32188c00
3398ec00
3318cc00
3318cc00
3318cc00
3318cc00
37ffcc00
3300cc00
30008c00
30000c00
3000fc00
30001800
20001000
00000000
00000000
00000000
00000000
ENDCHAR
STARTCHAR 4e23
ENCODING 20003
SWIDTH 962 0
DWIDTH 26 0
BBX 26 27 0 -1
BITMAP
00000000
00000000
00000c00
3ffffe00
00630000
00630000
00630000
10630c00
1fe3fe00
18630c00
18630c00
18630c00
18630c00
18630c00
3fe3fc00
10630c00
00630800
00c30000
00c30000
01830000
03030000
06030000
18030000
20020000
00000000
00000000
00000000
ENDCHAR
STARTCHAR 4e29
ENCODING 20009
SWIDTH 962 0
DWIDTH 26 0
BBX 26 27 0 -1
BITMAP
00020000
00038000
00030000
00030000
02030000
03830000
03030000
03030000
03030000
03030000
03030000
03030000
03070000
030b0000
03330000
07c30000
03030000
00030000
00030000
00030000
00030000
00030000
00030000
00020000
00000000
00000000
00000000
ENDCHAR
STARTCHAR 4e2f
ENCODING 20015
SWIDTH 962 0
DWIDTH 26 0
BBX 26 27 0 -1
BITMAP
00100000
001c0000
00180000
0018c000
0019e000
001f0000
003c0000
01d86000
0e18f800
301b8000
001e0000
00781000
03983c00
1c18e000
001b8000
003c0000
00780000
07980000
38180000
00180000
00180000
00180000
00180000
00100000
00000000
00000000
00000000
ENDCHAR
STARTCHAR 4e35
ENCODING 20021
SWIDTH 962 0
DWIDTH 26 0
BBX 26 27 0 -1
BITMAP
00440000
00670000
00662000
0c663800
06663000
06666000
04664400
7ffffe00
02010000
0181c000
00c30000
00822000
0ffff000
00180000
00180000
00181800
3ffffc00
00180000
00180000
00180000
00180000
00180000
00180000
00100000
00000000
00000000
00000000
ENDCHAR
STARTCHAR 4e37
ENCODING 20023
SWIDTH 962 0
DWIDTH 26 0
BBX 26 27 0 -1
BITMAP
00000000
00000000
00000000
00002000
20003800
18003000
0c003000
0e006000
07006000
0300c000
0300c000
03018000
02018000
00030000
00060000
00040000
00080000
00000000
00000000
00000000
00000000
00000000
00000000
00000000
00000000
00000000
00000000
ENDCHAR
STARTCHAR 4e40
ENCODING 20032
SWIDTH 962 0
DWIDTH 26 0
BBX 26 27 0 -1
BITMAP
00000000
00000000
00000000
00000000
00000000
00600000
00f00000
01e00000
03600000
06300000
0c300000
30180000
00180000
000c0000
00060000
00030000
00018000
0000e000
00007000
00003c00
00001f00
00000c00
00000000
00000000
00000000
00000000
00000000
ENDCHAR
STARTCHAR 4e41
ENCODING 20033
SWIDTH 962 0
DWIDTH 26 0
BBX 26 27 0 -1
BITMAP
00000000
00000000
00030000
03ff8000
00030000
00030000
00030000
00030000
00030000
00030000
00030000
00030000
00030000
00030000
00018000
00018000
0000c000
0000c000
00006000
00003800
00001f00
00000800
00000000
00000000
00000000
00000000
00000000
ENDCHAR
STARTCHAR 4e44
ENCODING 20036
SWIDTH 962 0
DWIDTH 26 0
BBX 26 27 0 -1
BITMAP
00000000
00000000
00001000
00001c00
00001800
00003000
00003000
00006000
00206000
00186000
000cc000
0006c000
00038000
0003c000
0006e000
00067000
100c3800
10181800
10701000
19e00000
3f800000
3c000000
00000000
00000000
00000000
00000000
00000000
ENDCHAR
STARTCHAR 4e46
ENCODING 20038
SWIDTH 962 0
DWIDTH 26 0
BBX 26 27 0 -1
BITMAP
00000000
00800000
00e00000
00c20000
01838000
01830000
03060000
03060000
060c0000
040c0000
08180000
3ff80000
1c380000
08340000
00640000
00660000
00c30000
00c30000
01818000
0300c000
06007000
0c003f00
30001800
80000000
00000000
00000000
00000000
ENDCHAR
STARTCHAR 4e4a
ENCODING 20042
SWIDTH 962 0
DWIDTH 26 0
BBX 26 27 0 -1
BITMAP
00000000
00002000
00007000
0007fc00
01fe0000
7f800000
00000000
00001000
08001c00
04001800
06003000
03003000
03806000
01806000
0180c000
01018000
00010000
00020000
00000000
00000000
00000000
00000000
00000000
00000000
00000000
00000000
00000000
ENDCHAR
STARTCHAR 4e51
ENCODING 20049
SWIDTH 962 0
DWIDTH 26 0
BBX 26 27 0 -1
BITMAP
00000000
0000e000
0003f000
003f0000
3ff80000
00180000
00182000
01183c00
01d86000
03198000
061e0000
0c1c0000
191a0000
61db0000
81990000
03188000
0618c000
0c186000
18183800
20181f00
80180800
00180000
00180000
00100000
00000000
00000000
00000000
ENDCHAR
STARTCHAR 4e55
ENCODING 20053
SWIDTH 962 0
DWIDTH 26 0
BBX 26 27 0 -1
BITMAP
00003000
00007800
080ffe00
0fff0000
0c020000
0c038000
0c030800
0cfffc00
0c030000
0c030600
0fffff00
0c030000
0c030000
0c830c00
0cfffe00
0cc30c00
0cc30c00
0cc30c00
18c30c00
18c37c00
30c31800
30831000
60030000
80020000
00000000
00000000
00000000
ENDCHAR
STARTCHAR 4e57
ENCODING 20055
SWIDTH 962 0
DWIDTH 26 0
BBX 26 27 0 -1
BITMAP
0001e000
001ff800
3ff80000
00180000
00180600
ffffff00
06186000
06186000
06186600
ffffff00
06186000
06186000
06186000
06186600
ffffff00
007a0000
00d90000
01998000
0318c000
06187000
0c183c00
30181f00
c0180800
00100000
00000000
00000000
00000000
ENDCHAR
STARTCHAR 4e5a
ENCODING 20058
SWIDTH 962 0
DWIDTH 26 0
BBX 26 27 0 -1
BITMAP
00000000
04000000
07000000
06000000
06000000
06000000
06000000
06000000
06000000
06000000
06000000
06000000
06000000
06000000
06000000
06001000
06001000
06001000
06001000
06001800
07fffc00
03fff800
00000000
00000000
00000000
00000000
00000000
ENDCHAR
STARTCHAR 4e5b
ENCODING 20059
SWIDTH 962 0
DWIDTH 26 0
BBX 26 27 0 -1
BITMAP
00000000
00000000
00000000
00000000
00000800
00001c00
7ffffe00
00001c00
00001800
00003000
00002000
00004000
00000000
00000000
00000000
00000000
00000000
00000000
00000000
00000000
00000000
00000000
00000000
00000000
00000000
00000000
00000000
ENDCHAR
STARTCHAR 4e62
ENCODING 20066
SWIDTH 962 0
DWIDTH 26 0
BBX 26 27 0 -1
BITMAP
00000000
02010000
0381c000
03018000
03018000
03018000
03018000
23218000
3b398000
33318000
33318000
33318000
33318000
33318000
33318000
33318000
33318200
33318200
33318200
33f18200
7e318300
2021ff00
0000fe00
00000000
00000000
00000000
00000000
ENDCHAR
STARTCHAR 4e63
ENCODING 20067
SWIDTH 962 0
DWIDTH 26 0
BBX 26 27 0 -1
BITMAP
00000000
00020000
02038000
03830000
03030000
06030000
06030000
0c430000
0c730000
18630000
10630000
7fc30000
31830000
03030000
03030000
06030000
0c430400
18230400
31f30400
7f3b0400
381b0600
1013fe00
0001fc00
00000000
00000000
00000000
00000000
ENDCHAR
STARTCHAR 4e64
ENCODING 20068
SWIDTH 962 0
DWIDTH 26 0
BBX 26 27 0 -1
BITMAP
00000000
00000c00
ffffff00
00180000
001f0000
0019c000
00187000
00183800
00181000
00180000
00180000
00103000
3ffff800
0000e000
00038000
000e0000
00380000
00e00000
01800400
06000400
0c000600
0ffffe00
07fffc00
00000000
00000000
00000000
00000000
ENDCHAR
STARTCHAR 4e65
ENCODING 20069
SWIDTH 962 0
DWIDTH 26 0
BBX 26 27 0 -1
BITMAP
00000000
00007000
0007f800
00fe0000
1fe04000
00007000
06006000
0300c000
01818000
00c10000
00820000
00003000
1ffff800
00007000
0001c000
00070000
001c0000
00700000
00c00400
03000400
06000600
07fffe00
03fffc00
00000000
00000000
00000000
00000000
ENDCHAR
STARTCHAR 4e67
ENCODING 20071
SWIDTH 962 0
DWIDTH 26 0
BBX 26 27 0 -1
BITMAP
00040000
03070000
01c60000
00660000
18260000
0e060000
03060c00
01067e00
007fc000
3fc60000
00060000
00060000
00043000
3ffff800
0000f000
0001c000
000f0000
00380400
00e00400
03800400
0e000600
0ffffe00
07fffc00
00000000
00000000
00000000
00000000
ENDCHAR
STARTCHAR 4e68
ENCODING 20072
SWIDTH 962 0
DWIDTH 26 0
BBX 26 27 0 -1
BITMAP
00000000
04020000
07038000
06030000
0c030000
18430000
18230000
30330000
41fb0000
ff9b0000
70130000
00030000
20630000
3ff30000
30630000
30630000
30630000
30630200
30630200
30630200
3fe30300
3063ff00
2041fe00
00000000
00000000
00000000
00000000
ENDCHAR
STARTCHAR 4e6a
ENCODING 20074
SWIDTH 962 0
DWIDTH 26 0
BBX 26 27 0 -1
BITMAP
00000000
00c00000
ffe00000
00d01800
00dffc00
01999800
01999800
01999800
03199800
03199800
061ff800
06199800
0c199800
0c199800
18199800
18199800
30199800
301ffa00
60181a00
60101200
70000300
3fffff00
1ffffe00
00000000
00000000
00000000
00000000
ENDCHAR
STARTCHAR 4e6b
ENCODING 20075
SWIDTH 962 0
DWIDTH 26 0
BBX 26 27 0 -1
BITMAP
04000000
07000000
06320c00
7ffbfe00
06330c00
06330c00
06330c00
0c330c00
0c330c00
19f3fc00
30630c00
40420800
8000c000
3fffe000
0001c000
00070000
001c0000
00700000
01c00400
07000400
0c000600
0ffffe00
07fffc00
00000000
00000000
00000000
00000000
ENDCHAR
STARTCHAR 4e6c
ENCODING 20076
SWIDTH 962 0
DWIDTH 26 0
BBX 26 27 0 -1
BITMAP
10003000
1ffff800
18000000
18006000
1ffff000
18006000
18006000
1fffe000
18004000
18001800
1ffffc00
10000000
00003000
3ffff800
0000e000
00038000
000e0000
00380000
00c00400
03000400
0c000600
0ffffe00
07fffc00
00000000
00000000
00000000
00000000
ENDCHAR
STARTCHAR 4e6d
ENCODING 20077
SWIDTH 962 0
DWIDTH 26 0
BBX 26 27 0 -1
BITMAP
00000000
00000600
7fffff00
00c00000
01800000
03006000
07fff000
0d806000
19806000
61806000
81ffe000
01804000
01003000
1ffff800
00007000
0001c000
00070000
001c0000
00700400
01800400
06000600
07fffe00
03fffc00
00000000
00000000
00000000
00000000
ENDCHAR
STARTCHAR 4e6e
ENCODING 20078
SWIDTH 962 0
DWIDTH 26 0
BBX 26 27 0 -1
BITMAP
00400000
00600000
21f40c00
3f07fe00
30460c00
30760c00
30e60c00
33660c00
7c667c00
30c61800
21861000
03060000
0c060000
30063000
7ffff800
0000e000
00038000
000e0000
00700400
01c00400
06000600
07fffe00
03fffc00
00000000
00000000
00000000
00000000
ENDCHAR
STARTCHAR 4e6f
ENCODING 20079
SWIDTH 962 0
DWIDTH 26 0
BBX 26 27 0 -1
BITMAP
0000e000
000ff800
1ff84000
04187000
0318c000
01988000
01190c00
7ffffe00
00180000
00180000
00180000
03f80000
00300000
00006000
3ffff000
0001c000
00070000
001c0000
00700400
01c00400
06000600
0ffffe00
07fffc00
00000000
00000000
00000000
00000000
ENDCHAR
STARTCHAR 4e72
ENCODING 20082
SWIDTH 962 0
DWIDTH 26 0
BBX 26 27 0 -1
BITMAP
00100000
301c0000
18180000
0cb01800
093ffc00
02641800
0cc72000
7c8e4000
190d0000
1818c000
18307000
08c03e00
03001000
0000c000
3fffe000
00038000
000e0000
00380000
00e00400
03800400
06000600
0ffffe00
07fffc00
00000000
00000000
00000000
00000000
ENDCHAR
STARTCHAR 4e74
ENCODING 20084
SWIDTH 962 0
DWIDTH 26 0
BBX 26 27 0 -1
BITMAP
02000000
03803800
0308fc00
030f8000
3fec0000
030c0c00
032ffe00
03cc6000
0f0c6000
7b186000
23186000
03306000
1f206000
06404000
0000c000
3fffe000
00038000
000e0000
00380000
00c00800
03000800
0c000c00
0ffffc00
07fff800
00000000
00000000
00000000
ENDCHAR
STARTCHAR 4e75
ENCODING 20085
SWIDTH 962 0
DWIDTH 26 0
BBX 26 27 0 -1
BITMAP
00000000
03008000
0180e000
0180c000
0118c000
7ffcc000
0010c000
101cc000
0c30c000
0620c000
044cc000
7ffec000
0180c000
0180c000
0198c000
3ffcc000
0180c000
0180c200
0180c200
0180c200
0180c300
0180ff00
01007e00
00000000
00000000
00000000
00000000
ENDCHAR
STARTCHAR 4e76
ENCODING 20086
SWIDTH 962 0
DWIDTH 26 0
BBX 26 27 0 -1
BITMAP
00106000
001c3000
00182400
7ffffe00
00180000
0ffff000
0c183000
0c183000
0ffff000
0c183000
0c183000
0ffff000
0c183000
08102000
3ffff000
0001c000
00070000
00380000
01c00400
07000400
0c000600
0ffffe00
07fffc00
00000000
00000000
00000000
00000000
ENDCHAR
STARTCHAR 4e77
ENCODING 20087
SWIDTH 962 0
DWIDTH 26 0
BBX 26 27 0 -1
BITMAP
20020000
18038000
0c230000
093b6000
61331800
32630c00
22630600
04c32400
0c833800
79026000
1801c000
18070000
181c0000
09e00000
0000c000
3fffe000
00038000
000e0000
00380000
00e00800
03800800
0e000c00
1ffffc00
0ffff800
00000000
00000000
00000000
ENDCHAR
STARTCHAR 4e78
ENCODING 20088
SWIDTH 962 0
DWIDTH 26 0
BBX 26 27 0 -1
BITMAP
00000000
02020c00
0383fe00
03030c00
23034c00
3b036c00
33232c00
33730c00
33bfff00
3f330c00
f3334c00
33336c00
33332c00
33330c00
3337ff00
33720c00
33200c00
33007c00
32001a00
30001200
30000300
3fffff00
1ffffe00
00000000
00000000
00000000
00000000
ENDCHAR
STARTCHAR 4e79
ENCODING 20089
SWIDTH 962 0
DWIDTH 26 0
BBX 26 27 0 -1
BITMAP
02020000
03838000
03030000
03330000
7ffb0000
03030000
23330000
3ffb0000
30330000
30330000
3ff30000
30330000
30330000
3ff30000
23230000
03030000
03130000
fffb0400
03030400
03030400
03030600
0303fe00
0301fc00
02000000
00000000
00000000
00000000
ENDCHAR
STARTCHAR 4e7a
ENCODING 20090
SWIDTH 962 0
DWIDTH 26 0
BBX 26 27 0 -1
BITMAP
00200400
00700e00
13fa7f00
1e03c000
18030000
1ff30200
1833ff00
18331800
1ff31800
18261800
18061800
300c1800
60181800
40201000
bffff000
0001c000
000e0000
00700000
03800400
0e000400
38000600
3ffffe00
1ffffc00
00000000
00000000
00000000
00000000
ENDCHAR
STARTCHAR 4e7b
ENCODING 20091
SWIDTH 962 0
DWIDTH 26 0
BBX 26 27 0 -1
BITMAP
06010000
0301c000
02218000
fff34000
0c032000
0c663000
0ff59800
0c68cf00
0c706400
18604000
18670000
33e1c000
20c06000
40804000
7ffff000
0001c000
000e0000
00700000
03800400
0e000400
38000600
3ffffe00
1ffffc00
00000000
00000000
00000000
00000000
ENDCHAR
STARTCHAR 4e7c
ENCODING 20092
SWIDTH 962 0
DWIDTH 26 0
BBX 26 27 0 -1
BITMAP
000c0000
18070000
0c021800
097ffc00
c1030000
73030000
22031000
047ff800
7c030000
0c030000
0c030c00
0dfffe00
08000000
00006000
3ffff000
0001c000
000e0000
00700000
01c00400
07000400
1c000600
1ffffe00
0ffffc00
00000000
00000000
00000000
00000000
ENDCHAR
STARTCHAR 4e7d
ENCODING 20093
SWIDTH 962 0
DWIDTH 26 0
BBX 26 27 0 -1
BITMAP
00100000
001c1000
00181c00
07ff7000
0018c000
001b8c00
7ffffe00
00700000
01ffe000
07806000
39ffe000
c1806000
01ffe000
01004000
00006000
3ffff000
0001e000
000f0000
00780400
03c00400
1c000600
3ffffe00
1ffffc00
00000000
00000000
00000000
00000000
ENDCHAR
STARTCHAR 4e80
ENCODING 20096
SWIDTH 962 0
DWIDTH 26 0
BBX 26 27 0 -1
BITMAP
02000000
03800000
06018000
07ffc000
0c030000
18043000
2ffff800
4c183000
0ffff000
0c183000
0ffff000
08182000
10181800
1ffffc00
18181800
1ffff800
18181800
18181800
1ffffa00
18181200
10180300
001fff00
000ffe00
00000000
00000000
00000000
00000000
ENDCHAR
STARTCHAR 4e81
ENCODING 20097
SWIDTH 962 0
DWIDTH 26 0
BBX 26 27 0 -1
BITMAP
04010000
0701c000
06018000
06618000
fff30000
06030c00
0607fe00
7fe60000
606c0000
7ff00000
60601800
6067fc00
7fe03800
00003000
7fe06000
06006000
0660c000
fff18000
06030200
06030200
06060300
0607ff00
0603fe00
04000000
00000000
00000000
00000000
ENDCHAR
STARTCHAR 4e85
ENCODING 20101
SWIDTH 962 0
DWIDTH 26 0
BBX 26 27 0 -1
BITMAP
00000000
00100000
001c0000
00180000
00180000
00180000
00180000
00180000
00180000
00180000
00180000
00180000
00180000
00180000
00180000
00180000
00180000
00180000
00180000
00180000
00180000
01f80000
00700000
00200000
00000000
00000000
00000000
ENDCHAR
STARTCHAR 4e87
ENCODING 20103
SWIDTH 962 0
DWIDTH 26 0
BBX 26 27 0 -1
BITMAP
00800000
00e00000
00c00000
00c00000
01800000
01800c00
03fffe00
03000c00
06041800
0c071000
08062000
10060000
20060000
00060000
00060000
00060000
00060000
00060000
00060000
00060000
00060000
00fe0000
001c0000
00080000
00000000
00000000
00000000
ENDCHAR
STARTCHAR 4e8a
ENCODING 20106
SWIDTH 962 0
DWIDTH 26 0
BBX 26 27 0 -1
BITMAP
00100000
001c0000
00180000
00180c00
7ffffe00
00188000
0418e000
0318c000
01998000
01193000
3ffff800
00183000
00183200
ffffff00
00183000
00183000
3ffff000
00183000
00182000
00180000
00180000
03f80000
00700000
00200000
00000000
00000000
00000000
ENDCHAR
STARTCHAR 4e90
ENCODING 20112
SWIDTH 962 0
DWIDTH 26 0
BBX 26 27 0 -1
BITMAP
00000000
00006000
0ffff000
00600000
00600000
00600000
00600c00
7ffffe00
00c00000
00c00000
01800000
01806000
07fff000
03006000
00006000
00006000
00006000
0000c000
0000c000
00018000
00018000
007f0000
000e0000
00040000
00000000
00000000
00000000
ENDCHAR
STARTCHAR 4e96
ENCODING 20118
SWIDTH 962 0
DWIDTH 26 0
BBX 26 27 0 -1
BITMAP
00000000
00000000
0000c000
03ffe000
00000000
00000000
00000000
00000000
00000c00
7ffffe00
00000000
00000000
00000000
0000c000
07ffe000
00000000
00000000
00000000
00000000
00000c00
7ffffe00
00000000
00000000
00000000
00000000
00000000
00000000
ENDCHAR
STARTCHAR 4e97
ENCODING 20119
SWIDTH 962 0
DWIDTH 26 0
BBX 26 27 0 -1
BITMAP
00100000
001c0000
10181000
1c181c00
18181800
18181800
18181800
18181800
18181800
3ffff800
18001800
00001000
00000000
00000000
00003000
1ffff800
00000000
00000000
00000000
00000400
00000e00
ffffff00
00000000
00000000
00000000
00000000
00000000
ENDCHAR
STARTCHAR 4e9c
ENCODING 20124
SWIDTH 962 0
DWIDTH 26 0
BBX 26 27 0 -1
BITMAP
00000000
00000000
00000c00
3ffffe00
00630000
00630000
00630000
00630000
10630c00
1ffffe00
18630c00
18630c00
18630c00
18630c00
18630c00
1ffffc00
18630c00
10630800
00630000
00630000
00630000
00630600
ffffff00
00000000
00000000
00000000
00000000
ENDCHAR
STARTCHAR 4e9d
ENCODING 20125
SWIDTH 962 0
DWIDTH 26 0
BBX 26 27 0 -1
BITMAP
00000000
00400000
00700000
00c08000
01804000
020fe000
0ff83000
03802000
08008000
0e00e000
18018000
30810800
20430400
67e27e00
fc6fc600
60460400
00000000
0000c000
07ffe000
00000000
00000000
00000600
ffffff00
00000000
00000000
00000000
00000000
ENDCHAR
STARTCHAR 4ea3
ENCODING 20131
SWIDTH 962 0
DWIDTH 26 0
BBX 26 27 0 -1
BITMAP
00000000
00600000
00300000
00180000
00180000
00100000
00000c00
7ffffe00
01818000
01818000
01818000
01818000
01818000
03018000
03018000
03018000
06018000
06018000
0c018000
0c018000
18018000
18018000
30018000
40010000
00000000
00000000
00000000
ENDCHAR
STARTCHAR 4eaa
ENCODING 20138
SWIDTH 962 0
DWIDTH 26 0
BBX 26 27 0 -1
BITMAP
00300000
00180000
00100c00
7ffffe00
00c30000
08c34000
0cc33000
18c31800
19830c00
31830c00
23030800
46030000
0c020000
10018000
03ffc000
00030000
00030000
00018000
00018000
0000c000
00006000
00007800
00003f00
00000800
00000000
00000000
00000000
ENDCHAR
STARTCHAR 4eaf
ENCODING 20143
SWIDTH 962 0
DWIDTH 26 0
BBX 26 27 0 -1
BITMAP
00300000
00180000
000c0000
00080c00
7ffffe00
00000000
04006000
07fff000
06006000
06006000
07ffe000
04004000
00000000
10001800
1ffffc00
18001800
18001800
1ffff800
18001800
18001800
18001800
1ffff800
18001800
10001000
00000000
00000000
00000000
ENDCHAR
STARTCHAR 4eb0
ENCODING 20144
SWIDTH 962 0
DWIDTH 26 0
BBX 26 27 0 -1
BITMAP
00600000
00300000
00380000
00100600
ffffff00
00000000
04006000
07fff000
06006000
06006000
07ffe000
06006000
06006000
06006000
07ffe000
00180000
04188000
07186000
0c183000
18183800
30181800
61f81800
80301000
00200000
00000000
00000000
00000000
ENDCHAR
STARTCHAR 4eb1
ENCODING 20145
SWIDTH 962 0
DWIDTH 26 0
BBX 26 27 0 -1
BITMAP
00000000
00300000
00180000
000c0000
00080c00
7ffffe00
02000000
03800000
06203000
063ff800
0e303000
0c303000
1e303000
3c3ff000
2c303000
4c303000
8c303000
0c303000
0c3ff000
0c303000
0c202000
0c000600
0dffff00
08000000
00000000
00000000
00000000
ENDCHAR
STARTCHAR 4eb4
ENCODING 20148
SWIDTH 962 0
DWIDTH 26 0
BBX 26 27 0 -1
BITMAP
00300000
00180000
00100c00
7ffffe00
00000000
03ffc000
0300c000
03ffc000
10000c00
3ffffe00
30100c00
60180800
03ffc000
00181000
3ffff800
00400000
00700000
00618000
1fffc000
00618200
00c18200
01818300
0601ff00
1800fe00
00000000
00000000
00000000
ENDCHAR
STARTCHAR 4eb7
ENCODING 20151
SWIDTH 962 0
DWIDTH 26 0
BBX 26 27 0 -1
BITMAP
00180000
000c0000
00081800
1ffffc00
0180c000
00c18000
10410c00
1ffffe00
18630000
18630000
1bfff000
18633000
18633000
1ffffe00
18633000
18633000
1bfff000
30e38000
31e34000
61636000
63633800
46631e00
98630800
00420000
00000000
00000000
00000000
ENDCHAR
STARTCHAR 4eb8
ENCODING 20152
SWIDTH 962 0
DWIDTH 26 0
BBX 26 27 0 -1
BITMAP
06001000
030c1800
02261000
7ff33000
000a2c00
20cffe00
3feccc00
30cccc00
30cccc00
3fcffc00
000ccc00
008ccc00
7fcccc00
018ff800
0708c800
0660c000
0780c600
7e3fff00
3600c000
0600c000
0600c000
3e00c000
0c00c000
00008000
00000000
00000000
00000000
ENDCHAR
STARTCHAR 4ebc
ENCODING 20156
SWIDTH 962 0
DWIDTH 26 0
BBX 26 27 0 -1
BITMAP
00000000
00200000
00380000
00300000
00300000
00680000
00680000
00c40000
00c60000
01830000
01830000
03018000
0600c000
0c007000
18003800
30001f00
c0000800
00000000
00000000
00000000
00001800
3ffffc00
00000000
00000000
00000000
00000000
00000000
ENDCHAR
STARTCHAR 4ebd
ENCODING 20157
SWIDTH 962 0
DWIDTH 26 0
BBX 26 27 0 -1
BITMAP
00000000
00200000
00380000
00300000
00300000
00680000
00680000
00c40000
00c60000
01830000
03018000
0600c000
0c007000
18203c00
60181f00
800c0800
000e0000
00060000
00040000
00000000
00000000
00000000
00000000
00000000
00000000
00000000
00000000
ENDCHAR
STARTCHAR 4ebe
ENCODING 20158
SWIDTH 962 0
DWIDTH 26 0
BBX 26 27 0 -1
BITMAP
00000000
00080000
200e0000
380c0000
300c0000
300c0000
300c0000
300c0000
301a0000
301a0000
301b0000
30310000
30318000
30608000
3060c000
30c06000
30c03000
31801c00
33000f00
34000400
30000000
7ffffe00
30000000
00000000
00000000
00000000
00000000
ENDCHAR
STARTCHAR 4ecc
ENCODING 20172
SWIDTH 962 0
DWIDTH 26 0
BBX 26 27 0 -1
BITMAP
00100000
001c0000
00180000
00180000
00380000
00360000
0061c000
00c07000
03803800
06001c00
18100c00
401c0000
00180000
00180000
003c0000
00340000
00320000
00630000
00c18000
0180e000
03007800
0c003f00
30001800
80000000
00000000
00000000
00000000
ENDCHAR
STARTCHAR 4ecf
ENCODING 20175
SWIDTH 962 0
DWIDTH 26 0
BBX 26 27 0 -1
BITMAP
02000000
03820000
03038000
06030000
06030000
0c030000
0c030000
1e030000
1c060000
3c060000
6c060000
4c0c0000
8c0c0000
0c0c2000
0c181000
0c181800
0c300c00
0c200c00
0c61fe00
0dff0600
0c700600
0c200400
0c000000
08000000
00000000
00000000
00000000
ENDCHAR
STARTCHAR 4ed0
ENCODING 20176
SWIDTH 962 0
DWIDTH 26 0
BBX 26 27 0 -1
BITMAP
00100000
001c0000
00380000
00340000
00660000
00c20000
01830000
0301c000
0600e000
18107800
601c3f00
80181800
00180000
00181800
7ffffc00
00180000
00180000
00180000
00180000
00180000
00180000
00180000
00180000
00100000
00000000
00000000
00000000
ENDCHAR
STARTCHAR 4ed2
ENCODING 20178
SWIDTH 962 0
DWIDTH 26 0
BBX 26 27 0 -1
BITMAP
00000000
00200000
00380000
00300000
00300000
00680000
006c0000
00c60000
01830000
03018000
0600e000
0c607800
18383f00
601c1800
800c0000
00080000
00000000
00000000
00300000
001c0000
000e0000
00060000
00040000
00000000
00000000
00000000
00000000
ENDCHAR
STARTCHAR 4edb
ENCODING 20187
SWIDTH 962 0
DWIDTH 26 0
BBX 26 27 0 -1
BITMAP
04000000
07002000
06007000
0603f800
0c1f0000
0de60000
0c060000
1c060000
1e060000
3c060000
6c060c00
4c067e00
8c3fc000
0de60000
0c060000
0c060000
0c060000
0c060400
0c060400
0c060400
0c060600
0c07fe00
0c03fc00
08000000
00000000
00000000
00000000
ENDCHAR
STARTCHAR 4ee0
ENCODING 20192
SWIDTH 962 0
DWIDTH 26 0
BBX 26 27 0 -1
BITMAP
04000000
07000000
06001800
067ffc00
0c030000
0c030000
0c030000
1c030000
1e030000
3c030000
2c030600
4dffff00
8c030000
0c030000
0c030000
0c030000
0c030000
0c030000
0c030000
0c030000
0c030000
0c030000
0c030000
08020000
00000000
00000000
00000000
ENDCHAR
STARTCHAR 4ee2
ENCODING 20194
SWIDTH 962 0
DWIDTH 26 0
BBX 26 27 0 -1
BITMAP
02040000
03870000
03060000
03060000
060c0000
060c0c00
061ffe00
0e180c00
0f300c00
1e600c00
36480c00
26840c00
46060c00
06030c00
06030c00
06020c00
06000c00
06000c00
06000c00
06001800
06001800
0607f800
06007000
04002000
00000000
00000000
00000000
ENDCHAR
STARTCHAR 4ee6
ENCODING 20198
SWIDTH 962 0
DWIDTH 26 0
BBX 26 27 0 -1
BITMAP
02000000
03810000
0301c000
06018000
06018000
0c018000
0c018000
1c118000
1c1d9000
3c198800
6c198c00
4c318600
8c318600
0c618700
0c618300
0cc18300
0c818200
0d018000
0c018000
0c018000
0c018000
0c1f8000
0c070000
08020000
00000000
00000000
00000000
ENDCHAR
STARTCHAR 4ee7
ENCODING 20199
SWIDTH 962 0
DWIDTH 26 0
BBX 26 27 0 -1
BITMAP
00100000
001c0000
00180000
00180000
00186000
001ff000
00180000
00180000
00180000
00180600
ffffff00
00100000
001c0000
00180000
00380000
00340000
00620000
00c30000
01818000
0300c000
06007000
0c003f00
30001800
c0000000
00000000
00000000
00000000
ENDCHAR
STARTCHAR 4eed
ENCODING 20205
SWIDTH 962 0
DWIDTH 26 0
BBX 26 27 0 -1
BITMAP
02000000
03800000
03000000
06001800
06fffc00
0c061800
0c461800
1c461800
1e461800
3c461800
2c261800
4c261800
8c161800
0c161800
0c0c1800
0c0e1800
0c193000
0c18b000
0c307000
0c307000
0c67dc00
0cc18f00
0d010400
08000000
00000000
00000000
00000000
ENDCHAR
STARTCHAR 4eee
ENCODING 20206
SWIDTH 962 0
DWIDTH 26 0
BBX 26 27 0 -1
BITMAP
02000000
03803000
0300f800
0323c000
063e0000
06300000
0c300000
1c303000
1e3ff800
3c343000
2c343000
4c343000
8c343000
0c326000
0c326000
0c336000
0c61c000
0c61c000
0cc3c000
0cc66000
0c8c3800
0d181f00
0e600c00
08800000
00000000
00000000
00000000
ENDCHAR
STARTCHAR 4eef
ENCODING 20207
SWIDTH 962 0
DWIDTH 26 0
BBX 26 27 0 -1
BITMAP
02020000
03838000
03030000
03030000
06030000
06234000
0c3b2000
1c331000
1e331800
3c630c00
2c630c00
4cc30400
8c831000
0d031c00
0c033800
0c023000
0c006000
0c00c000
0c018000
0c030000
0c0c0000
0c300000
0cc00000
0b000000
00000000
00000000
00000000
ENDCHAR
STARTCHAR 4ef8
ENCODING 20216
SWIDTH 962 0
DWIDTH 26 0
BBX 26 27 0 -1
BITMAP
04000000
07002000
06007000
0607f800
0c7f0000
0c030000
0c030000
1c030000
1e030000
3c030c00
2dfffe00
4c068000
8c068000
0c068000
0c06c000
0c0cc000
0c0c6000
0c186000
0c183000
0c303800
0c601c00
0cc00f00
0d000400
0a000000
00000000
00000000
00000000
ENDCHAR
STARTCHAR 4ef9
ENCODING 20217
SWIDTH 962 0
DWIDTH 26 0
BBX 26 27 0 -1
BITMAP
04020000
07038000
06030000
06030000
0c030c00
0dfffe00
0c030000
1c030000
1e030000
3c031800
2cfffc00
4c030000
8c030000
0c030000
0c030600
0fffff00
0c030000
0c030000
0c030000
0c030000
0c030000
0c030000
0c030000
08020000
00000000
00000000
00000000
ENDCHAR
STARTCHAR 4efa
ENCODING 20218
SWIDTH 962 0
DWIDTH 26 0
BBX 26 27 0 -1
BITMAP
00100000
001c0000
00380000
00340000
00620000
00c18000
0180c000
03007000
0c003c00
30001f00
c400c800
07ffe000
06000000
06000000
06000000
06018000
07ffc000
06000000
06000000
06000000
06003000
0ffff800
06000000
00000000
00000000
00000000
00000000
ENDCHAR
STARTCHAR 4efc
ENCODING 20220
SWIDTH 962 0
DWIDTH 26 0
BBX 26 27 0 -1
BITMAP
02000000
03800000
03000000
06000c00
06fffe00
06030000
0c030000
0e030000
1c030000
3c030000
2c030000
4c033000
8c7ff800
0c030000
0c030000
0c030000
0c030000
0c030000
0c030000
0c030000
0c030600
0dffff00
0c000000
08000000
00000000
00000000
00000000
ENDCHAR
STARTCHAR 4efe
ENCODING 20222
SWIDTH 962 0
DWIDTH 26 0
BBX 26 27 0 -1
BITMAP
02000000
03800000
03000000
06000c00
06fffe00
0c060000
0c060000
1e060000
1c0c3000
3c0ff800
2c0c3000
4c0c3000
8c0c3000
0c183000
0c183000
0c183000
0c3ff000
0c186000
0c006000
0c006000
0c00c000
0c00c600
0dffff00
08000000
00000000
00000000
00000000
ENDCHAR
STARTCHAR 4f03
ENCODING 20227
SWIDTH 962 0
DWIDTH 26 0
BBX 26 27 0 -1
BITMAP
04000000
07000000
06001800
067ffc00
0c003800
0c106000
0c0c8000
1c070000
1e030000
3c020600
2dffff00
4c030c00
8c030800
0c031000
0c030000
0c030000
0c030000
0c030000
0c030000
0c030000
0c030000
0c7f0000
0c0e0000
08040000
00000000
00000000
00000000
ENDCHAR
STARTCHAR 4f06
ENCODING 20230
SWIDTH 962 0
DWIDTH 26 0
BBX 26 27 0 -1
BITMAP
04000000
07100000
061c0000
06180000
0c180000
0c300600
0c3fff00
1c366600
1e666600
3c466600
2c866600
4d0c6600
8c0c6600
0c18c600
0c18c600
0c318600
0c618600
0c830600
0c060c00
0c0c0c00
0c101c00
0c21f800
0c007000
08002000
00000000
00000000
00000000
ENDCHAR
STARTCHAR 4f07
ENCODING 20231
SWIDTH 962 0
DWIDTH 26 0
BBX 26 27 0 -1
BITMAP
02000000
03906000
031ff000
03186000
06186000
06186000
06186000
0e306000
0f307c00
1e603f00
36c00000
27003000
467ff800
06083000
06083000
060c6000
06046000
0606c000
06038000
0606c000
060c7000
06183f00
06601800
05800000
00000000
00000000
00000000
ENDCHAR
STARTCHAR 4f0c
ENCODING 20236
SWIDTH 962 0
DWIDTH 26 0
BBX 26 27 0 -1
BITMAP
04000000
07000000
06400c00
067ffe00
06600000
0c600000
0c600000
18641800
1e67fc00
3c661800
2c661800
4c661800
8c661800
0c661800
0c661800
0c66f800
0c663000
0cc62000
0cc60200
0cc60200
0c860300
0d87ff00
0d03fe00
0a000000
00000000
00000000
00000000
ENDCHAR
STARTCHAR 4f16
ENCODING 20246
SWIDTH 962 0
DWIDTH 26 0
BBX 26 27 0 -1
BITMAP
04040000
07070000
06060000
0c060000
0c060000
18060c00
19fffe00
380c0000
3c0c0000
780c1800
581ffc00
981c1800
181a1800
181a3000
18323000
18333000
18616000
1860c000
18c1c000
19836000
19063800
1a181f00
1c600800
11000000
00000000
00000000
00000000
ENDCHAR
STARTCHAR 4f1c
ENCODING 20252
SWIDTH 962 0
DWIDTH 26 0
BBX 26 27 0 -1
BITMAP
04080000
070e0000
060c0000
060c0000
060c3000
0cfff800
0c0c3000
1c0c3000
1c183200
3c183200
2c303300
4c623f00
8c839e00
0d030000
0c030c00
0dfffe00
0c030000
0c030000
0c030000
0c030000
0c030000
0c030000
0c030000
08020000
00000000
00000000
00000000
ENDCHAR
STARTCHAR 4f21
ENCODING 20257
SWIDTH 962 0
DWIDTH 26 0
BBX 26 27 0 -1
BITMAP
08040000
0e070000
0c060000
0c060000
0c0c0c00
1bfffe00
18180000
301a0000
3c338000
78330000
58630000
98c31800
19fffc00
18c30000
18030000
18030600
1bffff00
18030000
18030000
18030000
18030000
18030000
18030000
10020000
00000000
00000000
00000000
ENDCHAR
STARTCHAR 4f23
ENCODING 20259
SWIDTH 962 0
DWIDTH 26 0
BBX 26 27 0 -1
BITMAP
04000000
07000000
06401800
067ffc00
0c601800
0c621800
18639800
18631800
3e631800
3c631800
6c631800
4c631800
8c631800
0c669800
0c66d000
0c46c000
0c0cc000
0c0cc200
0c18c200
0c18c200
0c30c300
0c60ff00
0c807e00
09000000
00000000
00000000
00000000
ENDCHAR
STARTCHAR 4f28
ENCODING 20264
SWIDTH 962 0
DWIDTH 26 0
BBX 26 27 0 -1
BITMAP
02080000
038e0000
030c0000
030c0000
03180c00
061ffe00
06300c00
0e300c00
0f600c00
1e480c00
16860c00
26038c00
46018c00
06010c00
06006c00
06038c00
067e0c00
06180c00
06100c00
06001800
06003800
060ff000
0600e000
04004000
00000000
00000000
00000000
ENDCHAR
STARTCHAR 4f29
ENCODING 20265
SWIDTH 962 0
DWIDTH 26 0
BBX 26 27 0 -1
BITMAP
040c0000
07060000
06030000
06020000
0c000c00
0dfffe00
0c103000
1c103000
1e183000
3c183000
2c186000
4c0c6000
8c0c6000
0c06c000
0c06c000
0c038000
0c038000
0c078000
0c0cc000
0c186000
0c303800
0c601f00
0d800800
0a000000
00000000
00000000
00000000
ENDCHAR
STARTCHAR 4f2e
ENCODING 20270
SWIDTH 962 0
DWIDTH 26 0
BBX 26 27 0 -1
BITMAP
08000000
0e400000
0c700000
0c601800
0c67fc00
18c11800
18c91800
1bfd1800
38cd9800
38cd9800
78cc9800
58cc9800
998c9800
1998d000
1b987000
18d86000
18307000
1868d000
186cd800
18c69800
19850c00
1a020f00
1c040400
10000000
00000000
00000000
00000000
ENDCHAR
STARTCHAR 4f31
ENCODING 20273
SWIDTH 962 0
DWIDTH 26 0
BBX 26 27 0 -1
BITMAP
02020000
03838000
03070000
06068000
060c8000
0c0c4000
0c186000
1c303000
1e621c00
3cc38f00
2d830400
4e030000
8c232000
0c3b1000
0c331800
0c330c00
0c630c00
0c630e00
0cc30600
0c830400
0d030000
0c3f0000
0c060000
08040000
00000000
00000000
00000000
ENDCHAR
STARTCHAR 4f35
ENCODING 20277
SWIDTH 962 0
DWIDTH 26 0
BBX 26 27 0 -1
BITMAP
04000000
07000000
06000000
06400600
0e7fff00
0c666600
0c666600
1c666600
1e666600
3c666600
2c666600
4c666600
8c666600
0c666600
0c6c7e00
0c683600
0c700600
0c600600
0c600600
0c600600
0c7ffe00
0c600600
0c600400
08400000
00000000
00000000
00000000
ENDCHAR
STARTCHAR 4f37
ENCODING 20279
SWIDTH 962 0
DWIDTH 26 0
BBX 26 27 0 -1
BITMAP
04010000
0701c000
06018000
06018000
0c018000
0c018000
0c418600
1c7fff00
1e618600
3c618600
2c618600
4c618600
8c618600
0c7ffe00
0c618600
0c618600
0c618600
0c618600
0c618600
0c618600
0c7ffe00
0c600600
0c600400
08400000
00000000
00000000
00000000
ENDCHAR
STARTCHAR 4f39
ENCODING 20281
SWIDTH 962 0
DWIDTH 26 0
BBX 26 27 0 -1
BITMAP
04000000
07203000
063ff800
06303000
0c303000
0c303000
0c303000
1c303000
1e3ff000
3c303000
2c303000
4c303000
8c303000
0c303000
0c303000
0c3ff000
0c303000
0c303000
0c303000
0c303000
0c303000
0c303200
0dffff00
08000000
00000000
00000000
00000000
ENDCHAR
STARTCHAR 4f40
ENCODING 20288
SWIDTH 962 0
DWIDTH 26 0
BBX 26 27 0 -1
BITMAP
02000000
03800000
03200c00
033ffe00
06300c00
06300c00
0c300c00
0e300c00
1c300c00
3c3ffc00
2c300c00
4c300800
8c300000
0c300c00
0c3ffe00
0c300c00
0c300c00
0c300c00
0c300c00
0c300c00
0c3ffc00
0c300c00
0c300800
08200000
00000000
00000000
00000000
ENDCHAR
STARTCHAR 4f42
ENCODING 20290
SWIDTH 962 0
DWIDTH 26 0
BBX 26 27 0 -1
BITMAP
02000000
03800000
03000c00
067ffe00
06018000
0c018000
0c018000
1c018000
1e018000
3c218000
2c399800
4c31fc00
8c318000
0c318000
0c318000
0c318000
0c318000
0c318000
0c318000
0c318000
0c318600
0fffff00
0c000000
08000000
00000000
00000000
00000000
ENDCHAR
STARTCHAR 4f44
ENCODING 20292
SWIDTH 962 0
DWIDTH 26 0
BBX 26 27 0 -1
BITMAP
04202000
07383800
06303000
06303000
0c303000
0c303000
0c303600
1dffff00
1e303000
3c303000
2c303000
4c303000
8c303000
0c3ff000
0c303000
0c303000
0c303000
0c303000
0c303000
0c303000
0c3ff000
0c303000
0c303000
08202000
00000000
00000000
00000000
ENDCHAR
STARTCHAR 4f45
ENCODING 20293
SWIDTH 962 0
DWIDTH 26 0
BBX 26 27 0 -1
BITMAP
04020000
07038000
06030000
06030000
0c033000
0c7ff800
0c030000
1c030000
1e030000
3c030c00
2dfffe00
4c078000
8c0f8000
0c0f4000
0c1b4000
0c1b2000
0c333000
0c631800
0cc31c00
0d830f00
0e030400
0c030000
0c030000
08020000
00000000
00000000
00000000
ENDCHAR
STARTCHAR 4f4a
ENCODING 20298
SWIDTH 962 0
DWIDTH 26 0
BBX 26 27 0 -1
BITMAP
04020000
07038000
06030000
06030000
0c831800
0cfffc00
18c31800
18c31000
3cc32000
38c30000
58c33000
98fff800
18d03000
18d03000
18c86000
18cc6000
18c6c000
18c38000
19838000
1986c000
1b0c7000
1a183f00
1c601800
11000000
00000000
00000000
00000000
ENDCHAR
STARTCHAR 4f4b
ENCODING 20299
SWIDTH 962 0
DWIDTH 26 0
BBX 26 27 0 -1
BITMAP
02000000
03801800
037ffc00
030c1800
060c1800
060c1800
060c1800
0e0c1800
0f183800
1e19f000
36306000
26204000
46501800
069ffc00
06181800
06181800
06181800
06181800
06181800
06181800
061ff800
06181800
06181000
04100000
00000000
00000000
00000000
ENDCHAR
STARTCHAR 4f66
ENCODING 20326
SWIDTH 962 0
DWIDTH 26 0
BBX 26 27 0 -1
BITMAP
02000000
03800000
03000000
03000600
06ffff00
06060000
0c060000
0e060000
1c0c0000
3c0c0000
2c180c00
4c1ffe00
8c3c0c00
0c6c0c00
0c6c0c00
0ccc0c00
0c8c0c00
0d0c0c00
0e0c0c00
0c0c0c00
0c0ffc00
0c0c0c00
0c0c0800
08080000
00000000
00000000
00000000
ENDCHAR
STARTCHAR 4f68
ENCODING 20328
SWIDTH 962 0
DWIDTH 26 0
BBX 26 27 0 -1
BITMAP
04100000
071c0000
06180000
06300000
06301800
0c7ffc00
0c601800
1ec01800
1ca19800
3d3fd800
2c319800
4c319800
8c319800
0c319800
0c3f9800
0c301800
0c31f800
0c303000
0c302400
0c300400
0c300600
0c3ffe00
0c1ffc00
08000000
00000000
00000000
00000000
ENDCHAR
STARTCHAR 4f6d
ENCODING 20333
SWIDTH 962 0
DWIDTH 26 0
BBX 26 27 0 -1
BITMAP
01080000
01ce0000
018c1800
031ffc00
03181800
062c3000
06466000
0e03c000
0f076000
1e0c3800
16311f00
26c1c800
46018000
067ffc00
06118000
06198000
06318c00
067ffe00
06218000
06018000
06018000
06018000
06018000
04010000
00000000
00000000
00000000
ENDCHAR
STARTCHAR 4f71
ENCODING 20337
SWIDTH 962 0
DWIDTH 26 0
BBX 26 27 0 -1
BITMAP
00200000
00380000
00300000
00780000
00640000
00c30000
01818000
0300e000
0c037800
1bffbf00
60001800
80000000
00003000
1ffff800
00180000
04180000
07186000
061ff000
06180000
06180000
06180000
06181800
7ffffc00
00000000
00000000
00000000
00000000
ENDCHAR
STARTCHAR 4f72
ENCODING 20338
SWIDTH 962 0
DWIDTH 26 0
BBX 26 27 0 -1
BITMAP
02040000
03870000
03060000
060c0c00
060ffe00
0c0c0c00
0c181800
1c361800
1e233000
3c426000
2c00c000
4c018000
8c060000
0c180c00
0cdffe00
0f180c00
0c180c00
0c180c00
0c180c00
0c180c00
0c1ffc00
0c180c00
0c180c00
08100800
00000000
00000000
00000000
ENDCHAR
STARTCHAR 4f8a
ENCODING 20362
SWIDTH 962 0
DWIDTH 26 0
BBX 26 27 0 -1
BITMAP
04040000
07070000
06060000
06062000
06863800
0c463000
0c666000
18364000
1e268000
3c060c00
6ffffe00
4c198000
8c198000
0c198000
0c198000
0c198000
0c318400
0c318400
0c618400
0c618400
0cc18600
0c81fe00
0d00fc00
0a000000
00000000
00000000
00000000
ENDCHAR
STARTCHAR 4f8c
ENCODING 20364
SWIDTH 962 0
DWIDTH 26 0
BBX 26 27 0 -1
BITMAP
00100000
001c0000
00380000
00640000
00c30000
01b18000
031ce000
0c083800
30019f00
c3ffc800
00038000
00060000
000c2000
07fff000
00000000
00000c00
7ffffe00
00600000
00c04000
01802000
0307f000
0ffe1800
07801800
00001000
00000000
00000000
00000000
ENDCHAR
STARTCHAR 4f8e
ENCODING 20366
SWIDTH 962 0
DWIDTH 26 0
BBX 26 27 0 -1
BITMAP
04020000
07038000
06031000
06831c00
06431800
0c633000
0c332000
1c332000
1c234000
3c030c00
2dfffe00
4c070000
8c0f8000
0c0f4000
0c1b6000
0c1b2000
0c333000
0c331800
0c631c00
0cc30f00
0d030400
0e030000
0c030000
08020000
00000000
00000000
00000000
ENDCHAR
STARTCHAR 4f93
ENCODING 20371
SWIDTH 962 0
DWIDTH 26 0
BBX 26 27 0 -1
BITMAP
04040000
07070000
06060000
06060000
06061800
0cfffc00
0c061800
1c061800
1dffff00
3c061800
2c061800
4cfff800
8c061000
0c060000
0cfff800
0c060000
0c060600
0fffff00
0c060000
0c060000
0c060000
0c060000
0c060000
08040000
00000000
00000000
00000000
ENDCHAR
STARTCHAR 4f99
ENCODING 20377
SWIDTH 962 0
DWIDTH 26 0
BBX 26 27 0 -1
BITMAP
04010000
0701d800
06018c00
06018800
0c018000
0c018c00
0dfffe00
1c018000
1e018000
3c018000
2c02c000
4cffc000
0c18c000
0c18c000
0c186000
0c186000
0c186000
0c19b000
0c1e3200
0df01a00
0c601a00
0c000e00
0c000700
08000000
00000000
00000000
00000000
ENDCHAR
STARTCHAR 4f9f
ENCODING 20383
SWIDTH 962 0
DWIDTH 26 0
BBX 26 27 0 -1
BITMAP
04080000
070e0000
060c0000
060c0000
0c0c0600
0dffff00
0c180000
1c180000
1e301800
3c3bfc00
2c701800
4cb03000
8d306000
0e306400
0c37fe00
0c306000
0c306000
0c306000
0c306000
0c306000
0c306000
0c33e000
0c30c000
08208000
00000000
00000000
00000000
ENDCHAR
STARTCHAR 4fa1
ENCODING 20385
SWIDTH 962 0
DWIDTH 26 0
BBX 26 27 0 -1
BITMAP
08000000
0e000000
0c000000
0c000c00
0dfffe00
180cc000
180cc000
180cc000
388ccc00
38fffe00
78cccc00
58cccc00
98cccc00
18cccc00
18cccc00
18cccc00
18cccc00
18cccc00
18cccc00
18cccc00
18fffc00
18c00c00
18c00800
10800000
00000000
00000000
00000000
ENDCHAR
STARTCHAR 4fa2
ENCODING 20386
SWIDTH 962 0
DWIDTH 26 0
BBX 26 27 0 -1
BITMAP
04000000
07000000
06001800
06fffc00
0c030000
0c030000
0c431800
1c7ffc00
1e631800
3c631800
2c631800
4c7ff800
8c631800
0c631800
0c631800
0c631a00
0fffff00
0c601800
0c601800
0c601800
0c601800
0c60f800
0c603000
08402000
00000000
00000000
00000000
ENDCHAR
STARTCHAR 4fa4
ENCODING 20388
SWIDTH 962 0
DWIDTH 26 0
BBX 26 27 0 -1
BITMAP
02040000
03870000
03060800
03060e00
06061c00
067ff800
06063000
0c066000
0f06cc00
1efffe00
16030000
26061800
460ffc00
061b0000
06330000
06460c00
068ffe00
06060c00
06000c00
06000c00
06001c00
0603f800
06007000
04002000
00000000
00000000
00000000
ENDCHAR
STARTCHAR 4fab
ENCODING 20395
SWIDTH 962 0
DWIDTH 26 0
BBX 26 27 0 -1
BITMAP
080c0000
0e060000
0c030000
0c021800
0dfffc00
18600000
18600000
18600000
30601000
3cfff800
78440000
58070000
98060000
180c0c00
19fffe00
18186000
18306000
18f0c000
181d8000
1807c000
180e7000
18383800
18e01800
17001000
00000000
00000000
00000000
ENDCHAR
STARTCHAR 4fad
ENCODING 20397
SWIDTH 962 0
DWIDTH 26 0
BBX 26 27 0 -1
BITMAP
08000000
0e000000
0c201800
0c3ffc00
0c301800
18301800
18301800
18301800
383ff800
38309000
78308000
5830c000
98604000
18666000
18c33000
18c19c00
19818f00
19010400
1a000000
1c0e0000
1803c000
1800e000
18006000
10000000
00000000
00000000
00000000
ENDCHAR
STARTCHAR 4fb0
ENCODING 20400
SWIDTH 962 0
DWIDTH 26 0
BBX 26 27 0 -1
BITMAP
02000000
03801800
037ffc00
03061800
06061800
06061a00
06ffff00
0e061800
0f061800
1e061800
167ff800
260c1000
460c0000
06180c00
061ffe00
061c0c00
063c0c00
062c0c00
066c0c00
064c0c00
068ffc00
070c0c00
060c0c00
04080800
00000000
00000000
00000000
ENDCHAR
STARTCHAR 4fb1
ENCODING 20401
SWIDTH 962 0
DWIDTH 26 0
BBX 26 27 0 -1
BITMAP
04000000
07401800
067ffc00
06601800
0c601800
0c601800
0c601800
1c7ff800
1e401000
3c000000
2c001800
4cfffc00
8c030000
0c030000
0c030000
0c033000
0c7ff800
0c030000
0c030000
0c030000
0c030600
0fffff00
0c000000
08000000
00000000
00000000
00000000
ENDCHAR
STARTCHAR 4fb4
ENCODING 20404
SWIDTH 962 0
DWIDTH 26 0
BBX 26 27 0 -1
BITMAP
00200000
00380000
00300000
00680000
00c60000
03018000
0600f000
18033f00
67ff8c00
80004000
00607000
1ff46000
06676000
06666000
06666000
3fe66000
0c666000
0c666000
0c646000
0c606000
0c7c6000
7fc3e000
1800c000
00008000
00000000
00000000
00000000
ENDCHAR
STARTCHAR 4fb8
ENCODING 20408
SWIDTH 962 0
DWIDTH 26 0
BBX 26 27 0 -1
BITMAP
04000000
07000000
06001800
067ffc00
0c000000
0c000000
0c201800
1c3ffc00
1e301800
3c301800
2c301800
4c301800
8c301800
0c3ff800
0c200000
0c001000
0c301c00
0c181800
0c1c3000
0c0c3000
0c086000
0c004600
0dffff00
08000000
00000000
00000000
00000000
ENDCHAR
STARTCHAR 4fbc
ENCODING 20412
SWIDTH 962 0
DWIDTH 26 0
BBX 26 27 0 -1
BITMAP
04020000
07038000
06030000
06033000
0c7ff800
0c030000
0c030000
1c830c00
1efffe00
3d800c00
2d006800
4c3ff000
8c006000
0c018000
0c030c00
0dfffe00
0c030000
0c030000
0c030000
0c030000
0c030000
0c3f0000
0c060000
08040000
00000000
00000000
00000000
ENDCHAR
STARTCHAR 4fbd
ENCODING 20413
SWIDTH 962 0
DWIDTH 26 0
BBX 26 27 0 -1
BITMAP
04000000
07401800
067ffc00
06631800
06631800
0c631800
0c7ff800
1c631800
1c631800
3c631800
2c7ff800
4c641000
8c470000
0c060c00
0cfffe00
0c060c00
0c060c00
0c0c0c00
0c0c0c00
0c180c00
0c301c00
0c63f800
0cc07000
09002000
00000000
00000000
00000000
ENDCHAR
STARTCHAR 4fbe
ENCODING 20414
SWIDTH 962 0
DWIDTH 26 0
BBX 26 27 0 -1
BITMAP
04000000
07040000
06070800
06060e00
06061c00
0c7fd800
0c063000
1c066000
1c06c600
3dffff00
2c030000
4c063000
8c1ff800
0c603000
0d806000
0c018000
0c018c00
0c7ffe00
0c018000
0c018000
0c018000
0c018000
0c1f8000
08030000
00000000
00000000
00000000
ENDCHAR
STARTCHAR 4fc6
ENCODING 20422
SWIDTH 962 0
DWIDTH 26 0
BBX 26 27 0 -1
BITMAP
02020000
03838000
03030000
03078000
060e8000
060c4000
0c186000
0c303800
1e605f00
3c9fec00
2d030000
4c030000
8c031800
0cfffc00
0c030000
0c234000
0c3b2000
0c333000
0c631800
0c431c00
0c830c00
0d3f0800
0c060000
08040000
00000000
00000000
00000000
ENDCHAR
STARTCHAR 4fc8
ENCODING 20424
SWIDTH 962 0
DWIDTH 26 0
BBX 26 27 0 -1
BITMAP
02010000
0381c000
03218000
03398000
06318000
06319800
0c3ffc00
0c618000
1c418000
1c818000
2c018600
4dffff00
8c000000
0c201800
0c3ffc00
0c301800
0c301800
0c301800
0c301800
0c301800
0c3ff800
0c301800
0c301000
08200000
00000000
00000000
00000000
ENDCHAR
STARTCHAR 4fcc
ENCODING 20428
SWIDTH 962 0
DWIDTH 26 0
BBX 26 27 0 -1
BITMAP
04020000
0703b000
06031800
06030800
0c030200
0dffff00
0c030000
1c430c00
1e7ffe00
3c630c00
2c630c00
4c630c00
8c7ffc00
0c630c00
0c630c00
0c630c00
0c7ffc00
0c630c00
0c630c00
0c630c00
0c630c00
0c637c00
0c621800
08401000
00000000
00000000
00000000
ENDCHAR
STARTCHAR 4fd2
ENCODING 20434
SWIDTH 962 0
DWIDTH 26 0
BBX 26 27 0 -1
BITMAP
02000000
03860000
03030000
06018000
06810600
0cffff00
0ec00600
0d800400
1c006000
1c3ff000
2c000000
4c000000
8c000c00
0dfffe00
0c18c000
0c18c000
0c18c000
0c18c200
0c18c200
0c30c200
0c30c300
0c60ff00
0cc07e00
09000000
00000000
00000000
00000000
ENDCHAR
STARTCHAR 4fd5
ENCODING 20437
SWIDTH 962 0
DWIDTH 26 0
BBX 26 27 0 -1
BITMAP
04000000
07060000
06030000
06018000
0c410600
0c7fff00
0cc00600
1cc20400
1d838800
3c030000
2c030c00
4dfffe00
8c078000
0c0f4000
0c0f6000
0c1b2000
0c1b3000
0c331800
0c631c00
0cc30f00
0d030400
0e030000
0c030000
08020000
00000000
00000000
00000000
ENDCHAR
STARTCHAR 4fe2
ENCODING 20450
SWIDTH 962 0
DWIDTH 26 0
BBX 26 27 0 -1
BITMAP
04080000
070e0000
06180000
06186000
063ff000
0c306000
0c286000
1c4cc000
1c878000
3c0ec000
2c187800
4c611f00
8d83c800
0c070000
0c182000
0c607800
0c01c000
0c071000
0c1c1c00
0c607000
0c01c000
0c070000
0c380000
09c00000
00000000
00000000
00000000
ENDCHAR
STARTCHAR 4fe4
ENCODING 20452
SWIDTH 962 0
DWIDTH 26 0
BBX 26 27 0 -1
BITMAP
04002000
07403800
06303000
06186000
0c084800
0cfffc00
0c031800
1c031800
1e431800
3c7ff800
2c631000
4c630000
8cc30c00
0dfffe00
0cc30c00
0c070c00
0c0f0c00
0c1b7c00
0c331800
0c631000
0cc30000
0d030000
0e030000
08020000
00000000
00000000
00000000
ENDCHAR
STARTCHAR 4fe5
ENCODING 20453
SWIDTH 962 0
DWIDTH 26 0
BBX 26 27 0 -1
BITMAP
04020000
07038000
06030000
06030c00
0cfffe00
0c030000
0c431800
1c7ffc00
1e631800
3c631800
2c7ff800
4c631800
8c631800
0c631800
0c7ff800
0c431000
0c030600
0dffff00
0c030000
0c030000
0c030000
0c030000
0c030000
08020000
00000000
00000000
00000000
ENDCHAR
STARTCHAR 4fe7
ENCODING 20455
SWIDTH 962 0
DWIDTH 26 0
BBX 26 27 0 -1
BITMAP
04020000
07038000
06030000
06030000
0c030000
0c030c00
0dfffe00
1c030000
1c030000
3c030000
2c031800
4cfffc00
8c000000
0c020000
0c110000
0c5d8800
0c58c400
0c588600
0cd81300
0cd81300
0d981a00
0c1ff800
0c0ff000
08000000
00000000
00000000
00000000
ENDCHAR
STARTCHAR 4feb
ENCODING 20459
SWIDTH 962 0
DWIDTH 26 0
BBX 26 27 0 -1
BITMAP
04020000
07038000
06030000
06030000
0c031800
0cfffc00
0c031000
18631c00
1e331800
3c1b3000
2c132000
4c034c00
8dfffe00
0c078000
0c0f8000
0c0f4000
0c1b6000
0c333000
0c633800
0cc31c00
0d830f00
0e030400
0c030000
08020000
00000000
00000000
00000000
ENDCHAR
STARTCHAR 4ff0
ENCODING 20464
SWIDTH 962 0
DWIDTH 26 0
BBX 26 27 0 -1
BITMAP
04000000
07000000
06060000
061f0000
0cf88600
0c18ff00
0c18c600
1c1ac600
1effc600
3c18c600
2c38c600
4c38c600
8c7cc600
0c7ac600
0cdbc600
0cdac600
0d98c600
0d18c600
0e18fe00
0c18c600
0c18c400
0c188000
0c180000
08100000
00000000
00000000
00000000
ENDCHAR
STARTCHAR 4ff2
ENCODING 20466
SWIDTH 962 0
DWIDTH 26 0
BBX 26 27 0 -1
BITMAP
08000000
0e802000
0c603800
0c303000
18263000
1bff3000
18003200
3889ff00
38c63300
79833300
5b093300
5c8e3300
988c3300
184c3300
18583300
18306300
18386300
186c6300
18c6c300
1984c300
1a018700
1c033e00
18040c00
10080800
00000000
00000000
00000000
ENDCHAR
STARTCHAR 4ff9
ENCODING 20473
SWIDTH 962 0
DWIDTH 26 0
BBX 26 27 0 -1
BITMAP
04000000
07000000
06000c00
06fffe00
0c0cc000
0c0cc000
0c0cc000
1c0cc000
1e8ccc00
3cfdfe00
2ccccc00
4cc80c00
8cc00c00
0cc00c00
0ccc8c00
0dfefc00
0cccc800
0c0cc000
0c0cc000
0c0cc000
0c0cc000
0c0cc600
0fffff00
08000000
00000000
00000000
00000000
ENDCHAR
STARTCHAR 4ffb
ENCODING 20475
SWIDTH 962 0
DWIDTH 26 0
BBX 26 27 0 -1
BITMAP
04100000
071c0000
06183000
063ff800
0c303000
0c686000
0c4c6000
1e86c000
1d038000
2c06c000
2c0c7000
4c301f00
8cc00c00
0f7ff800
0c631800
0c631800
0c631800
0c7ff800
0c631800
0c631800
0c631800
0c7ff800
0c601800
08400000
00000000
00000000
00000000
ENDCHAR
STARTCHAR 4ffc
ENCODING 20476
SWIDTH 962 0
DWIDTH 26 0
BBX 26 27 0 -1
BITMAP
02000000
03830000
03018000
06010c00
06fffe00
06040000
0c0e0000
0e181000
1c300c00
3cfffe00
2c3c0600
4c001400
8c3ff800
0c301800
0c301800
0c3ff800
0c301800
0c301800
0c3ff800
0c301800
0c301800
0c301800
0c31f800
08203000
00000000
00000000
00000000
ENDCHAR
STARTCHAR 4ffd
ENCODING 20477
SWIDTH 962 0
DWIDTH 26 0
BBX 26 27 0 -1
BITMAP
04004000
07067000
068f6000
06f86000
06c0c000
0cc0c600
0cc0ff00
1cc18600
1eff0400
3cce4000
2ccc7000
4ccc6000
8ccc6000
0ccc6000
0ccc6000
0ccc6000
0cccd000
0cccd000
0ccd9800
0c8d9800
0d0b0c00
0d0a0f00
0e040400
08080000
00000000
00000000
00000000
ENDCHAR
STARTCHAR 4fff
ENCODING 20479
SWIDTH 962 0
DWIDTH 26 0
BBX 26 27 0 -1
BITMAP
04020000
07038000
06033000
0603f800
0c430400
0c7ffe00
0c620c00
1c634800
1e63e000
3c7f0800
2c630800
4c63fc00
8c61f800
0c600000
0c643000
0c67f800
0c663000
0c663000
0cc63200
0ccc3200
0c8c3300
0d183f00
0d301e00
0a400000
00000000
00000000
00000000
ENDCHAR
STARTCHAR 5001
ENCODING 20481
SWIDTH 962 0
DWIDTH 26 0
BBX 26 27 0 -1
BITMAP
04000000
07400000
06700000
06600000
06c48c00
0cfefe00
0db0cc00
1d30cc00
1e30cc00
3c30cc00
2c32cc00
4fffcc00
8c30cc00
0c30cc00
0c28cc00
0c6ccc00
0c66cc00
0cc6cc00
0cc4cc00
0d80fc00
0d00cc00
0e00c800
0c008000
08000000
00000000
00000000
00000000
ENDCHAR
STARTCHAR 5002
ENCODING 20482
SWIDTH 962 0
DWIDTH 26 0
BBX 26 27 0 -1
BITMAP
02000000
03881000
030e1c00
06183000
06102000
0c204800
0dfdfc00
1e306000
1c306000
3c306000
2c306000
4c306400
8dfdfe00
0c306000
0c306000
0c306000
0c306000
0c606000
0c606000
0cc06000
0cc06000
0d806000
0d006000
0a004000
00000000
00000000
00000000
ENDCHAR
STARTCHAR 5003
ENCODING 20483
SWIDTH 962 0
DWIDTH 26 0
BBX 26 27 0 -1
BITMAP
08000000
0e404000
0c707000
0c606000
0cc66000
18ff7000
19866800
19466c00
3a4c6600
3c386400
783c6000
58666000
98c3c000
1b01ff00
1c007c00
18802000
18fff000
18c03000
18c03000
18c03000
18c03000
18fff000
18c03000
10802000
00000000
00000000
00000000
ENDCHAR
STARTCHAR 5004
ENCODING 20484
SWIDTH 962 0
DWIDTH 26 0
BBX 26 27 0 -1
BITMAP
04002000
07303800
060ce000
06078000
0c0ee000
0c183800
0c641800
1c871000
1e0c0000
3dffff00
2c180000
4c301800
8c3ffc00
0c781800
0cd81800
0c9ff800
0d181800
0c181800
0c1ff800
0c181800
0c181800
0c18f800
0c183000
08102000
00000000
00000000
00000000
ENDCHAR
STARTCHAR 5008
ENCODING 20488
SWIDTH 962 0
DWIDTH 26 0
BBX 26 27 0 -1
BITMAP
08040000
0e070000
0c060000
0c060000
0c061800
1bfffc00
18464000
18767000
3c666000
38666000
58d65000
989e9800
190f0c00
18060800
180f0000
181e8000
1836c000
18666000
18c63800
1b061f00
1c060800
18060000
18060000
10040000
00000000
00000000
00000000
ENDCHAR
STARTCHAR 500a
ENCODING 20490
SWIDTH 962 0
DWIDTH 26 0
BBX 26 27 0 -1
BITMAP
08008000
0e10e000
0c1c8000
0c18c000
0c304000
18306000
18643800
18c71f00
390c0800
3a0c8000
78184000
58306000
98fff000
18703000
18002000
18220000
183b0800
19318400
19311600
1b301300
1b301200
1e3ff800
181ff000
10000000
00000000
00000000
00000000
ENDCHAR
STARTCHAR 5010
ENCODING 20496
SWIDTH 962 0
DWIDTH 26 0
BBX 26 27 0 -1
BITMAP
08040000
0e070000
0c061800
0c0ffc00
0d0c1800
19dc3000
19963000
19a26000
3981c000
39836000
79863800
59981f00
99e10800
1981c000
19898800
19898e00
19999800
199b6000
19b34000
19066000
180c3000
18181c00
18600f00
11800400
00000000
00000000
00000000
ENDCHAR
STARTCHAR 501d
ENCODING 20509
SWIDTH 962 0
DWIDTH 26 0
BBX 26 27 0 -1
BITMAP
04020000
07038000
06030000
06630000
7ff30000
06030000
26430000
3fe30000
30c30000
30c68000
3fc68000
30c68000
30c68000
3fc6c000
26864000
064c4000
ffec6000
060c6000
06183000
06183800
06301c00
06600f00
06c00400
05000000
00000000
00000000
00000000
ENDCHAR
STARTCHAR 5024
ENCODING 20516
SWIDTH 962 0
DWIDTH 26 0
BBX 26 27 0 -1
BITMAP
08010000
0e01c000
0c018000
0c018c00
0cfffe00
18030000
18030000
18133000
391ff800
39d83000
79983000
599ff000
99983000
19983000
199ff000
19983000
19983000
19983000
199ff000
19902000
19800600
1bffff00
19000000
10000000
00000000
00000000
00000000
ENDCHAR
STARTCHAR 5032
ENCODING 20530
SWIDTH 962 0
DWIDTH 26 0
BBX 26 27 0 -1
BITMAP
04020000
07038000
06030000
06030c00
0dfffe00
0c030000
0c431800
1c7ffc00
1e631800
3c631800
2c7ff800
4c631800
8c631800
0c7ff800
0c431000
0c078000
0c0f4000
0c1b6000
0c333000
0c631c00
0d830f00
0e030400
0c030000
08020000
00000000
00000000
00000000
ENDCHAR
STARTCHAR 5034
ENCODING 20532
SWIDTH 962 0
DWIDTH 26 0
BBX 26 27 0 -1
BITMAP
08040000
0e070000
0c060000
0c061800
0dfffc00
180d0000
18188000
18306000
3c643800
39871f00
5e062c00
98fff000
18060000
18268000
1834e000
1830c000
1bfffe00
1830c000
1830c000
1860c000
1860c000
18c0c000
1980c000
12008000
00000000
00000000
00000000
ENDCHAR
STARTCHAR 5036
ENCODING 20534
SWIDTH 962 0
DWIDTH 26 0
BBX 26 27 0 -1
BITMAP
04000000
07403000
067ff800
0c603000
0c603000
18603000
187ff000
18603000
38603000
387ff000
78603000
58603000
98603000
187ff000
18402000
18000600
1bffff00
18000000
18202000
18381800
18600c00
18c00e00
19800600
16000400
00000000
00000000
00000000
ENDCHAR
STARTCHAR 5038
ENCODING 20536
SWIDTH 962 0
DWIDTH 26 0
BBX 26 27 0 -1
BITMAP
08001000
0e007800
0c03fc00
0dfe0000
0c040800
18430e00
18218c00
18311800
38181000
38122000
78038000
58030c00
9bfffe00
180f8000
180f8000
181b4000
181b6000
18333000
18631c00
18c30f00
1b030400
1c030000
18030000
10020000
00000000
00000000
00000000
ENDCHAR
STARTCHAR 5039
ENCODING 20537
SWIDTH 962 0
DWIDTH 26 0
BBX 26 27 0 -1
BITMAP
04040000
07070000
06060000
0c0d8000
0c18c000
18307000
18601c00
19806f00
3e7ff400
38060000
78863000
58fff800
98c63000
18c63000
18c63000
18fff000
18c62000
188d0000
180c8000
1818c000
18307000
18603f00
19801800
16000000
00000000
00000000
00000000
ENDCHAR
STARTCHAR 503b
ENCODING 20539
SWIDTH 962 0
DWIDTH 26 0
BBX 26 27 0 -1
BITMAP
04000000
07000000
06000000
0dfe0c00
0ccdfe00
0ccccc00
18cccc00
1eccc800
1cfcc800
3cccd800
2cccd000
4cccc800
8cfccc00
0cccc600
0cccc600
0ccfc600
0cfcc600
0fccde00
0c8ccc00
0c0cc800
0c0cc000
0c0cc000
0c0cc000
08088000
00000000
00000000
00000000
ENDCHAR
STARTCHAR 503d
ENCODING 20541
SWIDTH 962 0
DWIDTH 26 0
BBX 26 27 0 -1
BITMAP
02020000
03838000
03030000
03068000
060c6000
06183000
06301c00
0ec04f00
0f3fe400
1e030000
16030000
26031800
46fffc00
06030000
06030000
06233000
063ff800
06303000
06303000
06303000
06303000
063ff000
06303000
04202000
00000000
00000000
00000000
ENDCHAR
STARTCHAR 503f
ENCODING 20543
SWIDTH 962 0
DWIDTH 26 0
BBX 26 27 0 -1
BITMAP
02000000
03860000
03030000
06018000
06011800
067ffc00
0c202000
0e183800
1c0c6000
3c084600
2dffff00
4c040000
8c070000
0c060c00
0dfffe00
0c0c3000
0c186000
0c306000
0c1ec000
0c078000
0c06e000
0c0c3000
0c301800
09c01000
00000000
00000000
00000000
ENDCHAR
STARTCHAR 5042
ENCODING 20546
SWIDTH 962 0
DWIDTH 26 0
BBX 26 27 0 -1
BITMAP
08000000
0e002000
0c403800
0c303000
0c186000
18104600
1bffff00
18000000
38860800
38ff4e00
78c66c00
58c64c00
98c64c00
18fe4c00
18c64c00
18c64c00
18c64c00
18fe4c00
18c64c00
18c64c00
18c60c00
18de7c00
18cc1800
10881000
00000000
00000000
00000000
ENDCHAR
STARTCHAR 5044
ENCODING 20548
SWIDTH 962 0
DWIDTH 26 0
BBX 26 27 0 -1
BITMAP
04000000
07001800
06fffc00
06030000
0c060000
0c840c00
0cfffe00
1ccccc00
1ecccc00
3ccccc00
2ccccc00
4cc8bc00
8cc21800
0c839000
0c030000
0c030600
0dffff00
0c068000
0c0c4000
0c186000
0c303800
0c601f00
0d800c00
0a000000
00000000
00000000
00000000
ENDCHAR
STARTCHAR 5050
ENCODING 20560
SWIDTH 962 0
DWIDTH 26 0
BBX 26 27 0 -1
BITMAP
04040000
07030000
06018000
06010c00
0cfffe00
0c102000
0c083800
1c0c6000
1e444600
3c7fff00
2c602000
4c607000
8c61c000
0c660800
0c781c00
0c607000
0c618000
0c660400
0cd80e00
0cc03800
0c80e000
0d838000
0d1c0000
0ae00000
00000000
00000000
00000000
ENDCHAR
STARTCHAR 5052
ENCODING 20562
SWIDTH 962 0
DWIDTH 26 0
BBX 26 27 0 -1
BITMAP
04000000
07203000
063ff800
06303000
0c303000
0c3ff000
0c303000
1c303000
1e3ff000
3c000600
2fffff00
4c180000
8c300c00
0c3ffe00
0c666c00
0cc66c00
0d0ccc00
0c198c00
0c330c00
0cc60c00
0d0c1c00
0c31f800
0cc03000
09002000
00000000
00000000
00000000
ENDCHAR
STARTCHAR 5054
ENCODING 20564
SWIDTH 962 0
DWIDTH 26 0
BBX 26 27 0 -1
BITMAP
02000000
03a24c00
033f7e00
03324c00
06324c00
07324c00
0e3e7c00
0e324c00
16001000
163ff800
26000000
46000600
07ffff00
060c0000
060c0000
06181800
063ffc00
06181800
06001800
06001800
06007000
060fe000
0601c000
04008000
00000000
00000000
00000000
ENDCHAR
STARTCHAR 5056
ENCODING 20566
SWIDTH 962 0
DWIDTH 26 0
BBX 26 27 0 -1
BITMAP
02040000
03870000
03060000
06060000
06069000
067fdc00
0c063000
0e066000
1c06c600
3dffff00
2c030000
4c060000
8c183000
0c3ff800
0cf03000
0d303000
0e303000
0c3ff000
0c303000
0c303000
0c303000
0c3ff000
0c303000
08200000
00000000
00000000
00000000
ENDCHAR
STARTCHAR 5058
ENCODING 20568
SWIDTH 962 0
DWIDTH 26 0
BBX 26 27 0 -1
BITMAP
08000000
0e203000
0c3ff800
0c303000
0c303000
18303000
18303000
18303000
38303000
383ff000
78303000
58202000
990c8600
19feff00
198cc600
198cc600
198cc600
198cc600
198cc600
198cc600
19fcfe00
1988c600
19008400
10000000
00000000
00000000
00000000
ENDCHAR
STARTCHAR 5059
ENCODING 20569
SWIDTH 962 0
DWIDTH 26 0
BBX 26 27 0 -1
BITMAP
08080000
0e060000
0c030000
0c021800
0dfffc00
18402000
18303800
18186000
3d104600
39ffff00
59030600
9b030400
1a430800
187ff800
18631800
18631800
18631800
18631800
18631800
18637800
18633000
18432000
18030000
10020000
00000000
00000000
00000000
ENDCHAR
STARTCHAR 5066
ENCODING 20582
SWIDTH 962 0
DWIDTH 26 0
BBX 26 27 0 -1
BITMAP
04000000
07000c00
06fffe00
06030c00
0c231000
0c3b0000
0c33f800
1c330000
1e7b0000
3ccfff00
2c83fc00
4d200000
8c3ff800
0c301800
0c301800
0c3ff800
0c301800
0c301800
0c3ff800
0c301800
0c301800
0c31f800
0c307000
08202000
00000000
00000000
00000000
ENDCHAR
STARTCHAR 5067
ENCODING 20583
SWIDTH 962 0
DWIDTH 26 0
BBX 26 27 0 -1
BITMAP
02020000
03838000
03030000
03030c00
06fffe00
0606c000
060c6000
0e1a3800
0e671f00
1f8c4800
160fe000
26186000
462cc000
06458000
0606cc00
0619fe00
06630c00
060d9800
0630b000
0600e000
0601c000
06070000
06380000
05c00000
00000000
00000000
00000000
ENDCHAR
STARTCHAR 5071
ENCODING 20593
SWIDTH 962 0
DWIDTH 26 0
BBX 26 27 0 -1
BITMAP
04000800
07001c00
0640fe00
067fc000
06608000
0c60e000
0c60c600
1c7fff00
1c60c000
3c60c000
2c64cc00
4c67fe00
8c660c00
0c660c00
0c67fc00
0c660c00
0c660c00
0c67fc00
0cc60c00
0cc60c00
0c860c00
0d87fc00
0d060c00
0a040800
00000000
00000000
00000000
ENDCHAR
STARTCHAR 5078
ENCODING 20600
SWIDTH 962 0
DWIDTH 26 0
BBX 26 27 0 -1
BITMAP
04040000
07070000
060e0000
060d0000
0618c000
0c306000
0c603800
1cc05f00
1f3fec00
3c000000
2cfc8800
4cccee00
8ccccc00
0cfcd800
0ccd9800
0ccd1000
0cfe2000
0ccd1000
0ccc8800
0ccccc00
0ccc6600
0ccc6600
0cdc4400
08880000
00000000
00000000
00000000
ENDCHAR
STARTCHAR 5079
ENCODING 20601
SWIDTH 962 0
DWIDTH 26 0
BBX 26 27 0 -1
BITMAP
04040000
07070000
06060000
060c3000
060ff800
0c1c3000
0c943000
1ca66000
1c82c000
3c81c000
2c836000
4c8c3800
8cb01f00
0cdffc00
0c999800
0c999800
0c999800
0c9ff800
0c999800
0c999800
0c999800
0c1ff800
0c181800
08100000
00000000
00000000
00000000
ENDCHAR
STARTCHAR 507c
ENCODING 20604
SWIDTH 962 0
DWIDTH 26 0
BBX 26 27 0 -1
BITMAP
04020000
07038000
06030000
06030c00
0603fe00
0c030000
0c031800
0c7ffc00
1c001800
1c001800
1dffff00
2c001800
4c001800
0c7ff800
0c031800
0c431000
0c730c00
0c63fe00
0c630000
0ce30000
0cd30000
0d8f0000
0d03ff00
0a00fc00
00000000
00000000
00000000
ENDCHAR
STARTCHAR 5081
ENCODING 20609
SWIDTH 962 0
DWIDTH 26 0
BBX 26 27 0 -1
BITMAP
00010000
0201c000
03898c00
031dbe00
03318c00
06318c00
06318c00
0e3dbc00
0f318c00
1e318c00
163ffc00
26218000
46019800
067ffc00
06081800
060c1800
06063000
06036000
0601c000
06036000
06063800
06181f00
06600800
05800000
00000000
00000000
00000000
ENDCHAR
STARTCHAR 5084
ENCODING 20612
SWIDTH 962 0
DWIDTH 26 0
BBX 26 27 0 -1
BITMAP
04020000
07038000
06030000
06030c00
0dfffe00
0c830800
0c668e00
1c4cd800
1e186000
3c303800
2cc00f00
4f203400
8c3ff800
0c303000
0c303000
0c3ff000
0c303000
0c303000
0c3ff000
0c303000
0c303000
0c3ff000
0c303000
08202000
00000000
00000000
00000000
ENDCHAR
STARTCHAR 5086
ENCODING 20614
SWIDTH 962 0
DWIDTH 26 0
BBX 26 27 0 -1
BITMAP
04000000
07400c00
067ffe00
06604000
0c607000
0c60c000
0c650c00
1c67fe00
1e660c00
3c660c00
2c67fc00
4c660c00
8c660c00
0c67fc00
0c66cc00
0c60c000
0c68d000
0c6ecc00
0cccc600
0cd8c700
0d90c300
0d27c200
0d418000
0a010000
00000000
00000000
00000000
ENDCHAR
STARTCHAR 5089
ENCODING 20617
SWIDTH 962 0
DWIDTH 26 0
BBX 26 27 0 -1
BITMAP
08000000
0e800c00
0cfffe00
0cc00000
18c02000
18cff000
18c00400
38fffe00
3ccd0800
78cd9c00
58ccb000
98cc6000
18cdb800
18de1f00
18c82800
18c03200
18ffff00
19883000
19863000
19033000
1a023000
1a01f000
1c006000
10004000
00000000
00000000
00000000
ENDCHAR
STARTCHAR 508a
ENCODING 20618
SWIDTH 962 0
DWIDTH 26 0
BBX 26 27 0 -1
BITMAP
02000000
03a03000
033ff800
06303000
06303000
06303000
0c3ff000
0e202000
1c401800
3c7ffc00
2c601800
4c601800
8c7ff800
0c601800
0c601800
0c7ff800
0c601800
0c601800
0c7ff800
0c102000
0c3c1800
0c600c00
0cc00600
0b000400
00000000
00000000
00000000
ENDCHAR
STARTCHAR 508f
ENCODING 20623
SWIDTH 962 0
DWIDTH 26 0
BBX 26 27 0 -1
BITMAP
04030000
07018000
06810c00
06fffe00
0cc10000
0cc1c000
0cc19800
1cdffc00
1ec19800
3cc19800
2cffff00
4cc19800
8cc19800
0cdff800
0cc18000
0cc18000
0cd01800
0cdffc00
0cd81800
0cd81800
0d981800
0d9ff800
0d181800
0a101000
00000000
00000000
00000000
ENDCHAR
STARTCHAR 5090
ENCODING 20624
SWIDTH 962 0
DWIDTH 26 0
BBX 26 27 0 -1
BITMAP
02000000
03860000
03030000
06030000
06020c00
0dfffe00
0c000000
0e3ff000
1c303000
3c303000
2c3ff000
4c202000
8c800c00
0cfffe00
0cc00c00
0ccfcc00
0cc84c00
0cc84c00
0ccfcc00
0cc88c00
0cc80c00
0cc0fc00
0cc03800
08801000
00000000
00000000
00000000
ENDCHAR
STARTCHAR 5093
ENCODING 20627
SWIDTH 962 0
DWIDTH 26 0
BBX 26 27 0 -1
BITMAP
04030000
07018000
06018000
06810c00
0cfffe00
0cc00c00
18c00c00
18fffc00
3cc00000
38c10c00
38ff7e00
58c30c00
98d34c00
18db6c00
18cb2c00
18c30c00
18c71c00
199b3c00
19f3ec00
19a34c00
1b030c00
1b3f7c00
1a061800
14041000
00000000
00000000
00000000
ENDCHAR
STARTCHAR 5097
ENCODING 20631
SWIDTH 962 0
DWIDTH 26 0
BBX 26 27 0 -1
BITMAP
04060000
07030000
06018000
06010c00
0cfffe00
0c020000
0c072000
1c183800
1e7fe000
3c318000
2c062000
4c181800
8cfffc00
0c3c0c00
0c400000
0c7ffc00
0c630c00
0c630c00
0c7ffc00
0c630c00
0c630c00
0c7ffc00
0c600c00
08400800
00000000
00000000
00000000
ENDCHAR
STARTCHAR 509f
ENCODING 20639
SWIDTH 962 0
DWIDTH 26 0
BBX 26 27 0 -1
BITMAP
04008000
0708c000
060e8000
06184000
0c1a6000
0c33b000
0c661e00
1c8c4800
1e082000
3c3ff000
2c182000
4c000800
8dfdfc00
0c0c1800
0c8d1800
0c6cd800
0c4c9800
0c3c7800
0dcf9800
0c8d1800
0c0c1800
0cfcf800
0c383000
08102000
00000000
00000000
00000000
ENDCHAR
STARTCHAR 50a0
ENCODING 20640
SWIDTH 962 0
DWIDTH 26 0
BBX 26 27 0 -1
BITMAP
08000000
0e801000
0c601c00
0c301800
0c221800
0bff1800
18001800
18081a00
3dfdff00
38001800
58081800
99fd1800
18019800
1800d800
190c9800
19fe1800
198c1800
198c1800
198c1800
19fc1800
19881800
1901f800
18007000
10002000
00000000
00000000
00000000
ENDCHAR
STARTCHAR 50a1
ENCODING 20641
SWIDTH 962 0
DWIDTH 26 0
BBX 26 27 0 -1
BITMAP
00000000
08000000
0e000000
0cc0c000
0c606000
18606000
18404000
1bfbfc00
38000000
38100800
7a1c0e00
59190c00
99988c00
1998cc00
1990cc00
1910c800
19208800
18209000
182e1000
18782000
1fc02400
1a0fff00
18000000
10000000
00000000
00000000
00000000
ENDCHAR
STARTCHAR 50a4
ENCODING 20644
SWIDTH 962 0
DWIDTH 26 0
BBX 26 27 0 -1
BITMAP
08104000
0e1c7000
0c186000
0dff6c00
0c186600
18186400
18186000
1bffff00
38406000
38706000
58626000
5bff6400
98c06700
18d86600
199a6c00
1bff7800
19183000
18183200
18ff7200
1bd8da00
19198f00
18190700
181a0300
10100000
00000000
00000000
00000000
ENDCHAR
STARTCHAR 50a6
ENCODING 20646
SWIDTH 962 0
DWIDTH 26 0
BBX 26 27 0 -1
BITMAP
08000000
0e206000
0c3ff000
0c306000
0c3e6000
18326000
18326000
19326c00
39fffe00
3b000c00
7b406800
5a7ff000
98606000
18606000
187fe000
18606000
18606000
187fe000
18606000
18606000
18606000
18606000
1863e000
1040c000
00000000
00000000
00000000
ENDCHAR
STARTCHAR 50aa
ENCODING 20650
SWIDTH 962 0
DWIDTH 26 0
BBX 26 27 0 -1
BITMAP
04040000
07070000
060c0000
06182000
0c201800
0cfffc00
0c204c00
1c387000
1e60c000
3c888800
2dfffc00
4cc70c00
8c0c8000
0c1a6000
0c63b000
0d861f00
0e190c00
0c63a000
0c063800
0c187000
0c61c000
0c070000
0c380000
09c00000
00000000
00000000
00000000
ENDCHAR
STARTCHAR 50ab
ENCODING 20651
SWIDTH 962 0
DWIDTH 26 0
BBX 26 27 0 -1
BITMAP
02000000
03a00c00
033ffe00
03318c00
06318c00
063ffc00
06318c00
0e318c00
0f3ffc00
1e220800
16071000
26183800
467fe000
06138800
060c0400
067ffe00
06218600
06119000
061d8800
06318c00
06618600
06cf8600
07030400
04020000
00000000
00000000
00000000
ENDCHAR
STARTCHAR 50b9
ENCODING 20665
SWIDTH 962 0
DWIDTH 26 0
BBX 26 27 0 -1
BITMAP
04060000
07030000
06021800
06fffc00
0c202000
0c183000
0c084400
1dfffe00
1e000000
3c203000
2c3ff800
4c303000
8c303000
0c3ff000
0c303000
0c303000
0c3ff000
0c2cd200
0c0cc200
0c18c200
0c18c300
0c30ff00
0cc07e00
0b000000
00000000
00000000
00000000
ENDCHAR
STARTCHAR 50bc
ENCODING 20668
SWIDTH 962 0
DWIDTH 26 0
BBX 26 27 0 -1
BITMAP
08104000
0e1c7000
0c186600
0dffff00
0c186000
18186000
181fe000
18830c00
38fffe00
38c30c00
78c30c00
58fffc00
98830800
18031000
187ff800
18030000
18030600
1bffff00
18068000
180cc000
18186000
18303800
18c01f00
12000800
00000000
00000000
00000000
ENDCHAR
STARTCHAR 50c0
ENCODING 20672
SWIDTH 962 0
DWIDTH 26 0
BBX 26 27 0 -1
BITMAP
04024000
07136800
06124800
06124a00
0cffff00
0c124800
0c124900
1c13c900
1e224f00
3c400200
2c7fff00
4cc18300
8d818200
0c218c00
0c3ffe00
0c318c00
0c318c00
0c318c00
0c31bc00
0c319800
0c219000
0c018000
0c018000
08010000
00000000
00000000
00000000
ENDCHAR
STARTCHAR 50c3
ENCODING 20675
SWIDTH 962 0
DWIDTH 26 0
BBX 26 27 0 -1
BITMAP
08104000
0e1c7000
0c186000
0c186400
0dfffe00
18186000
18586000
18700000
38600c00
387ffe00
78c00c00
597fcc00
9a64cc00
1c64cc00
187fcc00
1864cc00
1864cc00
187fcc00
1864cc00
1864cc00
18c5cc00
18848c00
19007c00
10001800
00000000
00000000
00000000
ENDCHAR
STARTCHAR 50cc
ENCODING 20684
SWIDTH 962 0
DWIDTH 26 0
BBX 26 27 0 -1
BITMAP
04204000
07387000
06306000
06306000
0c34c000
0dfec600
0c31ff00
1c328c00
1dfe8c00
3d324c00
2d324c00
4dfe4c00
8d325800
0d325800
0dfe5800
0c303000
0c323000
0fff7000
0c305800
0c30d800
0c308c00
0c310f00
0c320400
08240000
00000000
00000000
00000000
ENDCHAR
STARTCHAR 50cd
ENCODING 20685
SWIDTH 962 0
DWIDTH 26 0
BBX 26 27 0 -1
BITMAP
04044000
071e7000
06f06000
0c306000
0c306000
1dfe6000
3c306600
2c31ff00
4dfe6600
8d326600
0d326600
0dfe6600
0d326600
0d326600
0dfe6600
0d306600
0c30c600
0dfec600
0c30c600
0c318600
0c7f8600
0fe33e00
0c820c00
08040800
00000000
00000000
00000000
ENDCHAR
STARTCHAR 50d0
ENCODING 20688
SWIDTH 962 0
DWIDTH 26 0
BBX 26 27 0 -1
BITMAP
02101000
038c1800
03063000
03042000
067ffe00
06018000
06018800
0e3ffc00
0f018000
1e018600
16ffff00
26318800
46199c00
0605a000
06ffff00
06000000
06100c00
061ffe00
06180c00
06180c00
06180c00
061ffc00
06180c00
04100800
00000000
00000000
00000000
ENDCHAR
STARTCHAR 50d2
ENCODING 20690
SWIDTH 962 0
DWIDTH 26 0
BBX 26 27 0 -1
BITMAP
04060000
07030000
06018000
06410600
0c7fff00
0cc84600
0d9c3400
1c301800
1ec00c00
3d7ff800
2c0c1a00
4dffff00
8c0c1800
0c0c1800
0cfff800
0c180000
0c301800
0c7ffc00
0cd81800
0c981800
0d181800
0e1ff800
0c181800
08101000
00000000
00000000
00000000
ENDCHAR
STARTCHAR 50d8
ENCODING 20696
SWIDTH 962 0
DWIDTH 26 0
BBX 26 27 0 -1
BITMAP
10400000
1c704000
18607000
18646000
34666000
3264c600
3364ff00
32688c00
70618c00
73fd8c00
b2068c00
b2948c00
32f49800
32949800
32945800
32947000
32f47000
32947000
32847000
3204d800
323d9c00
320a0f00
32040400
20080000
00000000
00000000
00000000
ENDCHAR
STARTCHAR 50d9
ENCODING 20697
SWIDTH 962 0
DWIDTH 26 0
BBX 26 27 0 -1
BITMAP
04104000
071c7000
06186000
06186800
0cfffc00
0c186000
0c186400
1dfffe00
1e030000
3c431800
2c7ffc00
4c631800
8c631800
0c7ff800
0c631800
0c631800
0c631800
0c7ff800
0c104000
0c1c3000
0c301800
0c601c00
0c800c00
09000800
00000000
00000000
00000000
ENDCHAR
STARTCHAR 50dc
ENCODING 20700
SWIDTH 962 0
DWIDTH 26 0
BBX 26 27 0 -1
BITMAP
04000000
07049000
06fe9800
0606a400
06464e00
0c6c5000
0e2c2000
1c182000
1c305800
2c2fec00
4c400f00
8c902400
0c1ff000
0c183000
0c183000
0c183000
0c1ff000
0c102000
0c083800
0c0c3000
0c066000
0c044600
0dffff00
08000000
00000000
00000000
00000000
ENDCHAR
STARTCHAR 50de
ENCODING 20702
SWIDTH 962 0
DWIDTH 26 0
BBX 26 27 0 -1
BITMAP
04003000
0703f800
06ff2000
06883800
0c463000
0c636000
18a24000
1cfff000
38c06000
38c0c000
58fff800
58c03000
98c06000
18c04c00
18fffe00
18c00c00
18a94c00
18a5ac00
19a6bc00
1964ac00
19400c00
1a007c00
1c001800
10001000
00000000
00000000
00000000
ENDCHAR
STARTCHAR 50df
ENCODING 20703
SWIDTH 962 0
DWIDTH 26 0
BBX 26 27 0 -1
BITMAP
08020000
0e038000
0c832000
0ce33800
0c936400
191b4600
1bf3f800
18633000
38932400
393b4e00
7bebfa00
59033000
98c31800
1bffff00
18c30000
18c30800
18f18e00
18d98c00
1998d800
1990d200
1900e200
1b01bb00
1a060f00
14180300
00000000
00000000
00000000
ENDCHAR
STARTCHAR 50e1
ENCODING 20705
SWIDTH 962 0
DWIDTH 26 0
BBX 26 27 0 -1
BITMAP
04020000
07038000
06030c00
06fffe00
0c030000
0c231800
0c3ffc00
1c331800
1e331800
3c3ff800
2c331800
4c331800
8c3ff800
0c331000
0c030c00
0dfffe00
0ce10600
0c088800
0c4cc600
0c4c8b00
0ccc0b00
0ccffa00
0d87f000
08000000
00000000
00000000
00000000
ENDCHAR
STARTCHAR 50e2
ENCODING 20706
SWIDTH 962 0
DWIDTH 26 0
BBX 26 27 0 -1
BITMAP
04001000
07007800
0607fc00
06fc1000
0c221c00
0c199800
0c113000
1c402600
1e7fff00
3cd00200
2d982400
4c303000
8c343000
0c7efc00
0c463000
0cad3000
0d6db000
0c193400
0c1bfe00
0c313000
0c603000
0cc03000
0d003000
0a002000
00000000
00000000
00000000
ENDCHAR
STARTCHAR 50eb
ENCODING 20715
SWIDTH 962 0
DWIDTH 26 0
BBX 26 27 0 -1
BITMAP
04000000
07000c00
06fffe00
060cc000
0c0cc000
0c8ccc00
0cfdfe00
1cc88c00
1ec00c00
3dfcfc00
2c8cc800
4c0cc000
8c0cc600
0fffff00
0c010000
0c118000
0c1cc000
0c588400
0c581200
0cd81300
0cd81b00
0d9ff200
0c0fe000
08000000
00000000
00000000
00000000
ENDCHAR
STARTCHAR 50f2
ENCODING 20722
SWIDTH 962 0
DWIDTH 26 0
BBX 26 27 0 -1
BITMAP
08000000
0e000000
0c000600
0dffff00
0c0cc000
190cc400
19fffe00
198cc600
398cc600
39fffe00
78802000
58e03800
98c83000
18fdfe00
198c3000
19cd3000
1a6db200
1c5bff00
18193000
18303000
18603000
18c03000
1b003000
14002000
00000000
00000000
00000000
ENDCHAR
STARTCHAR 50f4
ENCODING 20724
SWIDTH 962 0
DWIDTH 26 0
BBX 26 27 0 -1
BITMAP
08000000
0e000000
0d0c8600
0dfeff00
0d8cc600
198cc600
19fcfe00
198cc600
398cc600
39fcfe00
79800600
59906600
999ff600
19986600
19986600
199fe600
19986600
19986600
199fe600
19984600
19900600
19807e00
19800c00
11000800
00000000
00000000
00000000
ENDCHAR
STARTCHAR 50f7
ENCODING 20727
SWIDTH 962 0
DWIDTH 26 0
BBX 26 27 0 -1
BITMAP
08104000
0e1c7000
0c186400
0dfffe00
0c186000
18586000
18648000
1864c400
3ffffe00
3864c000
7864c000
5867c000
98601800
187ffc00
18430000
18030600
1bffff00
180f4000
181b6000
18333000
18631c00
19830f00
1e030400
10020000
00000000
00000000
00000000
ENDCHAR
STARTCHAR 50fa
ENCODING 20730
SWIDTH 962 0
DWIDTH 26 0
BBX 26 27 0 -1
BITMAP
04000000
07000000
06203000
063ff800
0c303000
0c303000
183ff000
18202000
3c888c00
38fcfe00
78cccc00
58cccc00
98fcfc00
18030000
18030c00
19fffe00
18078000
180f4000
181b6000
18333800
18631f00
19830800
1a030000
10020000
00000000
00000000
00000000
ENDCHAR
STARTCHAR 50fc
ENCODING 20732
SWIDTH 962 0
DWIDTH 26 0
BBX 26 27 0 -1
BITMAP
04048000
0706c000
06449800
067ffc00
0c649800
0c649800
0c7ff800
1c649800
1e649800
3c7ff800
2c401000
4c000c00
8dfffe00
0c000000
0c7ff800
0c601800
0c601800
0c7ff800
0c402000
0c303800
0c186000
0c104600
0fffff00
08000000
00000000
00000000
00000000
ENDCHAR
STARTCHAR 5101
ENCODING 20737
SWIDTH 962 0
DWIDTH 26 0
BBX 26 27 0 -1
BITMAP
08220000
0e3b0000
0c318000
0c610c00
0c7ffe00
18e18000
19e18800
1a7ffc00
38618000
387ffc00
78618000
58618c00
987ffe00
18400000
188c4600
18fe7f00
18cc6600
18cc6600
18cfe600
18c84600
18c00600
18c07e00
18c00c00
10800800
00000000
00000000
00000000
ENDCHAR
STARTCHAR 510d
ENCODING 20749
SWIDTH 962 0
DWIDTH 26 0
BBX 26 27 0 -1
BITMAP
04004000
07137000
064cc800
06638e00
0c7bbc00
0c66cc00
0c6c6c00
1c732c00
1e7ffc00
3c500000
2c1c3800
4c300e00
8c680600
0d8c3200
0c1ff800
0c183000
0c286000
0c446000
0c06c000
0c038000
0c06c000
0c0c7000
0c301f00
08c00800
00000000
00000000
00000000
ENDCHAR
STARTCHAR 510e
ENCODING 20750
SWIDTH 962 0
DWIDTH 26 0
BBX 26 27 0 -1
BITMAP
08208000
0e38e000
0c30c000
0c34cc00
19fec600
1830c400
1830c200
3fffff00
3820c000
5830c400
9834c700
19fec600
18306600
19fe6c00
19326800
19fe7000
19323000
19fe7200
18307200
1bfeda00
18319a00
18330e00
18340700
10280300
00000000
00000000
00000000
ENDCHAR
STARTCHAR 510f
ENCODING 20751
SWIDTH 962 0
DWIDTH 26 0
BBX 26 27 0 -1
BITMAP
08100000
0e1c0c00
0c19fe00
0c9e8c00
0cd88c00
18fe4c00
19865800
194c3000
3a6c6800
3c58cc00
78330700
58c40400
9b021000
1c639c00
18333000
18132200
1bffff00
18078000
180f4000
181b6000
18333800
18c31f00
1b030800
10020000
00000000
00000000
00000000
ENDCHAR
STARTCHAR 5116
ENCODING 20758
SWIDTH 962 0
DWIDTH 26 0
BBX 26 27 0 -1
BITMAP
08000000
0e0c4000
0dfe7000
0d906000
0d90c400
1990fe00
19fcc000
19858000
39859000
39fd1800
79920c00
59940c00
99900800
19fe0000
18001800
187ffc00
18649800
18649800
18649800
18649800
18649800
18649800
1bffff00
10000000
00000000
00000000
00000000
ENDCHAR
STARTCHAR 5119
ENCODING 20761
SWIDTH 962 0
DWIDTH 26 0
BBX 26 27 0 -1
BITMAP
08008000
0e00e000
0c08cc00
0d8ffe00
0ccccc00
186ccc00
184ffc00
1800c200
383fff00
38000000
7887f800
5bc61800
98c61800
18c7f800
18c60000
18c7fc00
18c60c00
18c60c00
18c7fc00
18a60800
19b40000
1f1fff00
1a07fc00
10000000
00000000
00000000
00000000
ENDCHAR
STARTCHAR 511b
ENCODING 20763
SWIDTH 962 0
DWIDTH 26 0
BBX 26 27 0 -1
BITMAP
04100000
071c0000
06180000
06300c00
0c3ffe00
0c524800
0c924800
1c7ffe00
1e124800
3c124a00
2cffff00
4c401000
8c601c00
0c481800
0cfdff00
0c8c9800
0d4cda00
0e6dff00
0c589800
0c181800
0c301800
0c601800
0c801800
0b001000
00000000
00000000
00000000
ENDCHAR
STARTCHAR 511d
ENCODING 20765
SWIDTH 962 0
DWIDTH 26 0
BBX 26 27 0 -1
BITMAP
08000000
0e202000
0c343a00
0cb6b300
0cb4b600
19b9b800
1b313000
186c6c00
38c6c600
39848400
7a010000
59fffe00
9b020600
1b038400
1a030800
19fffe00
18078000
180f4000
181b2000
18333000
18631c00
18830f00
1a030400
10020000
00000000
00000000
00000000
ENDCHAR
STARTCHAR 511e
ENCODING 20766
SWIDTH 962 0
DWIDTH 26 0
BBX 26 27 0 -1
BITMAP
08000000
0e000000
0c000c00
0dfffe00
0c430000
18733c00
18c30700
19830300
3a030100
3dfffe00
79c78e00
59ab5600
99932600
19ab5600
19c78e00
19830600
19c78e00
19ab5600
19932600
19ab5600
19c78e00
19830600
19833e00
11020c00
00000000
00000000
00000000
ENDCHAR
STARTCHAR 5123
ENCODING 20771
SWIDTH 962 0
DWIDTH 26 0
BBX 26 27 0 -1
BITMAP
04030000
07018000
0600c000
06808600
0cffff00
0cc33000
0cc33000
1ccffc00
1ec33000
3cc33200
2cffff00
4cc0c000
8ccffc00
0ccccc00
0ccccc00
0ccffc00
0ccccc00
0ccccc00
0ccffc00
0cc21000
0d838c00
0d860600
0d180300
0a200200
00000000
00000000
00000000
ENDCHAR
STARTCHAR 5127
ENCODING 20775
SWIDTH 962 0
DWIDTH 26 0
BBX 26 27 0 -1
BITMAP
04102000
07183000
06102000
06142800
0cfefc00
0c102000
0c102400
1cfffe00
1e285000
3c64d800
2c468f00
4c850400
8d3ff800
0c301800
0c3ff800
0c301800
0c3ff800
0c301800
0c301800
0c3ff800
0c1c2000
0c301800
0cc00c00
09000800
00000000
00000000
00000000
ENDCHAR
STARTCHAR 5128
ENCODING 20776
SWIDTH 962 0
DWIDTH 26 0
BBX 26 27 0 -1
BITMAP
080c0c00
0e9e3e00
0cf0e000
0cc4c400
0cfefe00
18d8d800
18d8d800
19999800
39999800
39191800
7a521000
587ffc00
98601800
18601800
187ff800
18601800
187ff800
18601800
18601800
187ff800
18202000
18381800
18600c00
11800800
00000000
00000000
00000000
ENDCHAR
STARTCHAR 512b
ENCODING 20779
SWIDTH 962 0
DWIDTH 26 0
BBX 26 27 0 -1
BITMAP
04030000
07018000
06010c00
06fffe00
0c000000
0c1ff000
0c183000
1c1ff000
1e400600
3c7fff00
2cc04600
4d9fe400
8c030000
0c0c1000
0c323800
0cc74000
0c19a000
0c63a000
0d8db000
0c319c00
0cc18f00
0f1f8400
0c070000
08020000
00000000
00000000
00000000
ENDCHAR
STARTCHAR 512c
ENCODING 20780
SWIDTH 962 0
DWIDTH 26 0
BBX 26 27 0 -1
BITMAP
08400000
0e700000
0c610c00
0c69fe00
1bfd8c00
18618c00
18698c00
1bfdfc00
38618c00
38658c00
7ffffc00
58018c00
99f98c00
19998c00
1999fc00
19f8d800
1998d800
1998d800
19f8d900
1998d900
19999900
19999f00
197b0e00
11140000
00000000
00000000
00000000
ENDCHAR
STARTCHAR 512f
ENCODING 20783
SWIDTH 962 0
DWIDTH 26 0
BBX 26 27 0 -1
BITMAP
08020000
0e839000
0c631c00
0c333000
0c264000
19fff800
18060000
1bfffe00
38184000
38303000
78ffff00
5b630800
9c7ff000
18630000
187ff000
18630000
18630c00
187ffe00
18008c00
18a44c00
189b6c00
19924c00
1b007c00
10001800
00000000
00000000
00000000
ENDCHAR
STARTCHAR 5136
ENCODING 20790
SWIDTH 962 0
DWIDTH 26 0
BBX 26 27 0 -1
BITMAP
08020000
0e838800
0ce30e00
0cc30c00
0cfffc00
18330000
18611800
187ffc00
3ce18000
397ff800
5a618000
987ff800
18618400
187ffe00
18000000
18fffc00
18cc8c00
18d86c00
18efdc00
18c84c00
18cfcc00
18c03c00
18c01800
10801000
00000000
00000000
00000000
ENDCHAR
STARTCHAR 513e
ENCODING 20798
SWIDTH 962 0
DWIDTH 26 0
BBX 26 27 0 -1
BITMAP
08030000
0e030c00
0dfffe00
0c030000
0c7ff800
18631800
187ff800
19030600
3dffff00
3b000600
5e7df400
98451000
187df000
1818c800
19fffc00
1818c000
18fff800
1818c400
1bfffe00
1838c400
18586600
18d9b800
1b3e1f00
10180c00
00000000
00000000
00000000
ENDCHAR
STARTCHAR 5142
ENCODING 20802
SWIDTH 962 0
DWIDTH 26 0
BBX 26 27 0 -1
BITMAP
00000000
00100000
001c0000
00180000
00180000
00183000
3ffff800
08180000
0e180000
0c180000
0c180000
0c181800
1ffffc00
0c360000
00360000
00660000
00660000
00c60400
00c60400
01860400
03060600
0607fe00
1803fc00
60000000
00000000
00000000
00000000
ENDCHAR
STARTCHAR 514a
ENCODING 20810
SWIDTH 962 0
DWIDTH 26 0
BBX 26 27 0 -1
BITMAP
00000000
00020000
0101c000
01c10000
01808000
0320c000
06386000
0c603800
30c09f00
81804800
03006000
0ffff000
06003000
00842000
00e70000
00c60000
00c60000
00c60200
01860200
01860200
03060300
0607ff00
1803fe00
40000000
00000000
00000000
00000000
ENDCHAR
STARTCHAR 514e
ENCODING 20814
SWIDTH 962 0
DWIDTH 26 0
BBX 26 27 0 -1
BITMAP
00004000
0001e000
003ff800
3ff80000
00100000
001c0000
08183000
0ffff800
0c183000
0c183000
0c183000
0c303000
0ffff000
0c362000
08760000
0066c000
00c66000
00c63200
01862200
03060200
06060300
0c07ff00
3003fe00
c0000000
00000000
00000000
00000000
ENDCHAR
STARTCHAR 514f
ENCODING 20815
SWIDTH 962 0
DWIDTH 26 0
BBX 26 27 0 -1
BITMAP
00000000
00007800
0407fe00
07fe0000
06040000
06070000
06060000
06061800
0607fc00
06060000
06060000
06060c00
07fffe00
0618c000
0618c000
0618c000
0c30c200
0c30c200
1860c200
1860c200
30c0c300
2180ff00
46007e00
88000000
00000000
00000000
00000000
ENDCHAR
STARTCHAR 5150
ENCODING 20816
SWIDTH 962 0
DWIDTH 26 0
BBX 26 27 0 -1
BITMAP
00000000
08000000
0e203000
0c3ff800
0c303000
0c303000
0c303000
0c3ff000
0c303000
0c303000
0c303000
0c3ff000
0c202000
09020000
01c38000
01830000
01830000
03030200
03030200
06030200
0c030300
1803ff00
6001fe00
80000000
00000000
00000000
00000000
ENDCHAR
STARTCHAR 5153
ENCODING 20819
SWIDTH 962 0
DWIDTH 26 0
BBX 26 27 0 -1
BITMAP
00000000
00401800
3fe7fc00
03006000
03006000
23046000
3b076000
33066000
33066000
33066000
33066c00
ffdffe00
43046000
07c0f800
0780f000
0d81b000
0d81b000
19833200
19933200
11a63200
33cc3300
21983f00
41201e00
80400000
00000000
00000000
00000000
ENDCHAR
STARTCHAR 5158
ENCODING 20824
SWIDTH 962 0
DWIDTH 26 0
BBX 26 27 0 -1
BITMAP
00000000
00010000
0001c000
01018000
3f830000
00031000
00060800
00040c00
00dffe00
ffec0600
19800400
19841800
1987fc00
19861800
19861800
19861800
19861800
3187f800
31861a00
31841200
61800300
41ffff00
80fffe00
00000000
00000000
00000000
00000000
ENDCHAR
STARTCHAR 5160
ENCODING 20832
SWIDTH 962 0
DWIDTH 26 0
BBX 26 27 0 -1
BITMAP
00000000
04104000
071c7000
06186400
06206700
067e6c00
fe667000
06666000
067e6400
0e666400
36666600
e67e7e00
46443c00
04000000
00820000
00e38000
00c30000
00c30400
00c30400
01830600
01830600
0303ff00
0601fe00
18000000
00000000
00000000
00000000
ENDCHAR
STARTCHAR 5164
ENCODING 20836
SWIDTH 962 0
DWIDTH 26 0
BBX 26 27 0 -1
BITMAP
0800c000
0e006000
0c104200
0c9fff00
8cf89000
4cd89000
4c9bfc00
6d189000
6e189000
4c1ffe00
0c986000
ffdbfc00
331a6400
331bfc00
331a6400
331bfc00
33310800
23318400
63630600
63840500
43100100
c3ffff00
81fffe00
80000000
00000000
00000000
00000000
ENDCHAR
STARTCHAR 5166
ENCODING 20838
SWIDTH 962 0
DWIDTH 26 0
BBX 26 27 0 -1
BITMAP
00000000
00000000
00c00000
21e00000
38300000
30180000
30180000
300c0000
301c0000
301e0000
301a0000
30330000
30330000
30618000
3061c000
30c0e000
31807800
33003e00
36001000
38000000
30000600
7fffff00
30000000
00000000
00000000
00000000
00000000
ENDCHAR
STARTCHAR 516a
ENCODING 20842
SWIDTH 962 0
DWIDTH 26 0
BBX 26 27 0 -1
BITMAP
00100000
001c0000
00180000
00340000
00630000
0181c000
06007800
18019f00
c7ffc800
00000000
08611000
0ff1dc00
0c633000
0c666000
0fe88000
0c710000
0c688000
0fe44000
0c663000
0c631800
0c639c00
0de18c00
08c10800
00000000
00000000
00000000
00000000
ENDCHAR
STARTCHAR 516f
ENCODING 20847
SWIDTH 962 0
DWIDTH 26 0
BBX 26 27 0 -1
BITMAP
00000000
00008000
0600e000
0300c000
01818000
01c10000
00820000
00043000
1ffff800
00303000
00303000
00303000
00303000
00303000
00303000
00303000
0033f000
0030e000
00304000
00300000
00300000
00300000
00300000
00200000
00000000
00000000
00000000
ENDCHAR
STARTCHAR 5172
ENCODING 20850
SWIDTH 962 0
DWIDTH 26 0
BBX 26 27 0 -1
BITMAP
00000000
00001800
3ffffc00
00180000
00180000
00186000
1ffff000
00180000
00180000
00180600
ffffff00
00000000
00040000
00878000
00e30000
00c30000
01818000
01818000
0300c000
0600e000
0c007800
30003f00
c0001800
00000000
00000000
00000000
00000000
ENDCHAR
STARTCHAR 517a
ENCODING 20858
SWIDTH 962 0
DWIDTH 26 0
BBX 26 27 0 -1
BITMAP
00820000
00e30000
00c20000
01810000
03018000
0600c000
0dfff000
3061be00
80619000
00c18000
01818000
031f8000
0c030000
30020000
00080000
20ce4000
3fec7000
30ccc000
30cd8000
30ce0800
30cc0800
3fcffc00
3087f800
20000000
00000000
00000000
00000000
ENDCHAR
STARTCHAR 517e
ENCODING 20862
SWIDTH 962 0
DWIDTH 26 0
BBX 26 27 0 -1
BITMAP
00000000
008c0000
00e30000
01818000
0300e000
0c003800
37ffff00
c6186800
06186000
07ffe000
06186000
06186000
07ffe000
01010000
01818000
1ffff800
01818000
01818c00
7ffffe00
01000000
01c18000
03007000
0c001c00
60000c00
00000000
00000000
00000000
ENDCHAR
STARTCHAR 517f
ENCODING 20863
SWIDTH 962 0
DWIDTH 26 0
BBX 26 27 0 -1
BITMAP
04010000
0301c000
01830000
01021800
7ffffc00
02020000
03838000
03033000
3feff800
03233000
03cb3000
0f063000
73073200
230d9a00
1f110e00
06200600
07ffc000
00000c00
7ffffe00
00c04000
03003000
1ffff800
07801800
00001000
00000000
00000000
00000000
ENDCHAR
STARTCHAR 5183
ENCODING 20867
SWIDTH 962 0
DWIDTH 26 0
BBX 26 27 0 -1
BITMAP
00000000
00000000
10000c00
1ffffe00
18000c00
18000c00
18000c00
1800cc00
1bffec00
18000c00
18000c00
18000c00
1800cc00
1bffec00
18000c00
18000c00
18000c00
18000c00
18000c00
18000c00
18000c00
1801fc00
18003800
10001000
00000000
00000000
00000000
ENDCHAR
STARTCHAR 5184
ENCODING 20868
SWIDTH 962 0
DWIDTH 26 0
BBX 26 27 0 -1
BITMAP
00000000
08006000
0ffff000
0c006000
0c006000
0c006000
0c006000
0c006400
7ffffe00
0c006000
0c006000
0c006000
0c006000
0c006600
ffffff00
0c006000
0c006000
0c006000
0c006000
0c006000
0c006000
0c0fe000
0c01c000
08008000
00000000
00000000
00000000
ENDCHAR
STARTCHAR 5186
ENCODING 20870
SWIDTH 962 0
DWIDTH 26 0
BBX 26 27 0 -1
BITMAP
00000000
10001800
1ffffc00
18181800
18181800
18181800
18181800
18181800
18181800
18181800
18181800
1ffff800
18001800
18001800
18001800
18001800
18001800
18001800
18001800
18001800
18001800
1803f800
18007000
10002000
00000000
00000000
00000000
ENDCHAR
STARTCHAR 518b
ENCODING 20875
SWIDTH 962 0
DWIDTH 26 0
BBX 26 27 0 -1
BITMAP
00000000
00000000
10000c00
1ffffe00
18000c00
18000c00
18000c00
18818c00
18ffcc00
18c18c00
18c18c00
18c18c00
18c18c00
18c18c00
18ff8c00
18c18c00
18c18c00
18810c00
18000c00
18000c00
18000c00
1801fc00
18003800
10001000
00000000
00000000
00000000
ENDCHAR
STARTCHAR 518e
ENCODING 20878
SWIDTH 962 0
DWIDTH 26 0
BBX 26 27 0 -1
BITMAP
00000000
0200c000
03ffe000
0300c000
0300c000
030cc000
03fec000
030cc000
030cc000
030cc000
230ccc00
3ffffe00
30000c00
30000c00
30000c00
30000c00
30000c00
30000c00
30000c00
30000c00
30000c00
3000fc00
30001800
20001000
00000000
00000000
00000000
ENDCHAR
STARTCHAR 5190
ENCODING 20880
SWIDTH 962 0
DWIDTH 26 0
BBX 26 27 0 -1
BITMAP
00000000
10003000
1ffff800
18003000
18033000
1bffb000
18003000
18033000
1bffb000
00000000
08006000
0ffff000
0c006000
0c006000
0fffe000
0c006000
0c006000
0fffe000
0c006000
0c006000
0c006000
0c0fe000
0c01c000
08008000
00000000
00000000
00000000
ENDCHAR
STARTCHAR 519a
ENCODING 20890
SWIDTH 962 0
DWIDTH 26 0
BBX 26 27 0 -1
BITMAP
00000000
10000c00
1ffffe00
10000c00
30001800
30001000
60102000
001c0000
00180000
00180000
10181000
1c181c00
18181800
18181800
18181800
18181800
18181800
18181800
18181800
3ffff800
18001800
10001800
00001000
00000000
00000000
00000000
00000000
ENDCHAR
STARTCHAR 519d
ENCODING 20893
SWIDTH 962 0
DWIDTH 26 0
BBX 26 27 0 -1
BITMAP
00000000
00000000
10000c00
1ffffe00
30000c00
30000800
60001000
00000000
0400c000
07ffe000
0600c000
0600c000
0600c000
07ffc000
0600c000
0600c000
0600c000
07ffc000
0600c000
0600c000
0600c000
0600c600
ffffff00
00000000
00000000
00000000
00000000
ENDCHAR
STARTCHAR 519f
ENCODING 20895
SWIDTH 962 0
DWIDTH 26 0
BBX 26 27 0 -1
BITMAP
00000000
10000c00
1ffffe00
30200c00
30381800
60601000
08806000
0ffff000
0c006000
0c006000
0fffe000
0c006000
0c006000
0fffe000
00004000
08018000
0e07c000
0c1c0800
0ce00800
0f000800
0c000800
0ffffc00
07fff800
00000000
00000000
00000000
00000000
ENDCHAR
STARTCHAR 51a1
ENCODING 20897
SWIDTH 962 0
DWIDTH 26 0
BBX 26 27 0 -1
BITMAP
00000000
10000c00
1ffffe00
30000c00
60018800
03ffc000
00000000
00001800
3ffffc00
00604000
00c07000
0320c000
0c318000
207a0000
00de0000
031d0000
0c3d8000
206cc000
018c7000
060c3f00
18181800
41f00000
00600000
00400000
00000000
00000000
00000000
ENDCHAR
STARTCHAR 51a3
ENCODING 20899
SWIDTH 962 0
DWIDTH 26 0
BBX 26 27 0 -1
BITMAP
00000000
00000000
20000c00
3ffffe00
60000c00
60001000
c0000400
7ffffe00
18c00000
18c03000
18dff800
1fc43000
18c43000
18c66000
1fc26000
18d26000
18e1c000
1bc18000
fcc34000
30c36000
00c63800
00cc1f00
00d80800
00a00000
00000000
00000000
00000000
ENDCHAR
STARTCHAR 51a6
ENCODING 20902
SWIDTH 962 0
DWIDTH 26 0
BBX 26 27 0 -1
BITMAP
00000000
20000600
3fffff00
60000600
60010c00
c001c000
00c18800
1fe1fc00
00018000
00019000
006ff800
7ff03000
0cc43000
0cc26000
0cc36000
0cc1c000
0cc36000
0cc63200
18d81a00
18e01200
30c00300
20ffff00
407ffe00
80000000
00000000
00000000
00000000
ENDCHAR
STARTCHAR 51a7
ENCODING 20903
SWIDTH 962 0
DWIDTH 26 0
BBX 26 27 0 -1
BITMAP
00000000
20000600
3fffff00
60000600
62010400
c381c800
03018000
03018000
03418c00
7feffe00
0703c000
0783a000
0f45a000
0b65a000
1b4db000
1309b000
33119800
23319800
43218c00
83418f00
03818400
03018000
03018000
02010000
00000000
00000000
00000000
ENDCHAR
STARTCHAR 51a8
ENCODING 20904
SWIDTH 962 0
DWIDTH 26 0
BBX 26 27 0 -1
BITMAP
00000000
10000600
1fffff00
30000600
60006400
0ffff000
00000000
0200c000
03ffe000
0300c000
0300c000
03ffc000
02008000
08003000
0ffff800
0c183000
0c183000
0ffff000
0c183000
0c183000
0c183000
0ffff000
0c003000
08002000
00000000
00000000
00000000
ENDCHAR
STARTCHAR 51a9
ENCODING 20905
SWIDTH 962 0
DWIDTH 26 0
BBX 26 27 0 -1
BITMAP
00000000
20001800
3ffffc00
60401800
60e09000
cf8fe000
0c00c000
0c40c000
0fefc000
0c00c000
0c00c000
0fffc000
02008000
03003000
07fff800
0c003000
18443000
62223000
89333000
09923000
19007000
3007e000
0000c000
00008000
00000000
00000000
00000000
ENDCHAR
STARTCHAR 51ad
ENCODING 20909
SWIDTH 962 0
DWIDTH 26 0
BBX 26 27 0 -1
BITMAP
00000000
00100000
001c0000
00180000
00180000
00180000
00300c00
7ffffe00
00340000
00620000
00c30000
01818000
0300e000
06307000
18183f00
600c1000
800c0000
00080000
00000000
0003e000
003e0000
0fe00000
03000000
00000000
00000000
00000000
00000000
ENDCHAR
STARTCHAR 51ae
ENCODING 20910
SWIDTH 962 0
DWIDTH 26 0
BBX 26 27 0 -1
BITMAP
00000000
00000000
20000000
18000000
0c001800
067ffc00
04030000
01030000
01030000
01030000
03030000
02030000
06030000
04030000
0c030000
7c030000
1c030000
0c030000
0c030000
0c030400
0c030e00
05ffff00
00000000
00000000
00000000
00000000
00000000
ENDCHAR
STARTCHAR 51b4
ENCODING 20916
SWIDTH 962 0
DWIDTH 26 0
BBX 26 27 0 -1
BITMAP
00000000
80000000
60001800
30fffc00
38006000
19106000
111c6000
02186000
02306000
04606400
04fffe00
0441e000
0801e000
08036000
18036000
f8066000
180c6000
18186000
18306000
18606000
18c06000
1b07e000
1000c000
00008000
00000000
00000000
00000000
ENDCHAR
STARTCHAR 51b8
ENCODING 20920
SWIDTH 962 0
DWIDTH 26 0
BBX 26 27 0 -1
BITMAP
00020000
00038000
20031000
18431c00
0c231800
06333000
049b2000
00934000
01030800
017ffc00
02030000
02030000
04030000
04030600
0dffff00
7c030000
0c030000
0c030000
0c030000
0c030000
0c030000
04030000
00030000
00020000
00000000
00000000
00000000
ENDCHAR
STARTCHAR 51ba
ENCODING 20922
SWIDTH 962 0
DWIDTH 26 0
BBX 26 27 0 -1
BITMAP
00000000
60401800
307ffc00
38601800
19601800
11601800
01601800
027ff800
02619000
02618000
04618000
04618c00
047ffe00
0c618000
7c618000
0c60c000
0c60c200
0c606200
0c616200
0c663300
0c781b00
04f00f00
00600700
00000000
00000000
00000000
00000000
ENDCHAR
STARTCHAR 51bf
ENCODING 20927
SWIDTH 962 0
DWIDTH 26 0
BBX 26 27 0 -1
BITMAP
00040000
00070000
20060000
18063000
0c7ff800
06863000
04863400
017ffe00
01063000
01063000
02063000
027ff000
04060000
04066000
0cfff000
7c060000
0c060c00
0dfffe00
0c060000
0c060000
0c060000
04060000
00060000
00040000
00000000
00000000
00000000
ENDCHAR
STARTCHAR 51c1
ENCODING 20929
SWIDTH 962 0
DWIDTH 26 0
BBX 26 27 0 -1
BITMAP
00020000
00038000
40030000
30030c00
19fffe00
0c030000
0a431800
027ffc00
02631800
04631800
04631800
08631800
087ff800
18679800
f8479000
180f4000
181b2000
18333000
18631c00
18c30f00
09830400
06030000
00030000
00020000
00000000
00000000
00000000
ENDCHAR
STARTCHAR 51c2
ENCODING 20930
SWIDTH 962 0
DWIDTH 26 0
BBX 26 27 0 -1
BITMAP
00080000
000e0000
600c0000
300c3000
391ff800
19183000
11306000
02608c00
027ffe00
02b18c00
04318c00
04318c00
04318c00
0c3ffc00
7c336800
0c236000
0c066000
0c066200
0c0c6200
0c186200
0c306300
04607f00
01803e00
06000000
00000000
00000000
00000000
ENDCHAR
STARTCHAR 51c3
ENCODING 20931
SWIDTH 962 0
DWIDTH 26 0
BBX 26 27 0 -1
BITMAP
00040000
00070000
800e0000
600d0000
30188000
1830c000
12606000
02c03800
0500de00
047fe800
04060000
08060000
08061800
0bfffc00
18060000
f8468000
18764000
18666000
18c63000
19861800
19061800
1a3e1000
080c0000
00080000
00000000
00000000
00000000
ENDCHAR
STARTCHAR 51d2
ENCODING 20946
SWIDTH 962 0
DWIDTH 26 0
BBX 26 27 0 -1
BITMAP
00010000
0001c000
40218800
30398e00
18318c00
0cb18c00
08b18c00
013ffc00
01200800
01000000
027ffe00
02000000
04101800
041ffc00
0c181800
7c181800
0c181800
0c1ff800
0c102000
0c083800
0c0c6000
0c084600
05ffff00
00000000
00000000
00000000
00000000
ENDCHAR
STARTCHAR 51d3
ENCODING 20947
SWIDTH 962 0
DWIDTH 26 0
BBX 26 27 0 -1
BITMAP
00000000
00000c00
607ffe00
30066000
39066000
19466600
117fff00
02666600
02666600
02666600
047ffe00
04410400
0401c000
0c018000
7c018600
0cffff00
0c03c000
0c07a000
0c0db000
0c199c00
0c318f00
04c18400
02018000
00010000
00000000
00000000
00000000
ENDCHAR
STARTCHAR 51d5
ENCODING 20949
SWIDTH 962 0
DWIDTH 26 0
BBX 26 27 0 -1
BITMAP
00000000
00800c00
40fffe00
31800c00
19800800
0c203000
0a3ff800
02303000
02303000
043ff000
04303000
08303000
083ff000
18333000
f821a000
18010c00
19fffe00
18000000
18104000
181c3000
08301800
00601c00
00c00c00
03000800
00000000
00000000
00000000
ENDCHAR
STARTCHAR 51d6
ENCODING 20950
SWIDTH 962 0
DWIDTH 26 0
BBX 26 27 0 -1
BITMAP
00040000
20230000
11398000
19611800
117ffc00
02f18000
02b19000
073ff800
0c318000
3c319000
0c3ff800
0c318000
0c318800
0c3ffc00
08280000
000e0000
000c0600
7fffff00
000c0000
000c0000
000c0000
000c0000
000c0000
00080000
00000000
00000000
00000000
ENDCHAR
STARTCHAR 51d9
ENCODING 20953
SWIDTH 962 0
DWIDTH 26 0
BBX 26 27 0 -1
BITMAP
00000000
00800c00
60fffe00
30cccc00
38cccc00
18cccc00
10fffc00
02030000
02031000
027ff800
04030400
05fffe00
04302000
0c183800
7c08c000
0c7ff800
0c030000
0c030c00
0dfffe00
0c030000
0c030000
04030000
00030000
00020000
00000000
00000000
00000000
ENDCHAR
STARTCHAR 51da
ENCODING 20954
SWIDTH 962 0
DWIDTH 26 0
BBX 26 27 0 -1
BITMAP
00408000
0070e000
8060c000
6060d000
33fbf800
2060c000
04f1e000
05f9f000
0d6ed800
0964cf00
0a68c400
18408000
10fff000
10000000
f0001800
73fffc00
30060000
30464000
30763000
30c61800
31861c00
123e0c00
040c0800
00080000
00000000
00000000
00000000
ENDCHAR
STARTCHAR 51df
ENCODING 20959
SWIDTH 962 0
DWIDTH 26 0
BBX 26 27 0 -1
BITMAP
00010000
0001c000
20018600
18ffff00
0c018000
063ffc00
04800000
017ffe00
01666600
02666600
027ffe00
02000000
043ffc00
04300c00
0c3ffc00
7c300c00
0c3ffc00
0c300c00
0c300c00
0c3ffc00
0c0e1800
04180c00
00600600
01800400
00000000
00000000
00000000
ENDCHAR
STARTCHAR 51e2
ENCODING 20962
SWIDTH 962 0
DWIDTH 26 0
BBX 26 27 0 -1
BITMAP
00000000
00100000
001c0000
00300000
00600000
02418000
03ffc000
03018000
03018000
03018000
03018000
03018000
03018000
03018000
03018000
03018000
03018400
06018400
06018400
0c018400
0c018600
1801fe00
6000fc00
80000000
00000000
00000000
00000000
ENDCHAR
STARTCHAR 51e3
ENCODING 20963
SWIDTH 962 0
DWIDTH 26 0
BBX 26 27 0 -1
BITMAP
00000000
00200000
00380000
00300000
00300000
02318000
03ffc000
03018000
03018000
03018000
03018000
03018000
03018000
03018000
03018000
03018000
03018400
06018400
06018400
0c018400
0c018600
1801fe00
6000fc00
80000000
00000000
00000000
00000000
ENDCHAR
STARTCHAR 51e5
ENCODING 20965
SWIDTH 962 0
DWIDTH 26 0
BBX 26 27 0 -1
BITMAP
00000000
10001800
1ffffc00
18001800
18001800
18001800
1ffff800
18001000
18000000
1840c000
187fe000
1860c000
1860c000
1860c000
1860c000
1860c000
1860c000
18c0c200
30c0c200
3180c200
2180c300
4300ff00
44007e00
88000000
00000000
00000000
00000000
ENDCHAR
STARTCHAR 51e6
ENCODING 20966
SWIDTH 962 0
DWIDTH 26 0
BBX 26 27 0 -1
BITMAP
04000000
07000000
06000000
06023000
0603f800
0c633000
0ff33000
0c633000
0c633000
08633000
1c633000
14633000
34c63200
22c63200
22cc3300
41983f00
01a01e00
03400000
03600000
06380000
0c0fff00
1803fc00
20000000
40000000
00000000
00000000
00000000
ENDCHAR
STARTCHAR 51e7
ENCODING 20967
SWIDTH 962 0
DWIDTH 26 0
BBX 26 27 0 -1
BITMAP
00000000
10006000
1ffff000
18006000
18206000
18386000
18306000
19326000
19ff6000
19326000
19326000
19326000
19326000
19326000
19326000
19326000
19326200
313e3200
31343200
20301a00
60301e00
40300e00
80200600
00000000
00000000
00000000
00000000
ENDCHAR
STARTCHAR 51e8
ENCODING 20968
SWIDTH 962 0
DWIDTH 26 0
BBX 26 27 0 -1
BITMAP
00000000
10003000
1ffff800
18003000
18003000
18003000
18063000
19ff3000
18003000
18003000
18003000
1801b000
1ffff000
18203000
18383000
18603000
18c43000
18833200
3101b200
37ffda00
2380da00
40008e00
40000700
80000300
00000000
00000000
00000000
ENDCHAR
STARTCHAR 51e9
ENCODING 20969
SWIDTH 962 0
DWIDTH 26 0
BBX 26 27 0 -1
BITMAP
00000000
08003000
0ffff800
0c003000
0c103000
0c1c3000
0c183000
0c183000
0c183000
0c193000
0dffb000
0c383000
0c3c3000
0c7a3000
0cdb3000
0cd9b200
1999b200
1b193200
12181a00
14181a00
20180e00
20180700
40100300
00000000
00000000
00000000
00000000
ENDCHAR
STARTCHAR 51ea
ENCODING 20970
SWIDTH 962 0
DWIDTH 26 0
BBX 26 27 0 -1
BITMAP
00000000
08003000
0ffff800
0c003000
0c083000
0c0e3000
0c0c3000
0c0c3000
0c8c3000
0cec3000
0ccd3000
0ccfb000
0ccc3000
0ccc3000
0ccc3000
0ccc3200
18cc3200
18cc3200
10cc9a00
17ffda00
20000e00
20000700
40000300
00000000
00000000
00000000
00000000
ENDCHAR
STARTCHAR 51ec
ENCODING 20972
SWIDTH 962 0
DWIDTH 26 0
BBX 26 27 0 -1
BITMAP
00000000
10003000
1ffff800
18003000
18003000
18033000
1bffb000
18003000
18003000
19033000
19ffb000
19833000
19833000
19833000
19ff3000
19833000
19833000
19833200
31ff3200
31831a00
21821a00
41000e00
40000700
80000300
00000000
00000000
00000000
ENDCHAR
STARTCHAR 51ee
ENCODING 20974
SWIDTH 962 0
DWIDTH 26 0
BBX 26 27 0 -1
BITMAP
00000000
08003000
0ffff800
0c003000
0c003000
0c033000
0dffb000
0c183000
0c183000
0c913000
0cffb000
0cc33000
0cc33000
0cc33000
0cff3000
0cc33200
18c33200
18c33200
10ff1a00
10c31a00
20c20e00
20800700
40000300
00000000
00000000
00000000
00000000
ENDCHAR
STARTCHAR 51f2
ENCODING 20978
SWIDTH 962 0
DWIDTH 26 0
BBX 26 27 0 -1
BITMAP
00000000
10003000
1ffff800
18023000
18c3b000
18663000
18443000
1bffb000
18483000
18483000
1bff3000
18493000
18493000
1ffff000
18493000
18493200
1bff3200
18ca3200
31c91a00
33499a00
2648ce00
68488700
50480300
80000000
00000000
00000000
00000000
ENDCHAR
STARTCHAR 51f4
ENCODING 20980
SWIDTH 962 0
DWIDTH 26 0
BBX 26 27 0 -1
BITMAP
00000000
60403000
307ff800
18630000
12632000
027ff000
04630000
047ff000
08630000
08630c00
787ffe00
18808c00
18926c00
199b2c00
1b090c00
08007c00
02019800
03ffc000
03018200
03018200
06018200
0c01ff00
3000fe00
c0000000
00000000
00000000
00000000
ENDCHAR
STARTCHAR 51f7
ENCODING 20983
SWIDTH 962 0
DWIDTH 26 0
BBX 26 27 0 -1
BITMAP
00000000
00100000
001c0000
00180000
20180800
38180e00
30180c00
30198c00
33ffcc00
30180c00
30180c00
30180c00
30180c00
30180c00
3018cc00
37ffec00
30000c00
30000c00
30000c00
30000c00
7ffffc00
30000c00
20000c00
00000800
00000000
00000000
00000000
ENDCHAR
STARTCHAR 51fe
ENCODING 20990
SWIDTH 962 0
DWIDTH 26 0
BBX 26 27 0 -1
BITMAP
00000000
00003000
1ffff800
00006000
0000c000
00130000
001c0000
20180800
38182e00
345bec00
37d86c00
345a6c00
34596c00
34594c00
3458cc00
37d9ac00
345b3c00
341a2c00
301c0c00
30f80c00
30300c00
7ffffc00
20000c00
00000800
00000000
00000000
00000000
ENDCHAR
STARTCHAR 5204
ENCODING 20996
SWIDTH 962 0
DWIDTH 26 0
BBX 26 27 0 -1
BITMAP
00000000
00000000
00006000
0ffff000
00606000
00606000
08606000
08606000
04606000
04606000
02606000
01606000
00e06000
00e06000
00d06000
018c6000
01866000
03036000
0301c000
0600f000
0c00df00
181f8c00
20030000
80020000
00000000
00000000
00000000
ENDCHAR
STARTCHAR 5205
ENCODING 20997
SWIDTH 962 0
DWIDTH 26 0
BBX 26 27 0 -1
BITMAP
00000000
00000000
0000c000
0fffe000
0060c000
0060c000
0060c000
0060c000
0060c000
0860d000
0860c800
0860cc00
1860c600
38c0c600
70c0c400
6180c000
0180c000
0300c000
0300c000
0600c000
0c01c000
183f8000
20070000
80020000
00000000
00000000
00000000
ENDCHAR
STARTCHAR 520b
ENCODING 21003
SWIDTH 962 0
DWIDTH 26 0
BBX 26 27 0 -1
BITMAP
00000000
00000800
00700e00
01fc0c00
3f810c00
0181cc00
01818c00
01818c00
01818c00
01998c00
7ffd8c00
01818c00
01818c00
01818c00
01818c00
01818c00
01818c00
03010c00
03000c00
06000c00
0c000c00
0800fc00
10001800
20001000
00000000
00000000
00000000
ENDCHAR
STARTCHAR 520f
ENCODING 21007
SWIDTH 962 0
DWIDTH 26 0
BBX 26 27 0 -1
BITMAP
04000800
07000e00
06000c00
06000c00
0c180c00
0ffc8c00
1800ec00
1030cc00
2ff8cc00
4000cc00
8030cc00
1ff8cc00
0030cc00
0030cc00
0030cc00
00308c00
00300c00
00190c00
00190c00
000d0c00
00070c00
00037c00
00011800
00001000
00000000
00000000
00000000
ENDCHAR
STARTCHAR 5214
ENCODING 21012
SWIDTH 962 0
DWIDTH 26 0
BBX 26 27 0 -1
BITMAP
00000000
02000800
03800e00
03000c00
03008c00
0318ec00
3ffccc00
0318cc00
0318cc00
0318cc00
0318cc00
031acc00
7fffcc00
0300cc00
0300cc00
06c0cc00
0630cc00
0c188c00
0c0c0c00
180c0c00
30080c00
4000fc00
80001800
00001000
00000000
00000000
00000000
ENDCHAR
STARTCHAR 5215
ENCODING 21013
SWIDTH 962 0
DWIDTH 26 0
BBX 26 27 0 -1
BITMAP
00006000
0ffff000
00606000
00606000
00c06000
00c06000
01806000
0300e000
060fc000
18018000
40010000
00600c00
7ff7fe00
0c618c00
0c618c00
0c618c00
0c618c00
0c618c00
18618c00
18630c00
30e31c00
67c6f800
41883000
81102000
00000000
00000000
00000000
ENDCHAR
STARTCHAR 521f
ENCODING 21023
SWIDTH 962 0
DWIDTH 26 0
BBX 26 27 0 -1
BITMAP
00000000
00000800
00180e00
7ffc0c00
06188c00
0618ec00
0618cc00
0c18cc00
0c18cc00
18f8cc00
3030cc00
c020cc00
1018cc00
1ffccc00
1818cc00
1818cc00
1818cc00
18188c00
18180c00
1ff80c00
18180c00
1810fc00
10001800
00001000
00000000
00000000
00000000
ENDCHAR
STARTCHAR 5222
ENCODING 21026
SWIDTH 962 0
DWIDTH 26 0
BBX 26 27 0 -1
BITMAP
01000800
01c00e00
01800c00
03808c00
0360ec00
0730cc00
0618cc00
0c0ccc00
1986cc00
30c4cc00
4060cc00
8040cc00
0018cc00
1ffccc00
0018cc00
0030cc00
0420cc00
03408c00
00c00c00
00600c00
00700c00
00307c00
00201800
00001000
00000000
00000000
00000000
ENDCHAR
STARTCHAR 5223
ENCODING 21027
SWIDTH 962 0
DWIDTH 26 0
BBX 26 27 0 -1
BITMAP
00000000
02000800
03800e00
07000c00
06008c00
0c20ec00
1810cc00
1018cc00
21fccc00
7f0ccc00
3008cc00
0000cc00
1018cc00
1ffccc00
1818cc00
1818cc00
1818cc00
18188c00
18180c00
1ff80c00
18180c00
1810fc00
10001800
00001000
00000000
00000000
00000000
ENDCHAR
STARTCHAR 5226
ENCODING 21030
SWIDTH 962 0
DWIDTH 26 0
BBX 26 27 0 -1
BITMAP
01000800
01c00e00
01800c00
01810c00
0181cc00
01918c00
1ff98c00
01818c00
01818c00
01818c00
01818c00
01998c00
7ffd8c00
03018c00
03018c00
06018c00
06210c00
0c100c00
18180c00
11fc0c00
3f8cfc00
18081800
00001000
00000000
00000000
00000000
00000000
ENDCHAR
STARTCHAR 5227
ENCODING 21031
SWIDTH 962 0
DWIDTH 26 0
BBX 26 27 0 -1
BITMAP
04000000
07000000
06000c00
061ffe00
06418c00
7fe18c00
06018c00
06018c00
06018c00
06618c00
fff18c00
08018c00
0e018c00
0c018c00
19030c00
18830c00
30c30c00
23e60c00
7e660c00
304c1c00
000df800
00183000
00202000
00400000
00000000
00000000
00000000
ENDCHAR
STARTCHAR 522c
ENCODING 21036
SWIDTH 962 0
DWIDTH 26 0
BBX 26 27 0 -1
BITMAP
04000800
07400e00
06200c00
06310c00
0621cc00
06118c00
07f98c00
7e018c00
06018c00
06118c00
06798c00
1fc18c00
f7018c00
03218c00
03398c00
03618c00
03c18c00
03890c00
07c80c00
18e80c00
30680c00
c03cfc00
001c3800
00001000
00000000
00000000
00000000
ENDCHAR
STARTCHAR 522f
ENCODING 21039
SWIDTH 962 0
DWIDTH 26 0
BBX 26 27 0 -1
BITMAP
00000000
00000800
00180e00
3ffc0c00
00008c00
0000ec00
1018cc00
1ffccc00
1818cc00
1818cc00
1818cc00
1ff8cc00
1818cc00
1818cc00
1818cc00
1ff8cc00
1818cc00
18108c00
10000c00
001e0c00
01f00c00
7f00fc00
1c001800
00001000
00000000
00000000
00000000
ENDCHAR
STARTCHAR 5234
ENCODING 21044
SWIDTH 962 0
DWIDTH 26 0
BBX 26 27 0 -1
BITMAP
00000000
00000800
00300e00
7ff80c00
06308c00
0660ec00
0cfccc00
0c0ccc00
180ccc00
180ccc00
30f8cc00
6230cc00
83a0cc00
0308cc00
fffccc00
0700cc00
0fc0cc00
0f608c00
1b300c00
33180c00
63100c00
8300fc00
03001800
02001000
00000000
00000000
00000000
ENDCHAR
STARTCHAR 523c
ENCODING 21052
SWIDTH 962 0
DWIDTH 26 0
BBX 26 27 0 -1
BITMAP
00000000
04000000
07001800
061ffc00
06031800
06831800
7fc31800
06031800
06131800
06531800
ffeb1800
080b1800
0e071800
0c071800
19031800
18869800
30c65800
23ec3800
7e6c1c00
30583700
0019f200
00306000
00604000
00800000
00000000
00000000
00000000
ENDCHAR
STARTCHAR 523e
ENCODING 21054
SWIDTH 962 0
DWIDTH 26 0
BBX 26 27 0 -1
BITMAP
00000000
01000800
01c00e00
01800c00
018c8c00
7ffeec00
0180cc00
0190cc00
219ccc00
1998cc00
0db0cc00
09a4cc00
7ffecc00
0180cc00
0180cc00
0340cc00
0330cc00
06188c00
061c0c00
0c0c0c00
18080c00
2000fc00
40001800
00001000
00000000
00000000
00000000
ENDCHAR
STARTCHAR 5245
ENCODING 21061
SWIDTH 962 0
DWIDTH 26 0
BBX 26 27 0 -1
BITMAP
00000800
00000e00
00300c00
fff80c00
00010c00
2061cc00
3ff18c00
30618c00
30618c00
30618c00
30618c00
3fe18c00
20018c00
00418c00
20718c00
18618c00
0cc18c00
08810c00
01f00c00
ff000c00
70000c00
2000fc00
00003800
00001000
00000000
00000000
00000000
ENDCHAR
STARTCHAR 5248
ENCODING 21064
SWIDTH 962 0
DWIDTH 26 0
BBX 26 27 0 -1
BITMAP
00000000
00000800
10300e00
1ff80c00
18308c00
1830ec00
1830cc00
1ff0cc00
1020cc00
2018cc00
3ffccc00
3018cc00
3018cc00
3ff8cc00
3018cc00
3018cc00
3ff88c00
30180c00
30180c00
30180c00
30180c00
30f8fc00
30303800
20201000
00000000
00000000
00000000
ENDCHAR
STARTCHAR 524f
ENCODING 21071
SWIDTH 962 0
DWIDTH 26 0
BBX 26 27 0 -1
BITMAP
00400000
40700000
30c01800
189ffc00
11019800
7fe19800
19819800
19819800
19899800
19899800
19859800
19859800
fff39800
19839800
19835800
19835800
19863800
31861c00
318c1f00
218c1a00
6199f000
41906000
81204000
00400000
00000000
00000000
00000000
ENDCHAR
STARTCHAR 5253
ENCODING 21075
SWIDTH 962 0
DWIDTH 26 0
BBX 26 27 0 -1
BITMAP
00010000
00c1c000
03e18000
3f030600
0303ff00
03266600
7ff46600
0708c600
0f90c600
1b618600
33330e00
43267c00
83081800
02101000
00000800
3ffffc00
00601800
00601800
00c01800
00c01800
01803800
0307f000
0c00e000
20004000
00000000
00000000
00000000
ENDCHAR
STARTCHAR 5257
ENCODING 21079
SWIDTH 962 0
DWIDTH 26 0
BBX 26 27 0 -1
BITMAP
02000000
03600400
03300700
032e0600
03f04600
7f887600
019c6600
00e26600
03726600
0c1e6600
200c6600
04606600
07306600
062e6600
07f86600
ff106600
031c6600
01b04600
00c10600
03610600
0c390600
300f3e00
80060c00
00000800
00000000
00000000
00000000
ENDCHAR
STARTCHAR 5258
ENCODING 21080
SWIDTH 962 0
DWIDTH 26 0
BBX 26 27 0 -1
BITMAP
08200800
0e380e00
0c300c00
0c300c00
0c308c00
7ffeec00
0c30cc00
0c30cc00
0c30cc00
0ff0cc00
0c30cc00
0c30cc00
0ff0cc00
0c30cc00
0c30cc00
0c32cc00
ffffcc00
04208c00
0e180c00
0c0c0c00
180e0c00
30067c00
40041800
00001000
00000000
00000000
00000000
ENDCHAR
STARTCHAR 5259
ENCODING 21081
SWIDTH 962 0
DWIDTH 26 0
BBX 26 27 0 -1
BITMAP
00400000
40700000
30c01800
188ffc00
11019800
7fe19800
19819800
19819800
19819800
19819800
19859c00
19a59a00
fff59b00
198d9b00
19999a00
19831800
19831800
31861800
31861800
218c1800
618df000
41986000
81304000
00400000
00000000
00000000
00000000
ENDCHAR
STARTCHAR 5260
ENCODING 21088
SWIDTH 962 0
DWIDTH 26 0
BBX 26 27 0 -1
BITMAP
01000000
00c00400
00600700
00460600
3fff4600
00007600
00006600
080c6600
0ffe6600
0c0c6600
0c0c6600
0c0c6600
0c0c6600
0ffc6600
00c06600
08c86600
0ec46600
18c64600
18c70600
30c30600
40c20600
87c07e00
01801c00
01000800
00000000
00000000
00000000
ENDCHAR
STARTCHAR 5263
ENCODING 21091
SWIDTH 962 0
DWIDTH 26 0
BBX 26 27 0 -1
BITMAP
01000000
01c00800
01800e00
03400c00
06308c00
0c1cec00
180ecc00
3016cc00
dff8cc00
0180cc00
1198cc00
1ffccc00
1998cc00
1998cc00
1998cc00
1ff8cc00
1190cc00
03c08c00
03300c00
061c0c00
0c0e0c00
18067c00
60001800
80001000
00000000
00000000
00000000
ENDCHAR
STARTCHAR 5264
ENCODING 21092
SWIDTH 962 0
DWIDTH 26 0
BBX 26 27 0 -1
BITMAP
00000000
02000800
01800e00
00c00c00
008c8c00
7ffeec00
0818cc00
0630cc00
0360cc00
01e0cc00
0738cc00
181fcc00
e814cc00
0c18cc00
0ff8cc00
0c18cc00
0c18cc00
0ff88c00
0c180c00
0c180c00
18180c00
1818fc00
30181800
40101000
00000000
00000000
00000000
ENDCHAR
STARTCHAR 5266
ENCODING 21094
SWIDTH 962 0
DWIDTH 26 0
BBX 26 27 0 -1
BITMAP
00000000
00800400
00e00700
00c00600
01864600
7fff7600
03306600
060c6600
0c866600
18e36600
60c16600
0ffc6600
0ccc6600
0ccc6600
0ffc6600
0ccc6600
0ccc6600
0ffc4600
08c20600
00c20600
00c30600
00ff3e00
007e0c00
00000800
00000000
00000000
00000000
ENDCHAR
STARTCHAR 5268
ENCODING 21096
SWIDTH 962 0
DWIDTH 26 0
BBX 26 27 0 -1
BITMAP
01000000
01c00800
01980e00
3ffc0c00
01808c00
0190ec00
1ff8cc00
0180cc00
0198cc00
7ffccc00
0180cc00
0180cc00
010ccc00
7ffecc00
0300cc00
0600cc00
0c0ccc00
1ffe8c00
360c0c00
460c0c00
860c0c00
07fc7c00
06081800
04001000
00000000
00000000
00000000
ENDCHAR
STARTCHAR 5270
ENCODING 21104
SWIDTH 962 0
DWIDTH 26 0
BBX 26 27 0 -1
BITMAP
00380800
03fc0e00
3f800c00
01808c00
018cec00
7ffecc00
1998cc00
1998cc00
1998cc00
7ffecc00
1998cc00
1998cc00
ffffcc00
0380cc00
07c0cc00
0db0cc00
0d98cc00
199c8c00
318c0c00
41880c00
81800c00
0180fc00
01001800
00001000
00000000
00000000
00000000
ENDCHAR
STARTCHAR 5271
ENCODING 21105
SWIDTH 962 0
DWIDTH 26 0
BBX 26 27 0 -1
BITMAP
00000000
02000000
03801800
030ffc00
06c19800
0c319800
18199800
30219800
dff19800
03099800
23299800
3ff59800
33359800
33339800
33339800
3ff19800
23235800
06c33800
06661c00
0c363700
182df200
20186000
80204000
00400000
00000000
00000000
00000000
ENDCHAR
STARTCHAR 5273
ENCODING 21107
SWIDTH 962 0
DWIDTH 26 0
BBX 26 27 0 -1
BITMAP
00000800
08200e00
0e380c00
0c300c00
7ffe8c00
0c30ec00
0d30cc00
01c0cc00
0180cc00
0360cc00
0618cc00
0c0ccc00
3064cc00
8ff0cc00
0000cc00
0818cc00
0ffccc00
0c188c00
0c180c00
0c180c00
0ff80c00
0c18fc00
0c101800
08001000
00000000
00000000
00000000
ENDCHAR
STARTCHAR 5276
ENCODING 21110
SWIDTH 962 0
DWIDTH 26 0
BBX 26 27 0 -1
BITMAP
02000000
03800800
03180e00
07fc0c00
0c184c00
1ff86c00
08304c00
00664c00
ffff4c00
01804c00
03084c00
070e4c00
19984c00
63e04c00
86704c00
0cec4c00
31e64c00
c3634c00
06620c00
0c600c00
30600c00
c7e0fc00
01c03800
00801000
00000000
00000000
00000000
ENDCHAR
STARTCHAR 5279
ENCODING 21113
SWIDTH 962 0
DWIDTH 26 0
BBX 26 27 0 -1
BITMAP
00000800
02040e00
7f7e0c00
23460c00
1b368c00
1326ec00
070ecc00
3b76cc00
1326cc00
02c4cc00
01e0cc00
0330cc00
068ccc00
18e6cc00
6184cc00
0620cc00
1870cc00
01c88c00
061c0c00
38700c00
01c00c00
0e00fc00
70001800
00001000
00000000
00000000
00000000
ENDCHAR
STARTCHAR 527e
ENCODING 21118
SWIDTH 962 0
DWIDTH 26 0
BBX 26 27 0 -1
BITMAP
00000400
10060700
1fff0600
18000600
19042600
19fe3600
19862600
19862600
19fe2600
19042600
18002600
1a492600
1bcf2600
1a492600
1a492600
1a492600
1bcf2600
1a490600
18000600
3fff8600
18007e00
10001c00
00000800
00000000
00000000
00000000
00000000
ENDCHAR
STARTCHAR 5285
ENCODING 21125
SWIDTH 962 0
DWIDTH 26 0
BBX 26 27 0 -1
BITMAP
00000800
200c0e00
3ffe0c00
324c4c00
324c6c00
3ffc4c00
26004c00
0c064c00
1fff4c00
32064c00
63264c00
bff64c00
33364c00
33364c00
3ff64c00
33064c00
23264c00
07f64c00
7e360c00
182e0c00
01fc0c00
0039fc00
00103800
00001000
00000000
00000000
00000000
ENDCHAR
STARTCHAR 5286
ENCODING 21126
SWIDTH 962 0
DWIDTH 26 0
BBX 26 27 0 -1
BITMAP
00c00800
00600e00
20460c00
3fff4c00
33086c00
318c4c00
31104c00
3fff4c00
30904c00
30924c00
37ff4c00
30924c00
3fffcc00
30924c00
30924c00
37fe4c00
31984c00
33944c00
66960c00
66930c00
4c920c00
50907c00
80901800
00001000
00000000
00000000
00000000
ENDCHAR
STARTCHAR 528e
ENCODING 21134
SWIDTH 962 0
DWIDTH 26 0
BBX 26 27 0 -1
BITMAP
02000000
03800000
03000c00
06c7fe00
0c718c00
18198c00
60098c00
80618c00
1ff18c00
00018c00
22898c00
3ef98c00
32998c00
32998c00
3ef98c00
10418c00
1c718c00
18618c00
34618c00
36d30c00
629b7c00
41121800
82041000
00080000
00000000
00000000
00000000
ENDCHAR
STARTCHAR 528f
ENCODING 21135
SWIDTH 962 0
DWIDTH 26 0
BBX 26 27 0 -1
BITMAP
01000400
31c80700
198e0600
0d980600
09a00600
21864600
3fff7600
60066600
68146600
cff86600
0c306600
0c306600
0ff06600
20046600
3ffe6600
318c6600
318c6600
3ffc6600
318c4600
318c0600
3ffc0600
300c7e00
20080c00
00000800
00000000
00000000
00000000
ENDCHAR
STARTCHAR 5292
ENCODING 21138
SWIDTH 962 0
DWIDTH 26 0
BBX 26 27 0 -1
BITMAP
00000000
02000000
03800000
07000600
06e3ff00
0c386600
180c6600
60266600
9ff06600
00006600
22916600
3ef96600
32996600
329b6600
3efb6600
10426600
1c70c600
1860c600
34618600
36d18600
629b3e00
41120c00
82040800
00080000
00000000
00000000
00000000
ENDCHAR
STARTCHAR 5294
ENCODING 21140
SWIDTH 962 0
DWIDTH 26 0
BBX 26 27 0 -1
BITMAP
00000000
04000000
07001800
060ffc00
0dc19800
18719800
30199800
60499800
9fe19800
00099800
45299800
7df59800
65359800
65339800
7df39800
20819800
38e35800
30c33800
69a61c00
6db63700
4b2df200
c2186000
84204000
00400000
00000000
00000000
00000000
ENDCHAR
STARTCHAR 5295
ENCODING 21141
SWIDTH 962 0
DWIDTH 26 0
BBX 26 27 0 -1
BITMAP
01010400
27a78700
3c3c0600
30304600
3fbf7600
32326600
32326600
32626600
62426600
62826600
5ffe6600
980c6600
180c6600
1ffc6600
180c6600
1ffc6600
180c6600
180c4600
1ffc0600
04100600
070c0600
0c063e00
30030c00
c0020800
00000000
00000000
00000000
ENDCHAR
STARTCHAR 529a
ENCODING 21146
SWIDTH 962 0
DWIDTH 26 0
BBX 26 27 0 -1
BITMAP
40060400
7fff0700
60060600
7ffe4600
64487600
635c6600
60e06600
6f586600
64486600
6ffc6600
69246600
6ffc6600
66006600
6ffe6600
71866600
6ff66600
69966600
6ff64600
61a60600
43f60600
5f160600
46063e00
807c0c00
80180800
00000000
00000000
00000000
ENDCHAR
STARTCHAR 529c
ENCODING 21148
SWIDTH 962 0
DWIDTH 26 0
BBX 26 27 0 -1
BITMAP
08010000
0e01c000
0c018000
0c018000
0c018000
0c018000
0c318000
fff98000
0c318000
0c318000
0c318000
0c318000
0c318000
0c318000
0c318000
0c318000
08318000
18318200
10318200
30718200
27e18300
40c1ff00
8080fe00
00000000
00000000
00000000
00000000
ENDCHAR
STARTCHAR 52a4
ENCODING 21156
SWIDTH 962 0
DWIDTH 26 0
BBX 26 27 0 -1
BITMAP
00010000
0071c000
13f98000
1f018000
18018000
18018000
18018c00
1837fe00
1ff98c00
18c18c00
18c18c00
18c18c00
18c18c00
18c18c00
18c18c00
18c30c00
18c30c00
30c60c00
30c60c00
20cc1c00
60c8f800
40903000
80202000
00400000
00000000
00000000
00000000
ENDCHAR
STARTCHAR 52a5
ENCODING 21157
SWIDTH 962 0
DWIDTH 26 0
BBX 26 27 0 -1
BITMAP
00010000
0c01c000
06018000
03018000
02618000
fff18c00
000ffe00
00018c00
10c18c00
1fe18c00
18c18c00
18c18c00
18c18c00
18c18c00
18c18c00
18c58c00
18d98c00
18f30c00
31e30c00
30c61c00
608cf800
80183000
00202000
00800000
00000000
00000000
00000000
ENDCHAR
STARTCHAR 52a7
ENCODING 21159
SWIDTH 962 0
DWIDTH 26 0
BBX 26 27 0 -1
BITMAP
00008000
0000e000
0030c000
01f8c000
3f80c000
0180c000
0180c600
0187ff00
0190c600
3ff8c600
0180c600
0180c600
0180c600
01998600
7ffd8600
01818600
01830600
01830600
01860600
01860e00
3f8c7c00
07181800
02201000
00400000
00000000
00000000
00000000
ENDCHAR
STARTCHAR 52af
ENCODING 21167
SWIDTH 962 0
DWIDTH 26 0
BBX 26 27 0 -1
BITMAP
00010000
0001c000
00018000
00618000
7ff18000
06018000
06018c00
060ffe00
0c018c00
0c018c00
18618c00
1ff18c00
38618c00
38618c00
58618c00
98630c00
18630c00
18630c00
1fe60c00
18661c00
184cf800
10083000
00102000
00200000
00000000
00000000
00000000
ENDCHAR
STARTCHAR 52b0
ENCODING 21168
SWIDTH 962 0
DWIDTH 26 0
BBX 26 27 0 -1
BITMAP
00010000
0201c000
03818000
06018000
04018000
28618000
3ff18c00
306ffe00
30618c00
30618c00
30618c00
30618c00
3fe18c00
30618c00
30618c00
30630c00
30630c00
30660c00
3fe60c00
304c0c00
30181c00
2031f800
00403000
00802000
00000000
00000000
00000000
ENDCHAR
STARTCHAR 52b4
ENCODING 21172
SWIDTH 962 0
DWIDTH 26 0
BBX 26 27 0 -1
BITMAP
00000000
00002000
0c303800
06183000
030c6000
030cc000
02088000
10010c00
1ffffe00
30000c00
30200800
60381000
00300000
00306000
1ffff000
00306000
00306000
00606000
00606000
00c06000
0180e000
031fc000
0c038000
30010000
00000000
00000000
00000000
ENDCHAR
STARTCHAR 52b5
ENCODING 21173
SWIDTH 962 0
DWIDTH 26 0
BBX 26 27 0 -1
BITMAP
00200000
00388000
0830e000
06318000
03310000
01323000
1ffff800
00300000
00600c00
7ffffe00
00c10000
01a0c000
03387000
0c301f00
3030cc00
c7ffe000
0060c000
0060c000
00c0c000
0180c000
0301c000
061f8000
18030000
40020000
00000000
00000000
00000000
ENDCHAR
STARTCHAR 52b6
ENCODING 21174
SWIDTH 962 0
DWIDTH 26 0
BBX 26 27 0 -1
BITMAP
00008000
0020e000
0070c000
11f8c000
1f00c000
1800c000
1800cc00
1837fe00
1ff8cc00
1800cc00
1800cc00
1a30cc00
1bf8cc00
1b30cc00
1b318c00
1b318c00
33318c00
33330c00
33f30c00
63361c00
4326f800
820c3000
00102000
00200000
00000000
00000000
00000000
ENDCHAR
STARTCHAR 52b7
ENCODING 21175
SWIDTH 962 0
DWIDTH 26 0
BBX 26 27 0 -1
BITMAP
00008000
0020e000
1038c000
0c30c000
0660c000
0448c000
3ffccc00
0183fe00
0180cc00
0190cc00
1ff8cc00
0180cc00
0180cc00
01998c00
7ffd8c00
01818c00
01830c00
03030c00
03060c00
06061c00
0c0cf800
18183000
20202000
40400000
00000000
00000000
00000000
ENDCHAR
STARTCHAR 52b8
ENCODING 21176
SWIDTH 962 0
DWIDTH 26 0
BBX 26 27 0 -1
BITMAP
00008000
0100e000
01c0c000
0180c000
0180c000
0190c000
1ff8cc00
0187fe00
0180cc00
0198cc00
7ffccc00
0100cc00
01c0cc00
01818c00
01918c00
3ff98c00
01830c00
01830c00
01b60c00
07c61c00
7e0cf800
30183000
00302000
00400000
00000000
00000000
00000000
ENDCHAR
STARTCHAR 52b9
ENCODING 21177
SWIDTH 962 0
DWIDTH 26 0
BBX 26 27 0 -1
BITMAP
10010000
0801c000
0c018000
06018000
04218000
fff18000
10818c00
1c4ffe00
30618c00
60318c00
40918c00
80e18c00
20c18c00
19818c00
0d818c00
07030c00
07030c00
0d860c00
18c60c00
30ec0c00
604c1c00
8018f800
00303000
00402000
00000000
00000000
00000000
ENDCHAR
STARTCHAR 52ba
ENCODING 21178
SWIDTH 962 0
DWIDTH 26 0
BBX 26 27 0 -1
BITMAP
04008000
0700e000
0600c000
0c00c000
0840c000
1030c000
7ff8c600
381bff00
0110c600
21c0c600
3980c600
3190c600
3ff8c600
6180c600
4180c600
81898600
7ffd8600
01830600
01830600
01860e00
018cfc00
01981800
01201000
00400000
00000000
00000000
00000000
ENDCHAR
STARTCHAR 52bd
ENCODING 21181
SWIDTH 962 0
DWIDTH 26 0
BBX 26 27 0 -1
BITMAP
00001000
00181c00
3ffd1800
0301d800
06319800
0ff99800
18319800
36619800
43611800
02c01800
01a0f800
06383000
18302000
40303000
1ffff800
00303000
00603000
00603000
00c03000
01807000
030fe000
0c01c000
20008000
00000000
00000000
00000000
00000000
ENDCHAR
STARTCHAR 52c4
ENCODING 21188
SWIDTH 962 0
DWIDTH 26 0
BBX 26 27 0 -1
BITMAP
10008000
1c00e000
1800c000
3018c000
3ffcc000
6000c000
4000cc00
9037fe00
1ff8cc00
1b30cc00
19b0cc00
1934cc00
fffecc00
3430cc00
3330cc00
31b18c00
31318c00
7ffd8c00
30330c00
00331c00
07f6f800
00643000
00482000
00100000
00000000
00000000
00000000
ENDCHAR
STARTCHAR 52c5
ENCODING 21189
SWIDTH 962 0
DWIDTH 26 0
BBX 26 27 0 -1
BITMAP
00008000
0200e000
0380c000
0300c000
0330c000
7ff8c000
0300cc00
2337fe00
3ff8cc00
3330cc00
3330cc00
3330cc00
3ff0cc00
2720cc00
0f818c00
0f418c00
1b618c00
1b330c00
33330c00
63261c00
4306f800
830c3000
02182000
00200000
00000000
00000000
00000000
ENDCHAR
STARTCHAR 52c6
ENCODING 21190
SWIDTH 962 0
DWIDTH 26 0
BBX 26 27 0 -1
BITMAP
00008000
0800e000
0600c000
0300c000
2260c000
3ff0c000
3060cc00
306ffe00
3fe0cc00
3060cc00
3060cc00
3060cc00
3fe0cc00
3040cc00
3200cc00
31818c00
30c18c00
30e30c00
33730c00
7c361c00
302cf800
20183000
00202000
00400000
00000000
00000000
00000000
ENDCHAR
STARTCHAR 52c8
ENCODING 21192
SWIDTH 962 0
DWIDTH 26 0
BBX 26 27 0 -1
BITMAP
00008000
0000e000
0030c000
7ff8c000
0060c000
18c0c000
0700cc00
2337fe00
3ff8cc00
3330cc00
3330cc00
3330cc00
3ff0cc00
3330cc00
33318c00
33318c00
3ff18c00
33330c00
33330c00
33361c00
32f6f800
306c3000
20482000
00100000
00000000
00000000
00000000
ENDCHAR
STARTCHAR 52ca
ENCODING 21194
SWIDTH 962 0
DWIDTH 26 0
BBX 26 27 0 -1
BITMAP
02010000
0381c000
03018000
03318000
fff98000
03018000
03018c00
2337fe00
3ff98c00
30318c00
30318c00
30318c00
30318c00
3ff18c00
0cc18c00
0cc30c00
0cc31c00
0cc6f800
18c83200
18d02200
30e00300
20ffff00
407ffe00
80000000
00000000
00000000
00000000
ENDCHAR
STARTCHAR 52cc
ENCODING 21196
SWIDTH 962 0
DWIDTH 26 0
BBX 26 27 0 -1
BITMAP
00000000
02008000
4390e000
331cc000
1b30c000
1340c000
7ff8cc00
0303fe00
0618cc00
fffccc00
0c60cc00
1818cc00
3feccc00
cc698c00
0c618c00
0c618c00
0de30c00
0cc30c00
0c060c00
0ce61c00
1f8cf800
0c183000
08202000
00400000
00000000
00000000
00000000
ENDCHAR
STARTCHAR 52ce
ENCODING 21198
SWIDTH 962 0
DWIDTH 26 0
BBX 26 27 0 -1
BITMAP
02008000
0380e000
0300c000
0300c000
0320c000
3ff0c000
0300c600
0307ff00
0318c600
fffcc600
1040c600
1c30c600
3218c600
638cc600
8308c600
0320c600
3ff18600
03018600
03030600
03330e00
07c67c00
fe0c1800
30181000
00200000
00000000
00000000
00000000
ENDCHAR
STARTCHAR 52cf
ENCODING 21199
SWIDTH 962 0
DWIDTH 26 0
BBX 26 27 0 -1
BITMAP
00010000
0c01c000
06018000
03018000
02318000
fff98000
00418c00
3077fe00
18c18c00
10898c00
fffd8c00
00018c00
20618c00
3ff18c00
30618c00
30630c00
30630c00
30630c00
3fe60c00
30661c00
304cf800
20183000
00202000
00400000
00000000
00000000
00000000
ENDCHAR
STARTCHAR 52d1
ENCODING 21201
SWIDTH 962 0
DWIDTH 26 0
BBX 26 27 0 -1
BITMAP
00000000
02008000
0380e000
0300c000
0330c000
7ff8c000
0300cc00
2323fe00
3b38cc00
3330cc00
6b68cc00
6f4ccc00
4b88cc00
8700cc00
07818c00
0f618c00
1b318c00
33330c00
63230c00
83061c00
0306f800
030c3000
02102000
00200000
00000000
00000000
00000000
ENDCHAR
STARTCHAR 52d4
ENCODING 21204
SWIDTH 962 0
DWIDTH 26 0
BBX 26 27 0 -1
BITMAP
00008000
0000e000
0030c000
fff8c000
0600c000
0600c000
4420c600
7ff7ff00
68b0c600
68b0c600
68b0c600
6fb0c600
68b0c600
68b0c600
68b18600
6fb18600
68b18600
68b30600
68b30600
7ff60600
60260e00
600dfc00
40183800
00201000
00000000
00000000
00000000
ENDCHAR
STARTCHAR 52da
ENCODING 21210
SWIDTH 962 0
DWIDTH 26 0
BBX 26 27 0 -1
BITMAP
02408000
2360e000
3a40c000
3248c000
fffcc000
3240c600
3247ff00
33c0c600
3010c600
7ff8c600
0000c600
3ff8c600
3018c600
3218c600
3398c600
33198600
33198600
37918600
26c30600
0c630c00
18367c00
30241800
40081000
00100000
00000000
00000000
00000000
ENDCHAR
STARTCHAR 52dc
ENCODING 21212
SWIDTH 962 0
DWIDTH 26 0
BBX 26 27 0 -1
BITMAP
00008000
1080e000
1c60c000
3030c000
6418c000
4710c000
8c40c600
1027ff00
7ff0c600
3020c600
0408c600
fffcc600
4718c600
36d8c600
2658c600
0e38c600
3678c600
e7d8c600
4698c600
06198600
3ef9be00
0c330c00
08240800
00080000
00000000
00000000
00000000
ENDCHAR
STARTCHAR 52e0
ENCODING 21216
SWIDTH 962 0
DWIDTH 26 0
BBX 26 27 0 -1
BITMAP
00004000
02047000
7f7e6000
23466000
1b366000
13266000
0f0e6600
7377ff00
22246600
01806600
03606600
06306600
0c8c6600
30e66600
c1846600
06206600
1870c600
01c8c600
061d8600
38318e00
01c37c00
0e061800
70081000
00100000
00000000
00000000
00000000
ENDCHAR
STARTCHAR 52e1
ENCODING 21217
SWIDTH 962 0
DWIDTH 26 0
BBX 26 27 0 -1
BITMAP
00010000
0061c000
7ff18000
05018000
45318000
7ff98000
65318c00
653ffe00
65318c00
7ff18c00
00018c00
3fe18c00
00018c00
00318c00
fff98c00
03018c00
23430c00
3b230c00
33330c00
63161c00
4316f800
9f0c3000
06182000
00200000
00000000
00000000
00000000
ENDCHAR
STARTCHAR 52e5
ENCODING 21221
SWIDTH 962 0
DWIDTH 26 0
BBX 26 27 0 -1
BITMAP
00000000
01901800
7fdffc00
01981800
219ff800
3f818000
313ffc00
30318c00
7fbffc00
31b19000
01818800
0183fc00
1fbf8c00
034c0800
02700000
00603000
7ffff800
00603000
00c03000
00c03000
01807000
060fe000
1801c000
60008000
00000000
00000000
00000000
ENDCHAR
STARTCHAR 52e7
ENCODING 21223
SWIDTH 962 0
DWIDTH 26 0
BBX 26 27 0 -1
BITMAP
04008000
0700e000
0c00c000
0c20c000
1ff0c000
3200c000
4330cc00
7ffbfe00
0680cc00
0cc0cc00
1888cc00
3ffccc00
78c0cc00
98d0cc00
1ff98c00
18c18c00
18d18c00
1ffb0c00
18c30c00
18c61c00
1ffef800
180c3000
10102000
00200000
00000000
00000000
00000000
ENDCHAR
STARTCHAR 52e8
ENCODING 21224
SWIDTH 962 0
DWIDTH 26 0
BBX 26 27 0 -1
BITMAP
08008000
0e00e000
0c60c000
1ff0c000
3060c000
2080c600
7ffbff00
b198c600
3198c600
3318c600
3ff8c600
0610c600
0f1cc600
33b0c600
c6c0c600
0ce0c600
19d8c600
63cd8600
86cd8600
18cb0e00
60c27c00
8f841800
03081000
02100000
00000000
00000000
00000000
ENDCHAR
STARTCHAR 52ea
ENCODING 21226
SWIDTH 962 0
DWIDTH 26 0
BBX 26 27 0 -1
BITMAP
00604000
01f07000
3f806000
01806000
030c6000
fffe6000
0c606600
181bff00
3fec6600
4c646600
8c606600
0fe06600
20186600
3ffc6600
30186600
37d8c600
3458c600
3458c600
37d98600
30198600
30fb0e00
30367c00
20241800
00081000
00000000
00000000
00000000
ENDCHAR
STARTCHAR 52ec
ENCODING 21228
SWIDTH 962 0
DWIDTH 26 0
BBX 26 27 0 -1
BITMAP
01000000
21c88000
198ee000
0d98c000
09a0c000
3ff8c000
0180c600
0307ff00
fffcc600
0d20c600
1998c600
332cc600
4c76c600
9fc4c600
0320c600
0c18c600
7ffcc600
018d8600
11a18600
19930e00
319afc00
4f941800
83081000
02100000
00000000
00000000
00000000
ENDCHAR
STARTCHAR 52ed
ENCODING 21229
SWIDTH 962 0
DWIDTH 26 0
BBX 26 27 0 -1
BITMAP
02008000
0180e000
0098c000
3ffcc000
0830c000
0620c000
0448c600
7ffdff00
0000c600
1ff8c600
1998c600
1ff8c600
1998c600
1998c600
1ff8c600
1190c600
01818600
1ff98600
01830600
01fb0e00
7f86fc00
1c0c3800
00181000
00200000
00000000
00000000
00000000
ENDCHAR
STARTCHAR 52ee
ENCODING 21230
SWIDTH 962 0
DWIDTH 26 0
BBX 26 27 0 -1
BITMAP
02008000
0380e000
0320c000
03f0c000
2308c000
3ffcc000
3308c600
33f7ff00
3f08c600
31f8c600
3000c600
3ffcc600
3100c600
3388c600
34ccc600
39d0c600
3260c600
34f0c600
61698600
626d8e00
4deb7c00
90c61800
80881000
00100000
00000000
00000000
00000000
ENDCHAR
STARTCHAR 52f2
ENCODING 21234
SWIDTH 962 0
DWIDTH 26 0
BBX 26 27 0 -1
BITMAP
00010000
0061c000
03f18000
3f018000
03218c00
7ff7fe00
03018c00
3ff18c00
23118c00
3ff18c00
23118c00
3ff18c00
03018c00
3ff30c00
03030c00
03f67c00
7f041800
1c081000
00100000
11082000
10c61800
30630c00
30630e00
60420400
00000000
00000000
00000000
ENDCHAR
STARTCHAR 52f6
ENCODING 21238
SWIDTH 962 0
DWIDTH 26 0
BBX 26 27 0 -1
BITMAP
08304000
0e187000
18106000
31fec600
4460ff00
86458c00
0dfe4c00
18024c00
38fc6800
58843800
18fc3000
18843800
18fc6c00
1884cf00
189d0400
102a0000
00303000
3ffff800
00303000
00603000
00c03000
03007000
0c07e000
2000c000
00000000
00000000
00000000
ENDCHAR
STARTCHAR 52fd
ENCODING 21245
SWIDTH 962 0
DWIDTH 26 0
BBX 26 27 0 -1
BITMAP
02000000
03800000
03000000
03000000
06000c00
07fffe00
0c000c00
0c200c00
18380c00
10300c00
20300c00
40300c00
00780c00
00e60c00
00c30c00
01818c00
0301cc00
0600cc00
0c008c00
10000c00
20001c00
0003f800
00003000
00002000
00000000
00000000
00000000
ENDCHAR
STARTCHAR 5301
ENCODING 21249
SWIDTH 962 0
DWIDTH 26 0
BBX 26 27 0 -1
BITMAP
00000000
02000000
03800000
03000000
06003000
07fff800
0c0c3000
0c0c3000
180c3000
100c3000
240c3000
42183000
01183000
00d83000
00703000
003c3000
00663000
0063b000
00c0f000
01803800
03006f00
0c0fc400
20018000
00010000
00000000
00000000
00000000
ENDCHAR
STARTCHAR 5302
ENCODING 21250
SWIDTH 962 0
DWIDTH 26 0
BBX 26 27 0 -1
BITMAP
00000000
02000000
03800000
03000000
06000c00
07fffe00
0c000c00
0c000c00
19000c00
11c00c00
21840c00
41870c00
018c0c00
01b00c00
01c00c00
01810c00
01810c00
01810c00
01ff8c00
00ff0c00
00001c00
0003f800
00007000
00002000
00000000
00000000
00000000
ENDCHAR
STARTCHAR 5303
ENCODING 21251
SWIDTH 962 0
DWIDTH 26 0
BBX 26 27 0 -1
BITMAP
00000000
02000000
03800000
03000000
06000c00
07fffe00
0c000c00
0c080c00
180e0c00
100c0c00
240c0c00
471c0c00
061a0c00
06330c00
06318c00
0660cc00
06c08c00
07000c00
0fffec00
04001800
00003800
0007f000
0000e000
00004000
00000000
00000000
00000000
ENDCHAR
STARTCHAR 5304
ENCODING 21252
SWIDTH 962 0
DWIDTH 26 0
BBX 26 27 0 -1
BITMAP
00000000
02000000
03800000
03000000
06000c00
07fffe00
0c000c00
0c200c00
18180c00
300c0c00
2008cc00
4fffec00
01800c00
01800c00
01800c00
01800c00
01800c00
01800c00
01818c00
03ffcc00
01801c00
0003f800
00007000
00002000
00000000
00000000
00000000
ENDCHAR
STARTCHAR 5307
ENCODING 21255
SWIDTH 962 0
DWIDTH 26 0
BBX 26 27 0 -1
BITMAP
00000000
02000000
03800000
03000000
06001800
07fffc00
0c001800
0c801800
18e01800
10c01800
21831800
41ff9800
03031800
06c31800
08661800
10661800
004c1800
00181800
00301800
00601800
01803800
0607f000
1800e000
00004000
00000000
00000000
00000000
ENDCHAR
STARTCHAR 530c
ENCODING 21260
SWIDTH 962 0
DWIDTH 26 0
BBX 26 27 0 -1
BITMAP
02000000
03800000
03000000
06000c00
07fffe00
0c400c00
18700c00
10e00c00
21900c00
430c0c00
06070c00
1801ec00
67fe8c00
00000c00
04060c00
07ff0c00
06060c00
06060c00
06060c00
07fe0c00
06041c00
0401f800
00007000
00002000
00000000
00000000
00000000
ENDCHAR
STARTCHAR 5313
ENCODING 21267
SWIDTH 962 0
DWIDTH 26 0
BBX 26 27 0 -1
BITMAP
04000000
07000000
06000000
0c000c00
0ffffe00
18000c00
28488c00
4fcfcc00
0c4ccc00
0c4ccc00
0fd8cc00
0c507c00
0c600c00
0fdfcc00
0c00cc00
0d0ccc00
0c858c00
0cc30c00
0d66cc00
1e4c6c00
0c104c00
0821fc00
00003800
00001000
00000000
00000000
00000000
ENDCHAR
STARTCHAR 5314
ENCODING 21268
SWIDTH 962 0
DWIDTH 26 0
BBX 26 27 0 -1
BITMAP
02000000
03800000
03000600
07ffff00
06800600
0cc00600
09026600
17f3f600
26326600
46326600
07f26600
0633e600
07f00600
06342600
0637f600
3ff63600
01b63600
03363600
0637f600
0c363600
18340600
63f0fc00
00603800
00401000
00000000
00000000
00000000
ENDCHAR
STARTCHAR 5318
ENCODING 21272
SWIDTH 962 0
DWIDTH 26 0
BBX 26 27 0 -1
BITMAP
40108800
701cee00
6018cc00
60319800
60633000
60844000
62422000
63a11000
66319800
6c1acc00
70134800
60020000
603ffc00
60302c00
60383c00
61366c00
6131cc00
61336c00
61b63c00
7fb82c00
3f300c00
003ffc00
00300c00
00200800
00000000
00000000
00000000
ENDCHAR
STARTCHAR 531b
ENCODING 21275
SWIDTH 962 0
DWIDTH 26 0
BBX 26 27 0 -1
BITMAP
00000000
20001800
3ffffc00
30000000
30200000
30380000
30300000
30618000
307fc000
30c18000
30c18000
31830000
31830000
33060000
340f0000
30198000
3030e000
30607000
31803800
36003000
30000400
7ffffe00
30000000
00000000
00000000
00000000
00000000
ENDCHAR
STARTCHAR 531e
ENCODING 21278
SWIDTH 962 0
DWIDTH 26 0
BBX 26 27 0 -1
BITMAP
00000000
20001800
3ffffc00
30000000
30000000
30000000
30006000
33fff000
300c0000
300c0000
300c0000
300c0000
300c0000
300c0000
300c0000
300c1800
37fffc00
30000000
30000000
30000000
30000c00
7ffffe00
30000000
00000000
00000000
00000000
00000000
ENDCHAR
STARTCHAR 5324
ENCODING 21284
SWIDTH 962 0
DWIDTH 26 0
BBX 26 27 0 -1
BITMAP
00000000
20001800
3ffffc00
30000000
30000000
30006000
33fff000
300c0000
300c0000
300c0000
300c4000
31ffe000
300c0000
300cc000
300c6000
300c6000
300c4000
300c1800
37fffc00
30000000
30000400
7ffffe00
30000000
00000000
00000000
00000000
00000000
ENDCHAR
STARTCHAR 5325
ENCODING 21285
SWIDTH 962 0
DWIDTH 26 0
BBX 26 27 0 -1
BITMAP
20001800
3ffffc00
30000000
30100000
301c0000
30308000
30604000
30c03000
33fff800
31a11800
3039c000
30318000
30319800
37fffc00
30318000
30318000
30618000
30618000
30c18000
31818000
32010c00
7ffffe00
30000000
20000000
00000000
00000000
00000000
ENDCHAR
STARTCHAR 5327
ENCODING 21287
SWIDTH 962 0
DWIDTH 26 0
BBX 26 27 0 -1
BITMAP
00000000
20001800
3ffffc00
30080000
300e0000
300c0000
300c3000
3ffff800
310c8000
31cce000
318cc000
338ce000
336db000
366d1800
345a1000
381b0000
30318000
3061c000
30c0f000
31807f00
32003000
34000000
3fffff00
20000000
00000000
00000000
00000000
ENDCHAR
STARTCHAR 5328
ENCODING 21288
SWIDTH 962 0
DWIDTH 26 0
BBX 26 27 0 -1
BITMAP
00000000
20001800
3ffffc00
30000000
30208000
3238e000
33b0c000
3330c000
3330c000
33f0c800
323ffc00
3030c000
3ff0c000
3330c000
3330c000
3330c000
3630c000
3630d000
3437f800
38300000
30200400
7ffffe00
30000000
00000000
00000000
00000000
00000000
ENDCHAR
STARTCHAR 5329
ENCODING 21289
SWIDTH 962 0
DWIDTH 26 0
BBX 26 27 0 -1
BITMAP
00000000
20001800
3ffffc00
30080000
300e0000
310c4000
31cc7000
318c6000
318c6000
33ffe000
31804000
30002000
33fff000
300c0000
300cc000
31ffe000
300c0000
300c3000
37fff800
30000000
30000800
7ffffc00
30000000
00000000
00000000
00000000
00000000
ENDCHAR
STARTCHAR 532b
ENCODING 21291
SWIDTH 962 0
DWIDTH 26 0
BBX 26 27 0 -1
BITMAP
20000c00
3ffffe00
30800000
30e00000
30c03000
31fff800
33333000
36633000
38c63000
318c3000
3219f000
30606000
31004000
31ffe000
31806000
31ffe000
31806000
31806000
31ffe000
31806000
31004c00
7ffffe00
30000000
20000000
00000000
00000000
00000000
ENDCHAR
STARTCHAR 532c
ENCODING 21292
SWIDTH 962 0
DWIDTH 26 0
BBX 26 27 0 -1
BITMAP
20000c00
3ffffe00
300c0000
300e0000
301a0000
30318000
30c0e000
333f3e00
34001800
31f82000
31993800
3199b000
31f9b000
3199b000
3199b000
31f9b000
31993000
31983000
3199f000
31b86000
31104600
7fffff00
30000000
20000000
00000000
00000000
00000000
ENDCHAR
STARTCHAR 5332
ENCODING 21298
SWIDTH 962 0
DWIDTH 26 0
BBX 26 27 0 -1
BITMAP
00000000
20001800
3ffffc00
30080000
300e0000
300c1800
37fffc00
30330000
3060e000
31bfbe00
36319800
30318000
303f8000
31001000
31f9f800
31999800
31999800
31f9f800
31999800
31010000
30000c00
7ffffe00
30000000
00000000
00000000
00000000
00000000
ENDCHAR
STARTCHAR 5333
ENCODING 21299
SWIDTH 962 0
DWIDTH 26 0
BBX 26 27 0 -1
BITMAP
00000000
20001800
3ffffc00
30100000
301c0000
30180000
30360000
30c1c000
33007c00
3cffa000
30000000
33f3f000
33333000
33333000
33f3f000
31008000
31c0e000
3180c000
3361b000
36331800
38241000
7ffffe00
30000000
00000000
00000000
00000000
00000000
ENDCHAR
STARTCHAR 5335
ENCODING 21301
SWIDTH 962 0
DWIDTH 26 0
BBX 26 27 0 -1
BITMAP
20000c00
3ffffe00
30060000
30061800
37fffc00
30060000
30fff000
32000800
33fffc00
33319800
33fff800
30000000
31fff000
31803000
31fff000
31803000
31fff000
31803000
31fff000
30408000
30706000
30c03800
33001800
3fffff00
00000000
00000000
00000000
ENDCHAR
STARTCHAR 5336
ENCODING 21302
SWIDTH 962 0
DWIDTH 26 0
BBX 26 27 0 -1
BITMAP
00000000
20000c00
3ffffe00
3060c000
37fff800
3160c000
31988000
330c2000
33fff000
35860000
39ffe000
31860000
31ffe000
31860000
31fff000
30300000
31e1f000
31803000
31fbf000
31803000
31fff000
30000400
3ffffe00
00000000
00000000
00000000
00000000
ENDCHAR
STARTCHAR 5338
ENCODING 21304
SWIDTH 962 0
DWIDTH 26 0
BBX 26 27 0 -1
BITMAP
00000000
00000000
00001800
1ffffc00
03000000
03000000
03000000
03000000
03000000
03000000
03000000
03000000
03000000
03000000
03000000
03000000
03000000
03000000
03000000
03000000
03000c00
07fffe00
02000000
00000000
00000000
00000000
00000000
ENDCHAR
STARTCHAR 5342
ENCODING 21314
SWIDTH 962 0
DWIDTH 26 0
BBX 26 27 0 -1
BITMAP
00000000
00006000
3ffff000
00806000
00e06000
00c06000
00c06000
00c06000
00c06000
00c06000
00c66000
7fff6000
00c06000
00c06000
00c03000
00c03000
00c03100
00c01900
00c01900
00c00d00
00c00d00
00c00700
00800300
00000000
00000000
00000000
00000000
ENDCHAR
STARTCHAR 5346
ENCODING 21318
SWIDTH 962 0
DWIDTH 26 0
BBX 26 27 0 -1
BITMAP
00200000
00380000
00300000
0030c000
3fffe000
0060c000
0060c000
00c0c400
0180c400
0300c600
0610fe00
181c7c00
60180000
00180000
00180600
ffffff00
00180000
00180000
00180000
00180000
00180000
00180000
00180000
00100000
00000000
00000000
00000000
ENDCHAR
STARTCHAR 534b
ENCODING 21323
SWIDTH 962 0
DWIDTH 26 0
BBX 26 27 0 -1
BITMAP
00100000
001c0000
00180000
00180000
00183000
1ffff800
00180000
00180000
04184000
07187000
06106000
06006000
06006600
ffffff00
06006000
06006000
06006000
06006000
06006000
06006000
07ffe000
06006000
04004000
00000000
00000000
00000000
00000000
ENDCHAR
STARTCHAR 5350
ENCODING 21328
SWIDTH 962 0
DWIDTH 26 0
BBX 26 27 0 -1
BITMAP
00000000
00000000
20101800
381ffc00
30180000
30180000
30180000
30180000
30180000
30180000
30180000
30180c00
7ffffe00
20180c00
00180c00
00180c00
00180c00
00180c00
00180c00
00180c00
00180c00
7ff80c00
00100800
00000000
00000000
00000000
00000000
ENDCHAR
STARTCHAR 5358
ENCODING 21336
SWIDTH 962 0
DWIDTH 26 0
BBX 26 27 0 -1
BITMAP
00002000
08603800
04306000
0618c000
03188000
02110000
08003000
0ffff800
0c183000
0c183000
0ffff000
0c183000
0c183000
0ffff000
08182000
00180c00
7ffffe00
00180000
00180000
00180000
00180000
00180000
00180000
00100000
00000000
00000000
00000000
ENDCHAR
STARTCHAR 5359
ENCODING 21337
SWIDTH 962 0
DWIDTH 26 0
BBX 26 27 0 -1
BITMAP
08202000
0e383800
0c303000
0c343000
7ffe3000
0c303000
0c303000
0ff03000
0c303200
0c37ff00
0ff03000
0c303000
0c303000
0c323000
ffff3000
32203000
33903000
36183000
340c3000
38083000
30033000
7fffb000
30003000
00002000
00000000
00000000
00000000
ENDCHAR
STARTCHAR 535b
ENCODING 21339
SWIDTH 962 0
DWIDTH 26 0
BBX 26 27 0 -1
BITMAP
08004000
0e307000
18186000
1210c800
237e8c00
7e01f000
0c3c6000
11008800
7fbdfc00
3180cc00
023c0000
5124a400
49a49600
cd3d9a00
88111000
001c0000
00180000
00180c00
7ffffe00
00180000
00180000
00180000
00180000
00100000
00000000
00000000
00000000
ENDCHAR
STARTCHAR 535d
ENCODING 21341
SWIDTH 962 0
DWIDTH 26 0
BBX 26 27 0 -1
BITMAP
00000000
00820000
00e38000
00c30000
00c30000
00c30000
00c30000
00c30000
00c30000
00c30000
00c30c00
7fc3fe00
00c30000
00c30000
00c30000
00c30000
00c30000
00c30000
00c30000
00c30000
00c30000
00c30000
00c30000
00820000
00000000
00000000
00000000
ENDCHAR
STARTCHAR 5365
ENCODING 21349
SWIDTH 962 0
DWIDTH 26 0
BBX 26 27 0 -1
BITMAP
00200000
00380000
00300000
00301800
003ffc00
00300000
20303000
3ffff800
30423000
3473b000
32633000
31633000
30c63000
30e63000
31bc3000
331c3000
34373000
3863b000
30c1b000
31003000
3ffff000
30003000
20002000
00000000
00000000
00000000
00000000
ENDCHAR
STARTCHAR 5368
ENCODING 21352
SWIDTH 962 0
DWIDTH 26 0
BBX 26 27 0 -1
BITMAP
00100000
001c0000
00180000
00180c00
001ffe00
00180000
0218c000
03ffe000
0300c000
03f8c000
0318c000
0318c000
2318cc00
3ffffe00
30000c00
31018c00
31ffcc00
31818c00
31818c00
31ff8c00
31810c00
3100fc00
30001800
20001000
00000000
00000000
00000000
ENDCHAR
STARTCHAR 536a
ENCODING 21354
SWIDTH 962 0
DWIDTH 26 0
BBX 26 27 0 -1
BITMAP
00000000
00403000
007ff800
00603000
00603000
00683000
00643000
00663000
00633000
00633000
00623000
00603000
00603000
00603000
0067f000
0060e000
00604000
00600000
00600000
00600000
00600000
00600000
00600000
00400000
00000000
00000000
00000000
ENDCHAR
STARTCHAR 536d
ENCODING 21357
SWIDTH 962 0
DWIDTH 26 0
BBX 26 27 0 -1
BITMAP
00000000
00040c00
0067fe00
fff60c00
06060c00
06060c00
06060c00
06060c00
06060c00
06060c00
06060c00
06060c00
06060c00
06060c00
06060c00
06667c00
07861800
fe061000
30060000
00060000
00060000
00060000
00060000
00040000
00000000
00000000
00000000
ENDCHAR
STARTCHAR 5376
ENCODING 21366
SWIDTH 962 0
DWIDTH 26 0
BBX 26 27 0 -1
BITMAP
02000000
03810600
0301ff00
06198600
0ffd8600
18198600
26318600
43618600
02c18600
01818600
06818600
18e18600
218d8600
03ff8600
060d8600
0d8d8600
18d9be00
20998c00
00318800
00618000
00c18000
03018000
0c018000
30010000
00000000
00000000
00000000
ENDCHAR
STARTCHAR 537d
ENCODING 21373
SWIDTH 962 0
DWIDTH 26 0
BBX 26 27 0 -1
BITMAP
02000000
03800000
06021800
2863fc00
3ff31800
30631800
30631800
3fe31800
30631800
30631800
30631800
3fe31800
00431800
20031800
38831800
31e31800
33837800
36133000
38132000
301b0000
3ffb0000
1ff30000
00030000
00020000
00000000
00000000
00000000
ENDCHAR
STARTCHAR 537e
ENCODING 21374
SWIDTH 962 0
DWIDTH 26 0
BBX 26 27 0 -1
BITMAP
00000000
44990c00
7cfdfe00
64998c00
64998c00
64998c00
7cf98c00
44918c00
00018c00
3ff18c00
00018c00
00198c00
7ffd8c00
06018c00
0c318c00
1ff9bc00
0c319800
00319000
00318000
00718000
07e18000
00c18000
00818000
00010000
00000000
00000000
00000000
ENDCHAR
STARTCHAR 5380
ENCODING 21376
SWIDTH 962 0
DWIDTH 26 0
BBX 26 27 0 -1
BITMAP
02000000
03800000
03000000
03321800
7ffbfc00
0f831800
1b631800
33331800
c3231800
06031800
0d831800
18631800
32331800
c3931800
23231800
13731800
1b837800
13433000
0f632000
73330000
23230000
1f030000
06030000
04020000
00000000
00000000
00000000
ENDCHAR
STARTCHAR 5381
ENCODING 21377
SWIDTH 962 0
DWIDTH 26 0
BBX 26 27 0 -1
BITMAP
02002000
03863800
07033000
0cc23000
18703000
60363000
9fc33400
03023e00
7ff1f000
130f3000
1b403000
33303000
63183000
8f103000
02002000
3fffe000
00606000
00606000
00606000
00606000
0063e000
0060c000
00600000
00400000
00000000
00000000
00000000
ENDCHAR
STARTCHAR 5383
ENCODING 21379
SWIDTH 962 0
DWIDTH 26 0
BBX 26 27 0 -1
BITMAP
00800000
00e00000
00c08000
0181c000
01ffe000
03018000
06030000
0c020000
10041800
2ffffc00
0c000000
0c000000
0c000000
0c000000
0c000000
0c000000
0c000000
0c000000
18000000
18000000
30000000
20000000
40000000
80000000
00000000
00000000
00000000
ENDCHAR
STARTCHAR 5387
ENCODING 21383
SWIDTH 962 0
DWIDTH 26 0
BBX 26 27 0 -1
BITMAP
00000000
10000c00
1ffffe00
18000000
18006000
1801f000
180f0000
19fe0000
18060000
18060000
18060000
18060c00
1807fe00
1bfe0000
18060000
18060000
18060000
18060200
18060200
30060200
30060300
2007ff00
4003fe00
80000000
00000000
00000000
00000000
ENDCHAR
STARTCHAR 5388
ENCODING 21384
SWIDTH 962 0
DWIDTH 26 0
BBX 26 27 0 -1
BITMAP
00000000
00000800
08001c00
0ffffe00
0c000000
0c000000
0c003000
0c7ff800
0c030000
0c030000
0c030000
0c030000
0c030c00
0dfffe00
0c030000
0c030000
0c030000
0c030000
18030000
18030000
30030000
30030000
60030000
80020000
00000000
00000000
00000000
ENDCHAR
STARTCHAR 5390
ENCODING 21392
SWIDTH 962 0
DWIDTH 26 0
BBX 26 27 0 -1
BITMAP
00000000
10000c00
1ffffe00
18200000
18398000
1830c000
18308000
18301800
1ffffc00
18330000
18330000
18331000
18331c00
18331800
18633000
18636000
1863c000
18c38400
10c30400
318f0400
23320600
26c3fe00
4801fc00
00000000
00000000
00000000
00000000
ENDCHAR
STARTCHAR 5391
ENCODING 21393
SWIDTH 962 0
DWIDTH 26 0
BBX 26 27 0 -1
BITMAP
00000000
10000c00
1ffffe00
18000000
18010000
1801c000
18018000
19198800
19fd8e00
19998c00
19999800
19999000
1999a000
1999c000
19998000
19998000
19998000
19f98200
19998200
31918200
3101ff00
2000fe00
40000000
80000000
00000000
00000000
00000000
ENDCHAR
STARTCHAR 5393
ENCODING 21395
SWIDTH 962 0
DWIDTH 26 0
BBX 26 27 0 -1
BITMAP
00000000
10000c00
1ffffe00
18040000
18070000
18060000
18066000
18fff000
18060000
18060000
18060c00
1bfffe00
18040000
18070000
18060000
18066000
18fff000
18060000
18060000
30060000
30060c00
27fffe00
40000000
80000000
00000000
00000000
00000000
ENDCHAR
STARTCHAR 539b
ENCODING 21403
SWIDTH 962 0
DWIDTH 26 0
BBX 26 27 0 -1
BITMAP
00000000
10000c00
1ffffe00
18000000
18001800
18023c00
1913e000
19fb0000
19930000
19930600
1993ff00
19933000
19933000
19933000
19933000
19f33000
19963000
19063000
30063000
300c3000
200c3000
40183000
40103000
00202000
00000000
00000000
00000000
ENDCHAR
STARTCHAR 53a0
ENCODING 21408
SWIDTH 962 0
DWIDTH 26 0
BBX 26 27 0 -1
BITMAP
00000000
20000c00
3ffffe00
30000000
320c0800
33fe0e00
330c0c00
330c8c00
330cec00
33fccc00
330ccc00
330ccc00
330ccc00
33fccc00
330ccc00
330ccc00
330ccc00
33fc8c00
31100c00
618c0c00
63060c00
46067c00
88041800
00001000
00000000
00000000
00000000
ENDCHAR
STARTCHAR 53a1
ENCODING 21409
SWIDTH 962 0
DWIDTH 26 0
BBX 26 27 0 -1
BITMAP
00000000
10001800
1ffffc00
18040000
18060000
18886000
18fff000
18c06000
18c06000
18ffe000
18c06000
18c06000
18ffe000
18061000
18661c00
1bf73000
1866c000
1866c000
30c66000
30c63800
21861f00
433e0c00
440c0000
00080000
00000000
00000000
00000000
ENDCHAR
STARTCHAR 53aa
ENCODING 21418
SWIDTH 962 0
DWIDTH 26 0
BBX 26 27 0 -1
BITMAP
00000000
10000c00
1ffffe00
18208000
1838e000
1830cc00
1ffffe00
1830c000
1830c000
183fc000
19061800
19fffc00
19861800
19861800
19fff800
19061000
18060000
19fff800
18060000
30fff000
30060000
20060c00
47fffe00
80000000
00000000
00000000
00000000
ENDCHAR
STARTCHAR 53ab
ENCODING 21419
SWIDTH 962 0
DWIDTH 26 0
BBX 26 27 0 -1
BITMAP
00000000
10000c00
1ffffe00
18808000
18e0e000
18c0c000
18c98000
1ffd8c00
18c1fe00
1bf91800
18c11800
18c29800
1ffa9800
19849800
19889800
19fcb000
19987000
1b186000
3318d000
36199800
65f30c00
48660f00
90480400
20100000
00000000
00000000
00000000
ENDCHAR
STARTCHAR 53af
ENCODING 21423
SWIDTH 962 0
DWIDTH 26 0
BBX 26 27 0 -1
BITMAP
00000000
10000c00
1ffffe00
18404000
18707000
18606000
18606800
1bfbfc00
18f0f000
19e9e800
196d6c00
1a6a6f00
1c646400
18606000
18404000
18220000
18390800
19318400
31312600
33302300
23303200
463ff000
401fe000
00000000
00000000
00000000
00000000
ENDCHAR
STARTCHAR 53b0
ENCODING 21424
SWIDTH 962 0
DWIDTH 26 0
BBX 26 27 0 -1
BITMAP
00000000
10000c00
1ffffe00
18000000
18404000
18707000
1c646000
1a66c000
1b6cc600
1968ff00
18718c00
1bfe8c00
1a048c00
1a948c00
1af45800
1a945800
1a943000
1af43000
32947000
32046800
2204cc00
423d8f00
420b0400
00040000
00000000
00000000
00000000
ENDCHAR
STARTCHAR 53b1
ENCODING 21425
SWIDTH 962 0
DWIDTH 26 0
BBX 26 27 0 -1
BITMAP
00000000
20000c00
3ffffe00
300c0000
300c0000
30330000
3061c000
31807e00
367f9800
30000000
32323000
33fbf800
33333000
33333000
33333000
33f3f000
32929000
30e0e000
20c0c000
21a0e000
43319800
46130c00
88040400
10080000
00000000
00000000
00000000
ENDCHAR
STARTCHAR 53b3
ENCODING 21427
SWIDTH 962 0
DWIDTH 26 0
BBX 26 27 0 -1
BITMAP
00602000
18303800
0c183000
06186000
04104000
20008c00
3ffffe00
30010000
37e1c000
30618000
30d31800
3ffbfc00
33333000
33353000
33f93000
33313000
33f0a000
3330e000
633ce000
63f1b000
4f331c00
84340f00
80380400
00200000
00000000
00000000
00000000
ENDCHAR
STARTCHAR 53b5
ENCODING 21429
SWIDTH 962 0
DWIDTH 26 0
BBX 26 27 0 -1
BITMAP
10000c00
1ffffe00
18180000
19ffe000
19806000
19ffe000
19806000
31ffe000
30c64000
21863000
463e1800
880c0800
7feffe00
630c6000
6fcdf800
684d0800
6fcdf800
684d0800
6fcdf800
538a7000
5b4b6800
536a6c00
af55e800
42284000
00000000
00000000
00000000
ENDCHAR
STARTCHAR 53b7
ENCODING 21431
SWIDTH 962 0
DWIDTH 26 0
BBX 26 27 0 -1
BITMAP
00400000
00700000
00600000
00600000
00600800
00c01c00
3ffffe00
00c00000
00c00000
01800000
01840000
03070000
030e0000
060c0000
06180000
0c180000
0c304000
18602000
18401000
30801800
67fffc00
81f80c00
00000800
00000000
00000000
00000000
00000000
ENDCHAR
STARTCHAR 53b8
ENCODING 21432
SWIDTH 962 0
DWIDTH 26 0
BBX 26 27 0 -1
BITMAP
00000000
00000000
02004000
03807000
03006000
03006000
03006000
03006000
03006000
06006000
06006000
0600c000
0600c000
0c00c000
0c00c000
0c818800
18418400
18618600
30330300
23f23f00
7f37f300
38238200
10010000
00000000
00000000
00000000
00000000
ENDCHAR
STARTCHAR 53ba
ENCODING 21434
SWIDTH 962 0
DWIDTH 26 0
BBX 26 27 0 -1
BITMAP
00100000
001c0000
00380800
00301c00
7ffffe00
00640000
00c30000
01818000
0300c000
06207000
0c383c00
30301f00
c0300800
00600000
00600000
00c20000
00c10000
01808000
0100c000
021fe000
1ff87000
0f003000
04002000
00000000
00000000
00000000
00000000
ENDCHAR
STARTCHAR 53bc
ENCODING 21436
SWIDTH 962 0
DWIDTH 26 0
BBX 26 27 0 -1
BITMAP
00100000
001c0000
00300000
00300000
00600000
00c08000
01806000
03003000
041ff800
1ff01800
0e001800
00081000
000e0000
000c0000
020c4000
038c3000
030c1800
060c0c00
0c0c0e00
180c0e00
300c0600
40fc0400
80180000
00100000
00000000
00000000
00000000
ENDCHAR
STARTCHAR 53bd
ENCODING 21437
SWIDTH 962 0
DWIDTH 26 0
BBX 26 27 0 -1
BITMAP
00000000
00200000
00380000
00600000
00c00000
01804000
03003000
06001800
3ffffc00
0f800c00
00000800
04004000
07007000
06006000
0c00c000
0c00c000
18018000
30830800
20420400
40640600
fff7ff00
78338300
00200200
00000000
00000000
00000000
00000000
ENDCHAR
STARTCHAR 53be
ENCODING 21438
SWIDTH 962 0
DWIDTH 26 0
BBX 26 27 0 -1
BITMAP
00000000
00006000
3ffff000
00006000
00806000
00e06000
00c06000
00c86000
0ffc6000
00c06000
00c06000
00c66000
3fff6000
00806000
00e06000
01806200
03106200
060c3200
08063200
3fff1a00
0f030e00
00020700
00000300
00000000
00000000
00000000
00000000
ENDCHAR
STARTCHAR 53c0
ENCODING 21440
SWIDTH 962 0
DWIDTH 26 0
BBX 26 27 0 -1
BITMAP
00100000
001c0000
00180800
00181c00
7ffffe00
00180000
08183000
0ffff800
0c183000
0c183000
0ffff000
0c183000
0c183000
0ffff000
08402000
00700000
00c10000
01808000
03006000
041ff000
1ff83800
0f801800
02001000
00000000
00000000
00000000
00000000
ENDCHAR
STARTCHAR 53c4
ENCODING 21444
SWIDTH 962 0
DWIDTH 26 0
BBX 26 27 0 -1
BITMAP
00200000
00380000
00600000
01808000
02006000
0ffff000
04013000
06018000
0c832000
08421000
3feff800
18381800
00e70000
0381e000
1c007f00
e0019800
07ffc000
00000000
00030000
03ff8000
00000000
00001800
7ffffc00
00000000
00000000
00000000
00000000
ENDCHAR
STARTCHAR 53c5
ENCODING 21445
SWIDTH 962 0
DWIDTH 26 0
BBX 26 27 0 -1
BITMAP
00400000
00700000
00c00000
01808000
02006000
0ffff000
04013000
06018000
0c832000
10441000
3feff800
18381800
00e70000
0391e000
1c1c7f00
e0181800
02190000
02189000
0618c800
0e18cc00
0c18cc00
18f88800
00300000
00200000
00000000
00000000
00000000
ENDCHAR
STARTCHAR 53c6
ENCODING 21446
SWIDTH 962 0
DWIDTH 26 0
BBX 26 27 0 -1
BITMAP
00000000
00003000
0001f800
013f8000
7f801000
00121c00
00091800
000db000
00252400
013ffe00
ffa40c00
10670800
1c060000
183ffc00
10060000
31043000
208ff800
20cc3000
47da3000
f8996000
6030c000
00637000
00861f00
00180800
00000000
00000000
00000000
ENDCHAR
STARTCHAR 53c7
ENCODING 21447
SWIDTH 962 0
DWIDTH 26 0
BBX 26 27 0 -1
BITMAP
00008000
0000e000
0080c000
0260cc00
7f37fe00
0020cc00
0000cd00
000fff00
0200cc00
ff20cc00
11f7fc00
1830c800
1834ce00
3032d800
3032e000
3231d800
2336cc00
61bcc600
5fb0c400
f133c000
40ec8000
0387ff00
0101f800
00000000
00000000
00000000
00000000
ENDCHAR
STARTCHAR 53ce
ENCODING 21454
SWIDTH 962 0
DWIDTH 26 0
BBX 26 27 0 -1
BITMAP
01000000
01c00000
01800000
01800000
21803000
39bff800
31843000
31843000
31843000
31843000
31843000
31843000
31826000
31826000
33826000
7d81c000
3181c000
21818000
01834000
01866000
018c3800
01981e00
01a00800
01000000
00000000
00000000
00000000
ENDCHAR
STARTCHAR 53cf
ENCODING 21455
SWIDTH 962 0
DWIDTH 26 0
BBX 26 27 0 -1
BITMAP
00200000
00380000
00300000
00300000
0030c000
1fffe000
0030c000
0030c000
0030c000
0030cc00
7ffffe00
00300000
00300000
0030c000
1fffe000
0100c000
00818000
00c30000
00660000
003c0000
003f0000
00e3e000
0f00fe00
70003000
00000000
00000000
00000000
ENDCHAR
STARTCHAR 53d0
ENCODING 21456
SWIDTH 962 0
DWIDTH 26 0
BBX 26 27 0 -1
BITMAP
00000000
0003c000
003ff000
7ff00000
00600000
00600000
00600c00
fffffe00
00c00000
00c00000
0180c000
01ffe000
01a0c000
0320c000
03118000
06118000
06130000
0c0b0000
0c0e0000
181b0000
2031c000
40c07e00
03003000
0c000000
00000000
00000000
00000000
ENDCHAR
STARTCHAR 53d2
ENCODING 21458
SWIDTH 962 0
DWIDTH 26 0
BBX 26 27 0 -1
BITMAP
00000000
0000c000
0fffe000
0000c000
07018000
00e30000
003e0000
003f0000
00e1c000
0700e000
38007000
00402400
7feffe00
00620c00
00620c00
18c31800
06c11800
0381b000
06c0e000
0c61a000
18333000
30261c00
60180f00
80600400
00000000
00000000
00000000
ENDCHAR
STARTCHAR 53d3
ENCODING 21459
SWIDTH 962 0
DWIDTH 26 0
BBX 26 27 0 -1
BITMAP
00100000
001c0000
00180000
00180c00
7ffffe00
00180000
10181800
1ffffc00
18181800
18181800
18181800
1ffff800
10180000
00186000
1ffff000
01006000
0080c000
00c18000
00730000
003e0000
00770000
01c3e000
0f00fe00
70003000
00000000
00000000
00000000
ENDCHAR
STARTCHAR 53d5
ENCODING 21461
SWIDTH 962 0
DWIDTH 26 0
BBX 26 27 0 -1
BITMAP
00000000
00c03000
7feff800
00c03000
30cc3000
0d836000
0701c000
0ec36000
18663000
20343000
40282000
00101000
3ffff800
00643000
00643000
18c66000
06c26000
0381c000
06c1c000
06636000
0c363800
182c1f00
20100800
40200000
00000000
00000000
00000000
ENDCHAR
STARTCHAR 53da
ENCODING 21466
SWIDTH 962 0
DWIDTH 26 0
BBX 26 27 0 -1
BITMAP
00000000
20c03000
3feff800
30c03000
30c03000
30c03000
30c03000
30c03000
3fcff000
30002000
30000000
31003000
3fbff800
30083000
30083000
30046000
30846000
3fc6c000
30038000
3006c000
300c7000
30183e00
30601000
21800000
00000000
00000000
00000000
ENDCHAR
STARTCHAR 53dc
ENCODING 21468
SWIDTH 962 0
DWIDTH 26 0
BBX 26 27 0 -1
BITMAP
00180000
000c0000
08080c00
0ffffe00
18100c00
301c1000
01188000
0118e000
03198000
07360000
0c61c000
00c07000
03001800
1c00c800
0fffe000
0100c000
00818000
00630000
00360000
001c0000
00730000
01c1e000
0e007f00
70001800
00000000
00000000
00000000
ENDCHAR
STARTCHAR 53dd
ENCODING 21469
SWIDTH 962 0
DWIDTH 26 0
BBX 26 27 0 -1
BITMAP
00000000
04081800
070ffc00
060c1800
060c1800
068c1800
7fccf800
060c3000
060c2000
064c0800
ffeffc00
080d1800
0e0d1800
0c0d1800
190cb000
188cb000
30cc6000
23ec6000
7e6cd000
304cd800
000d9e00
000d0800
000e0000
00080000
00000000
00000000
00000000
ENDCHAR
STARTCHAR 53de
ENCODING 21470
SWIDTH 962 0
DWIDTH 26 0
BBX 26 27 0 -1
BITMAP
00000000
20180000
3ffc0000
30180c00
301ffe00
301a0c00
3ffa0c00
30120c00
30020c00
30221800
37f11800
30011800
30193000
3ffd3000
30c1e000
34d0c000
36c8e000
6ccda000
68c9b000
50c31800
40c61c00
8fcc0f00
81900400
00200000
00000000
00000000
00000000
ENDCHAR
STARTCHAR 53e7
ENCODING 21479
SWIDTH 962 0
DWIDTH 26 0
BBX 26 27 0 -1
BITMAP
00000000
0400c000
07ffe000
0600c000
0600c000
0600c000
0600c000
0600c000
07ffc000
06008000
04000000
00003000
3ffff800
00603000
00603000
00603000
00c03000
00c03000
01803000
03003000
06006000
180fe000
6001c000
80008000
00000000
00000000
00000000
ENDCHAR
STARTCHAR 53f4
ENCODING 21492
SWIDTH 962 0
DWIDTH 26 0
BBX 26 27 0 -1
BITMAP
00800000
00e00000
00c00000
00c18000
3fffc000
00c18000
00c18000
01818200
01818200
03018200
06018300
0c01ff00
3000fe00
80000000
08003000
0ffff800
0c003000
0c003000
0c003000
0c003000
0ffff000
0c003000
0c002000
08000000
00000000
00000000
00000000
ENDCHAR
STARTCHAR 53fa
ENCODING 21498
SWIDTH 962 0
DWIDTH 26 0
BBX 26 27 0 -1
BITMAP
00000000
00000000
00380000
218f8000
3fc70000
31860000
31830000
31830000
31818000
31838000
31838000
3186c000
3186c000
31864000
3f8c6000
310c6000
30186000
20183000
00303000
00601800
00c01c00
03800f00
0e000400
00000000
00000000
00000000
00000000
ENDCHAR
STARTCHAR 53fe
ENCODING 21502
SWIDTH 962 0
DWIDTH 26 0
BBX 26 27 0 -1
BITMAP
00003000
1ffff800
00006000
00098000
000e0000
000c0000
000c0000
000c0000
000c0000
000c0000
01fc0000
00180000
00100000
04006000
07fff000
06006000
06006000
06006000
06006000
06006000
06006000
07ffe000
06006000
04004000
00000000
00000000
00000000
ENDCHAR
STARTCHAR 53ff
ENCODING 21503
SWIDTH 962 0
DWIDTH 26 0
BBX 26 27 0 -1
BITMAP
00000000
00000000
00001800
007ffc00
43030000
7f830000
63030000
63030000
63030000
63030000
63030000
63030000
63030000
63030000
63030000
63030000
7f030000
63030000
62030000
40030000
00030600
07ffff00
00000000
00000000
00000000
00000000
00000000
ENDCHAR
STARTCHAR 5400
ENCODING 21504
SWIDTH 962 0
DWIDTH 26 0
BBX 26 27 0 -1
BITMAP
00001000
00003800
0001fc00
233f8000
3f818000
33018000
33018000
33018000
33018000
33018600
337fff00
33018000
33018000
33018000
33018000
3f018000
33018000
32018000
20018000
00018000
00018000
00018000
00018000
00010000
00000000
00000000
00000000
ENDCHAR
STARTCHAR 5402
ENCODING 21506
SWIDTH 962 0
DWIDTH 26 0
BBX 26 27 0 -1
BITMAP
00000000
00300000
001c0000
000c0000
00080c00
fffffe00
0c000000
0c000000
0c000000
0c003000
1ffff800
0c000000
00000000
04001800
07fffc00
06001800
06001800
06001800
06001800
06001800
07fff800
06001800
06001000
04000000
00000000
00000000
00000000
ENDCHAR
STARTCHAR 5405
ENCODING 21509
SWIDTH 962 0
DWIDTH 26 0
BBX 26 27 0 -1
BITMAP
00000000
00000000
00000000
10640c00
1ff7fe00
18660c00
18660c00
18660c00
18660c00
18660c00
18660c00
18660c00
18660c00
18660c00
18660c00
18660c00
18660c00
18660c00
18660c00
1fe7fc00
18660c00
18460800
10040000
00000000
00000000
00000000
00000000
ENDCHAR
STARTCHAR 5414
ENCODING 21524
SWIDTH 962 0
DWIDTH 26 0
BBX 26 27 0 -1
BITMAP
00010000
0001c000
00018000
00118000
231d8000
3f998c00
3319be00
3319ec00
331f8c00
33198c00
33f98c00
33198c00
33198c00
33198c00
3319bc00
33199800
3f199000
33198000
32190200
20180200
00180200
001fff00
000ffe00
00000000
00000000
00000000
00000000
ENDCHAR
STARTCHAR 541a
ENCODING 21530
SWIDTH 962 0
DWIDTH 26 0
BBX 26 27 0 -1
BITMAP
00000000
00003000
007ff800
23063000
3f863000
33063000
33063000
33063200
33ffff00
33063000
33063000
33063000
33063000
33063000
3f7ff000
33062000
32060000
300c0000
200c0000
00180000
00300000
00600000
00c00000
01000000
00000000
00000000
00000000
ENDCHAR
STARTCHAR 5422
ENCODING 21538
SWIDTH 962 0
DWIDTH 26 0
BBX 26 27 0 -1
BITMAP
00000000
00100000
000c0000
01060000
01c70800
09820400
09800600
19802300
19802300
39802200
31803000
01fff000
00ffe000
00000000
02003000
03fff800
03003000
03003000
03003000
03003000
03003000
03fff000
03003000
02002000
00000000
00000000
00000000
ENDCHAR
STARTCHAR 543a
ENCODING 21562
SWIDTH 962 0
DWIDTH 26 0
BBX 26 27 0 -1
BITMAP
00000000
00106000
001ff000
43186000
7f986000
63186000
63186000
63186000
63307c00
63603f00
63800000
637ff800
63103000
63103000
63086000
7f0c6000
6306c000
62038000
4006c000
000c6000
00183800
00601f00
01800800
06000000
00000000
00000000
00000000
ENDCHAR
STARTCHAR 543f
ENCODING 21567
SWIDTH 962 0
DWIDTH 26 0
BBX 26 27 0 -1
BITMAP
00100000
041c0000
07180000
06180000
0c186000
0ffff000
18180000
30180000
40180000
00180c00
7ffffe00
00180000
00180000
00100000
04003000
07fff800
06003000
06003000
06003000
06003000
06003000
07fff000
06003000
04000000
00000000
00000000
00000000
ENDCHAR
STARTCHAR 5444
ENCODING 21572
SWIDTH 962 0
DWIDTH 26 0
BBX 26 27 0 -1
BITMAP
0000c000
3fffe000
00c18000
00c18000
00c30c00
0187fe00
01820c00
03000c00
06101800
0c1df800
30183000
c0180400
7ffffe00
00180000
00180000
04186000
07fff000
06006000
06006000
06006000
06006000
07ffe000
06006000
04004000
00000000
00000000
00000000
ENDCHAR
STARTCHAR 5449
ENCODING 21577
SWIDTH 962 0
DWIDTH 26 0
BBX 26 27 0 -1
BITMAP
00000000
0080c000
00ffe000
08c0c000
0ec0c000
0cc0c000
0cc0c000
0cc0c000
0cffc000
0cc0c000
0c800000
0c006000
1ffff000
0c006000
00006000
00006c00
7ffffe00
01000000
01c18000
03806000
06003000
0c003800
30001800
40001000
00000000
00000000
00000000
ENDCHAR
STARTCHAR 544c
ENCODING 21580
SWIDTH 962 0
DWIDTH 26 0
BBX 26 27 0 -1
BITMAP
00002000
00003800
00303000
230c3000
3f863000
33033000
33023000
33003000
33303000
330c3000
33063000
33033000
33023600
33003f00
3307f000
3f7c3000
33003000
32003000
20003000
00003000
00003000
00003000
00003000
00002000
00000000
00000000
00000000
ENDCHAR
STARTCHAR 544d
ENCODING 21581
SWIDTH 962 0
DWIDTH 26 0
BBX 26 27 0 -1
BITMAP
00000000
00000000
00003000
231ff800
3f800000
33000000
33000000
33000000
33000000
33000c00
337ffe00
33020000
33038000
33030000
33060000
3f062000
330c1000
32181800
20180c00
0031fe00
007f8600
00380600
00100400
00000000
00000000
00000000
00000000
ENDCHAR
STARTCHAR 5451
ENCODING 21585
SWIDTH 962 0
DWIDTH 26 0
BBX 26 27 0 -1
BITMAP
00018000
0003c000
001fe000
0ff80000
00300000
00300000
00601800
7ffffc00
00c20000
01810000
03018000
0600c000
0c007000
1bfffe00
6300d800
8300c000
0300c000
0300c000
0300c000
0300c000
03ffc000
0300c000
03008000
02000000
00000000
00000000
00000000
ENDCHAR
STARTCHAR 545a
ENCODING 21594
SWIDTH 962 0
DWIDTH 26 0
BBX 26 27 0 -1
BITMAP
00040000
00070000
00060000
23060000
3f8c0000
330c0c00
331ffe00
33183000
33383000
33683000
33483000
33843000
33046000
33046000
3302c000
3f03c000
33018000
32038000
20034000
00066000
000c3800
00181f00
00600800
01800000
00000000
00000000
00000000
ENDCHAR
STARTCHAR 545d
ENCODING 21597
SWIDTH 962 0
DWIDTH 26 0
BBX 26 27 0 -1
BITMAP
00040000
00030000
00018000
46410c00
7f7ffe00
66600c00
66600c00
66600c00
667ffc00
66600800
66600000
66603000
666ff800
66607000
66606000
7e60c000
66618000
64c30000
40c60200
018c0200
018c0300
030fff00
0407fe00
08000000
00000000
00000000
00000000
ENDCHAR
STARTCHAR 545e
ENCODING 21598
SWIDTH 962 0
DWIDTH 26 0
BBX 26 27 0 -1
BITMAP
00000000
00000c00
003ffe00
23000c00
3f800c00
33018c00
337fcc00
33000c00
33000c00
33218c00
333fcc00
33318c00
33318c00
33318c00
3f318c00
33318c00
323f8c00
20318c00
00310c00
00200c00
00000c00
0001fc00
00003800
00001000
00000000
00000000
00000000
ENDCHAR
STARTCHAR 545f
ENCODING 21599
SWIDTH 962 0
DWIDTH 26 0
BBX 26 27 0 -1
BITMAP
00040000
00020000
00030000
23018000
3f810c00
337ffe00
33020000
33038000
33030000
33061000
330c1c00
33081800
33103000
337fe000
3f1cc000
33018000
33030000
32062000
200c1800
00180c00
0021fe00
00ff0600
00380600
00000400
00000000
00000000
00000000
ENDCHAR
STARTCHAR 5469
ENCODING 21609
SWIDTH 962 0
DWIDTH 26 0
BBX 26 27 0 -1
BITMAP
00000000
00003000
001ff800
43000000
7f800000
63000000
63000000
63000c00
637ffe00
63018000
63018000
63118000
631da000
63199000
63198800
7f318c00
63318e00
62618600
40418600
00818400
01018000
001f8000
00030000
00020000
00000000
00000000
00000000
ENDCHAR
STARTCHAR 546a
ENCODING 21610
SWIDTH 962 0
DWIDTH 26 0
BBX 26 27 0 -1
BITMAP
00000000
00000000
00201800
233ffc00
3fb01800
33301800
33301800
33301800
33301800
33301800
33301800
333ff800
330cd000
330cc000
3f0cc000
330cc000
3218c000
3018c200
2030c200
0030c200
0060c300
00c0ff00
01807e00
02000000
00000000
00000000
00000000
ENDCHAR
STARTCHAR 546d
ENCODING 21613
SWIDTH 962 0
DWIDTH 26 0
BBX 26 27 0 -1
BITMAP
00001000
00011c00
00119800
431d9800
7f999800
63199800
63199800
63199800
63199a00
63ffff00
63199800
63199800
63199800
63199800
63199800
7f19f800
63199000
62190000
40180000
00180000
00180600
003fff00
00100000
00000000
00000000
00000000
00000000
ENDCHAR
STARTCHAR 546e
ENCODING 21614
SWIDTH 962 0
DWIDTH 26 0
BBX 26 27 0 -1
BITMAP
00000000
00201800
003ffc00
23301800
3fb01800
33301800
33301800
33301800
33301800
33301800
33301800
33301800
333ff800
33301800
3f201000
33000000
32084000
300e3000
20181800
00300c00
00600e00
00c00600
03000400
04000000
00000000
00000000
00000000
ENDCHAR
STARTCHAR 5479
ENCODING 21625
SWIDTH 962 0
DWIDTH 26 0
BBX 26 27 0 -1
BITMAP
00020000
00038000
00230000
433b0000
7fb30000
63333000
633ff800
63630000
63430000
63830000
63030000
63030c00
63fffe00
63068000
63068000
7f06c000
630c4000
620c6000
40186000
00303000
00603800
00c01f00
03000800
08000000
00000000
00000000
00000000
ENDCHAR
STARTCHAR 5483
ENCODING 21635
SWIDTH 962 0
DWIDTH 26 0
BBX 26 27 0 -1
BITMAP
00200000
00388000
0030e000
4430c000
7e64c000
6666c000
66e4cc00
66e4fe00
6764cc00
6667cc00
667ecc00
6664cc00
6664cc00
6664cc00
6664cc00
6664fc00
7e64c800
6664c000
64648200
40640200
00640200
0067ff00
0063fe00
00400000
00000000
00000000
00000000
ENDCHAR
STARTCHAR 5485
ENCODING 21637
SWIDTH 962 0
DWIDTH 26 0
BBX 26 27 0 -1
BITMAP
00200000
00180000
000c0000
00083000
1ffff800
02004000
01007000
0180c000
00c18000
00810600
ffffff00
00000000
00000000
02006000
03fff000
03006000
03006000
03006000
03006000
03006000
03ffe000
03006000
03004000
02000000
00000000
00000000
00000000
ENDCHAR
STARTCHAR 5489
ENCODING 21641
SWIDTH 962 0
DWIDTH 26 0
BBX 26 27 0 -1
BITMAP
00010000
0001c000
00018000
43018000
7f919800
631ffc00
63199800
63199800
63199800
63199800
63199800
63199800
63199a00
63ffff00
7f034000
63034000
62066000
40062000
000c3000
00181800
00301c00
00600f00
01800400
04000000
00000000
00000000
00000000
ENDCHAR
STARTCHAR 548a
ENCODING 21642
SWIDTH 962 0
DWIDTH 26 0
BBX 26 27 0 -1
BITMAP
00002000
00007000
0003f800
233f8000
3f830000
33030000
33030000
33030c00
33fffe00
33070000
330f8000
330f4000
331b6000
331b2000
3f333000
33331800
32631c00
20c30f00
01030400
02030000
00030000
00030000
00030000
00020000
00000000
00000000
00000000
ENDCHAR
STARTCHAR 5493
ENCODING 21651
SWIDTH 962 0
DWIDTH 26 0
BBX 26 27 0 -1
BITMAP
00000000
00001800
00fffc00
23180000
3f980000
33180000
33186000
331ff000
33186000
33186000
33186000
33186000
331c6000
331a6000
33336000
3f326000
33306000
32306400
2030e400
00336400
00366600
00787e00
00303c00
00000000
00000000
00000000
00000000
ENDCHAR
STARTCHAR 5497
ENCODING 21655
SWIDTH 962 0
DWIDTH 26 0
BBX 26 27 0 -1
BITMAP
00020000
00038000
00030000
00030000
42030c00
7f7ffe00
63060000
63060000
63060000
630c0000
630c1800
630ffc00
6318c000
6318c000
6330c000
6330c000
7f60c000
6260c000
40c0c000
0180c000
0300c600
043fff00
08000000
00000000
00000000
00000000
00000000
ENDCHAR
STARTCHAR 549c
ENCODING 21660
SWIDTH 962 0
DWIDTH 26 0
BBX 26 27 0 -1
BITMAP
00040000
00020000
00030000
00018000
22210c00
3f3ffe00
33600c00
33600800
33481000
330e0000
330c2000
330c3800
330c6000
330cc000
330f0000
3f0c0000
330c0000
320c0400
200c0400
000c0400
000c0600
000ffe00
0007fc00
00000000
00000000
00000000
00000000
ENDCHAR
STARTCHAR 549e
ENCODING 21662
SWIDTH 962 0
DWIDTH 26 0
BBX 26 27 0 -1
BITMAP
00000000
00000800
00fcfc00
46303000
7f303000
66303000
66303000
66303000
66303000
66303000
66303200
66fdff00
66303000
66303000
66303000
7e303000
66603000
64603000
40c03000
00c03000
01803000
03003000
06003000
08002000
00000000
00000000
00000000
ENDCHAR
STARTCHAR 549f
ENCODING 21663
SWIDTH 962 0
DWIDTH 26 0
BBX 26 27 0 -1
BITMAP
00000000
00000600
003fff00
2180c000
3fc0c000
31818000
31818000
31890c00
318ffe00
318c0c00
318c0c00
318c0c00
318c0c00
318c0c00
318ffc00
3f8c0c00
318c0c00
310c0c00
200c0c00
000c0c00
000ffc00
000c0c00
000c0800
00080000
00000000
00000000
00000000
ENDCHAR
STARTCHAR 54b2
ENCODING 21682
SWIDTH 962 0
DWIDTH 26 0
BBX 26 27 0 -1
BITMAP
00004000
00607000
00306000
4618c000
7f108000
66013000
66fff800
66060000
66060000
66060000
66060000
66060c00
67fffe00
660d0000
7e0d8000
66188000
6418c000
40304000
00306000
00603000
00c03c00
01801f00
06000800
08000000
00000000
00000000
00000000
ENDCHAR
STARTCHAR 54b5
ENCODING 21685
SWIDTH 962 0
DWIDTH 26 0
BBX 26 27 0 -1
BITMAP
00040000
00070000
00060000
00061800
42fffc00
7f0c8000
63188000
63184000
63306000
6360b800
635fde00
63800800
63003000
637ff800
630c0000
7f183000
633ff800
62103000
40003000
00003000
00006000
000fc000
00018000
00010000
00000000
00000000
00000000
ENDCHAR
STARTCHAR 54b9
ENCODING 21689
SWIDTH 962 0
DWIDTH 26 0
BBX 26 27 0 -1
BITMAP
00080000
00060000
00030000
46018000
7f410600
667fff00
66400600
66c40400
67870800
66060000
66060000
660c0c00
66fffe00
660c6000
660c6000
7e186000
6618c000
643cc000
40078000
0006e000
000c3000
00183800
00601800
01001000
00000000
00000000
00000000
ENDCHAR
STARTCHAR 54ca
ENCODING 21706
SWIDTH 962 0
DWIDTH 26 0
BBX 26 27 0 -1
BITMAP
00010000
0001c000
00018000
43030000
7f830600
637fff00
63060000
63060000
630c0c00
630ffe00
631c0c00
631c0c00
632c0c00
634ffc00
7f8c0c00
630c0c00
620c0c00
400ffc00
000c0c00
000c0c00
000c0c00
000cfc00
000c1800
00081000
00000000
00000000
00000000
ENDCHAR
STARTCHAR 54cb
ENCODING 21707
SWIDTH 962 0
DWIDTH 26 0
BBX 26 27 0 -1
BITMAP
00002000
00003800
00203000
00393000
4631f000
7f31b600
6631b700
6631be00
6631f600
66fdb600
6637b600
6631b600
6631b600
6631b600
6631b600
6631a600
66378600
7e399c00
65f18a00
40c18200
00018200
0001ff00
0000fe00
00000000
00000000
00000000
00000000
ENDCHAR
STARTCHAR 54d8
ENCODING 21720
SWIDTH 962 0
DWIDTH 26 0
BBX 26 27 0 -1
BITMAP
00000000
00080000
000e0800
0018fc00
46300000
7f600000
66800000
67080000
660e0000
66180c00
661bfe00
66303000
66703000
66b03000
67303000
7e303000
66303000
64303000
40303000
00303000
00303000
0033f000
00306000
00204000
00000000
00000000
00000000
ENDCHAR
STARTCHAR 54db
ENCODING 21723
SWIDTH 962 0
DWIDTH 26 0
BBX 26 27 0 -1
BITMAP
00080000
000e0000
20cc2000
3fec7800
30cce000
30cd8400
30ce0400
30cc0400
3fcffe00
3087fc00
21020000
01810000
03018000
0600c000
0c007000
37ffbf00
c0c19800
00c18000
01818000
01818000
033f8000
06030000
18020000
00000000
00000000
00000000
00000000
ENDCHAR
STARTCHAR 54e3
ENCODING 21731
SWIDTH 962 0
DWIDTH 26 0
BBX 26 27 0 -1
BITMAP
00000000
00001800
007ffc00
00000000
46000000
7f201800
663ffc00
66301800
66301800
66301800
66301800
66301800
663ff800
66200000
66001000
7e301c00
66181800
640c3000
400c3000
00086000
00004600
01ffff00
00000000
00000000
00000000
00000000
00000000
ENDCHAR
STARTCHAR 54ec
ENCODING 21740
SWIDTH 962 0
DWIDTH 26 0
BBX 26 27 0 -1
BITMAP
00200000
00380000
46300600
7f6fff00
66600c00
66600c00
66e00c00
66e4cc00
6767ec00
6664cc00
6664cc00
6664cc00
6664cc00
6664cc00
7e64cc00
6667cc00
64648c00
40640c00
00600c00
00600c00
00600c00
0060fc00
00601800
00401000
00000000
00000000
00000000
ENDCHAR
STARTCHAR 54ef
ENCODING 21743
SWIDTH 962 0
DWIDTH 26 0
BBX 26 27 0 -1
BITMAP
00000000
00101800
001ffc00
43181800
7f981800
63181800
631ff800
63181800
63181800
63181800
631ff800
63181800
63181800
63181800
7f1ff800
63066000
62066000
400c6200
000c6200
00186200
00306300
00607f00
01803e00
02000000
00000000
00000000
00000000
ENDCHAR
STARTCHAR 54f0
ENCODING 21744
SWIDTH 962 0
DWIDTH 26 0
BBX 26 27 0 -1
BITMAP
00060000
00030000
00018000
8c410c00
fe7ffe00
ccc00c00
cd820800
cc238000
cc3b0000
cc330000
cc633000
cc7ff800
ccc30000
cc830000
fd030c00
cdfffe00
cc030000
c8030000
80030000
00030000
00030000
00030000
00030000
00020000
00000000
00000000
00000000
ENDCHAR
STARTCHAR 54f4
ENCODING 21748
SWIDTH 962 0
DWIDTH 26 0
BBX 26 27 0 -1
BITMAP
00030000
00018000
00018000
00211800
433ffc00
7fb01800
63301800
63301800
633ff800
63301800
63301800
63301800
633ff800
63320000
63320800
7f310e00
63319800
6230a000
4030c000
00316000
00363800
003c1f00
00700800
00200000
00000000
00000000
00000000
ENDCHAR
STARTCHAR 54f5
ENCODING 21749
SWIDTH 962 0
DWIDTH 26 0
BBX 26 27 0 -1
BITMAP
00000800
00000e00
00860c00
8cff0c00
fec60c00
ccc64c00
ccc66c00
ccfe4c00
cc844c00
cc404c00
cc704c00
cc664c00
cfff4c00
cc664c00
fc664c00
cc664c00
c8c64c00
80c64c00
01864c00
01860c00
030e0c00
067cfc00
08183800
10101000
00000000
00000000
00000000
ENDCHAR
STARTCHAR 54f6
ENCODING 21750
SWIDTH 962 0
DWIDTH 26 0
BBX 26 27 0 -1
BITMAP
00088000
000ee000
000cc000
000ccc00
46fcfe00
7f0cc000
660cc000
660cc000
66088000
66003000
667ff800
66030000
66030000
66030000
66030c00
7efffe00
66030000
64030000
40030000
00030000
00030000
00030000
00030000
00020000
00000000
00000000
00000000
ENDCHAR
STARTCHAR 54f9
ENCODING 21753
SWIDTH 962 0
DWIDTH 26 0
BBX 26 27 0 -1
BITMAP
00002000
00007000
0003fc00
437f0000
7f801000
63221c00
63331800
6319b000
63112000
63005000
633ff800
63003000
63006000
63018000
7f018600
62ffff00
60018000
40018000
00018000
00018000
00018000
001f8000
00030000
00020000
00000000
00000000
00000000
ENDCHAR
STARTCHAR 54fe
ENCODING 21758
SWIDTH 962 0
DWIDTH 26 0
BBX 26 27 0 -1
BITMAP
00002000
00303800
00183000
430c6000
7f884000
63209000
633ff800
63303000
63303000
63303000
63303000
63303000
63303000
633ff000
630cc000
7f0cc000
630cc000
6218c400
4018c400
0030c400
0060c600
00c0fe00
01807c00
02000000
00000000
00000000
00000000
ENDCHAR
STARTCHAR 5500
ENCODING 21760
SWIDTH 962 0
DWIDTH 26 0
BBX 26 27 0 -1
BITMAP
00004000
0000e000
0007f800
007f0000
46030000
7f031800
66fffc00
660f4000
661b3000
66631c00
67830f00
66026400
667ff000
660c6000
660c6000
7e0ccc00
6619fe00
64188c00
40300c00
00300c00
00601c00
00c1f800
03003000
08002000
00000000
00000000
00000000
ENDCHAR
STARTCHAR 5502
ENCODING 21762
SWIDTH 962 0
DWIDTH 26 0
BBX 26 27 0 -1
BITMAP
00000000
00104000
001c3000
46181800
7f300c00
66620c00
66838800
66070000
66068000
660c6000
66183800
66301f00
66c00800
67203000
7e3ff800
66303000
64303000
60303000
40303000
00303000
003ff000
00303000
00302000
00200000
00000000
00000000
00000000
ENDCHAR
STARTCHAR 550d
ENCODING 21773
SWIDTH 962 0
DWIDTH 26 0
BBX 26 27 0 -1
BITMAP
00000000
00060000
00030000
44018000
7e410600
667fff00
66c00600
66c00400
66803000
663ff800
66000000
66000000
66000c00
66fffe00
660c6000
7e0c6000
660c6000
64186200
40186200
00306200
00606300
00c07f00
03003e00
0c000000
00000000
00000000
00000000
ENDCHAR
STARTCHAR 5513
ENCODING 21779
SWIDTH 962 0
DWIDTH 26 0
BBX 26 27 0 -1
BITMAP
00020000
00038000
00030000
44031800
7efffc00
66030000
66431800
667ffc00
66631800
66631800
667ff800
66631800
66631800
667ff800
7e631800
66431000
64030600
43ffff00
00030000
00030000
00030000
00030000
00030000
00020000
00000000
00000000
00000000
ENDCHAR
STARTCHAR 5515
ENCODING 21781
SWIDTH 962 0
DWIDTH 26 0
BBX 26 27 0 -1
BITMAP
00020000
00038000
00060000
46241800
7f3ffc00
66301800
66301800
66301800
663ff800
66301800
66301800
66301800
663ff800
66221000
66038000
7e030c00
65fffe00
60030000
40030000
00030000
00030000
00030000
00030000
00020000
00000000
00000000
00000000
ENDCHAR
STARTCHAR 5516
ENCODING 21782
SWIDTH 962 0
DWIDTH 26 0
BBX 26 27 0 -1
BITMAP
00000000
00000000
00001800
44fffc00
7e0cc000
640cc000
640cc000
648ccc00
64fffe00
64cccc00
64cccc00
64cccc00
64cccc00
64cccc00
64cccc00
64cccc00
7cfffc00
64cccc00
648cc800
400cc000
000cc000
000ccc00
03fffe00
00000000
00000000
00000000
00000000
ENDCHAR
STARTCHAR 5518
ENCODING 21784
SWIDTH 962 0
DWIDTH 26 0
BBX 26 27 0 -1
BITMAP
00401800
7feffc00
06041800
0c041800
0c023000
18623000
3ff36000
5861c000
9861c000
18636000
18663800
1fe81e00
10500800
04006000
07fff000
06006000
06006000
06006000
06006000
06006000
07ffe000
06006000
06004000
04000000
00000000
00000000
00000000
ENDCHAR
STARTCHAR 5519
ENCODING 21785
SWIDTH 962 0
DWIDTH 26 0
BBX 26 27 0 -1
BITMAP
00004000
01007000
00846000
00c76000
8c6c6000
fe306000
cc706000
cc706400
ccb16700
cd316c00
ce336800
cc337000
cc366000
cc706000
cc707000
fcb0d000
cdb0d000
c9319000
82319800
04331800
00660c00
03ec0f00
00d80400
00a00000
00000000
00000000
00000000
ENDCHAR
STARTCHAR 551c
ENCODING 21788
SWIDTH 962 0
DWIDTH 26 0
BBX 26 27 0 -1
BITMAP
00100000
001c0000
00180000
00180c00
7ffffe00
00180000
00183000
1ffff800
007c0000
00db0000
01998000
0618e000
18187e00
60102000
10640000
1ff72000
18663800
18666000
18678400
18660400
1fe60600
1867fe00
1043fc00
00000000
00000000
00000000
00000000
ENDCHAR
STARTCHAR 551d
ENCODING 21789
SWIDTH 962 0
DWIDTH 26 0
BBX 26 27 0 -1
BITMAP
00000000
00001800
003ffc00
00018000
23018000
3f818000
33018c00
337ffe00
33000000
33200c00
333ffe00
33300c00
33310c00
3331cc00
33318c00
33318c00
3f318c00
33338c00
32236800
20063000
000c1800
00180c00
00600800
01800000
00000000
00000000
00000000
ENDCHAR
STARTCHAR 551e
ENCODING 21790
SWIDTH 962 0
DWIDTH 26 0
BBX 26 27 0 -1
BITMAP
00201000
00381c00
00301800
00321800
88319800
fdfcd800
cc309800
cc301800
cc301800
cc321800
cc359800
cc38d800
ccf09800
cfb01a00
cd301f00
cc31f800
fc3f1800
cc301800
c8301800
80301800
00301800
03f01800
00601800
00401000
00000000
00000000
00000000
ENDCHAR
STARTCHAR 551f
ENCODING 21791
SWIDTH 962 0
DWIDTH 26 0
BBX 26 27 0 -1
BITMAP
00100000
001c0000
00183000
1ffff800
00180000
00180c00
7ffffe00
00200000
00788000
01c06000
06003000
1ffff800
0e001800
00041000
10670000
1ff61800
18663c00
18666000
18678400
18660400
18660600
1fe7fe00
1043fc00
00000000
00000000
00000000
00000000
ENDCHAR
STARTCHAR 5521
ENCODING 21793
SWIDTH 962 0
DWIDTH 26 0
BBX 26 27 0 -1
BITMAP
00000000
00000600
237fff00
3f866000
33066000
33066000
33466600
337fff00
33666600
33666600
33666600
336f6600
336df600
3f695e00
3378ce00
33708e00
22610600
20600600
00600600
00600600
00600600
00607e00
00601c00
00400800
00000000
00000000
00000000
ENDCHAR
STARTCHAR 5525
ENCODING 21797
SWIDTH 962 0
DWIDTH 26 0
BBX 26 27 0 -1
BITMAP
00008000
0300e000
0180c000
00c1c000
8c61a000
fe43a000
cc033000
cc261800
cc2c1c00
cc298f00
cc50c400
cc606000
cc404000
ccc00c00
cfcffe00
ccc00c00
fcc01800
ccc43000
88c36000
00c0c000
00c07000
00c03800
00801800
00001000
00000000
00000000
00000000
ENDCHAR
STARTCHAR 5528
ENCODING 21800
SWIDTH 962 0
DWIDTH 26 0
BBX 26 27 0 -1
BITMAP
00000000
00880000
44fc8c00
7ecdfe00
64cd8c00
64cd8c00
64d98c00
64d98c00
64d18c00
64e1fc00
64d18c00
64c98c00
64cd8c00
64cd8c00
7ccd8c00
64cdfc00
64fd8c00
60d98c00
40d18c00
00c18c00
00c18c00
00c7ff00
00c00000
00800000
00000000
00000000
00000000
ENDCHAR
STARTCHAR 5529
ENCODING 21801
SWIDTH 962 0
DWIDTH 26 0
BBX 26 27 0 -1
BITMAP
00000000
00007000
0003f800
467f0000
7f030000
66030c00
66fffe00
660f8000
661b6000
66333800
66631e00
668a0800
670e0000
660c0c00
67fffe00
7e186000
66186000
6430c000
407d8000
0007c000
000e7000
00383800
00e01800
07001000
00000000
00000000
00000000
ENDCHAR
STARTCHAR 552b
ENCODING 21803
SWIDTH 962 0
DWIDTH 26 0
BBX 26 27 0 -1
BITMAP
00020000
00038000
00030000
46078000
7f068000
660c4000
66186000
66303800
66c01f00
67002800
667ff000
66030000
66030000
66031800
66fffc00
7e030000
66031000
64631c00
40333000
001b6000
00134000
00030c00
03fffe00
00000000
00000000
00000000
00000000
ENDCHAR
STARTCHAR 553a
ENCODING 21818
SWIDTH 962 0
DWIDTH 26 0
BBX 26 27 0 -1
BITMAP
00048000
0006c000
00048000
46048000
7f449800
667ffc00
66649800
66649800
66649800
66649800
667ff800
66649800
66649800
66649800
66649800
7e649a00
65ffff00
60000000
40184000
003c3000
00701c00
00c00e00
03000600
0c000200
00000000
00000000
00000000
ENDCHAR
STARTCHAR 553d
ENCODING 21821
SWIDTH 962 0
DWIDTH 26 0
BBX 26 27 0 -1
BITMAP
00000000
00200000
00380c00
8c313e00
fe31e000
cc318000
cc358000
cfff8000
cc318600
cc31ff00
cc719800
cc799800
ccf59800
ccb79800
fdb59800
cd319800
ca319800
84319800
00319800
00331800
00331800
00361800
00341800
00281000
00000000
00000000
00000000
ENDCHAR
STARTCHAR 5542
ENCODING 21826
SWIDTH 962 0
DWIDTH 26 0
BBX 26 27 0 -1
BITMAP
00000000
00062000
001f3800
01f03000
44023000
7f23b000
66933000
66da3000
66923000
66043000
66ff3000
66063000
660c3000
66183000
66193000
7e1e3000
65f83000
60d83100
40183100
00183100
00183100
00f83f00
00301e00
00200000
00000000
00000000
00000000
ENDCHAR
STARTCHAR 5547
ENCODING 21831
SWIDTH 962 0
DWIDTH 26 0
BBX 26 27 0 -1
BITMAP
00200000
00180000
000c0000
00080600
7fffff00
0100c000
00c18000
08411800
0ffffc00
0c101800
0c1c1800
0c199800
0dffd800
0c181800
0c991800
0cff9800
0cc19800
0cc19800
0cff9800
0cc11800
0c801800
0c01f800
0c003000
08002000
00000000
00000000
00000000
ENDCHAR
STARTCHAR 554c
ENCODING 21836
SWIDTH 962 0
DWIDTH 26 0
BBX 26 27 0 -1
BITMAP
00000000
00030000
00018000
4600c000
7f408600
667fff00
66400600
66c84400
678e3000
66181800
66300c00
66600600
66800400
66003000
7e7ff800
66030000
64030000
40030000
00030000
00030000
00030c00
01fffe00
00000000
00000000
00000000
00000000
00000000
ENDCHAR
STARTCHAR 5553
ENCODING 21843
SWIDTH 962 0
DWIDTH 26 0
BBX 26 27 0 -1
BITMAP
08020000
06038000
03030000
12230c00
1ff7fe00
18661800
186c3000
186a3000
18716000
1fe0c000
1861e000
18433800
300c1f00
30300c00
6400c000
47ffe000
8600c000
0600c000
0600c000
0600c000
07ffc000
0600c000
0600c000
04008000
00000000
00000000
00000000
ENDCHAR
STARTCHAR 5554
ENCODING 21844
SWIDTH 962 0
DWIDTH 26 0
BBX 26 27 0 -1
BITMAP
04020000
0303b000
01831800
11231000
1ff30400
1833fe00
183f8000
18318800
18318e00
1ff19800
1820e000
1800e400
1803b400
300e3400
30701c00
6200ce00
63ffe600
4300c000
8300c000
0300c000
0300c000
03ffc000
0300c000
02008000
00000000
00000000
00000000
ENDCHAR
STARTCHAR 5558
ENCODING 21848
SWIDTH 962 0
DWIDTH 26 0
BBX 26 27 0 -1
BITMAP
00020000
00018000
0000c000
46208600
7f3fff00
66600600
66d00400
66188800
6612fc00
663fcc00
6636cc00
6666cc00
6646cc00
66a6cc00
7f36cc00
662cfc00
640cd800
4018c000
0018c200
0030c200
0060c300
00c0ff00
03007e00
0c000000
00000000
00000000
00000000
ENDCHAR
STARTCHAR 5559
ENCODING 21849
SWIDTH 962 0
DWIDTH 26 0
BBX 26 27 0 -1
BITMAP
01040000
01c70000
01861000
11861c00
1d863000
19f6c000
19870000
19860400
19860400
199e0600
1be7fe00
7f03fc00
18000000
10641800
1ff7fc00
18661800
18661800
18661800
18661800
18661800
18661800
1fe7f800
18461000
10040000
00000000
00000000
00000000
ENDCHAR
STARTCHAR 555a
ENCODING 21850
SWIDTH 962 0
DWIDTH 26 0
BBX 26 27 0 -1
BITMAP
00000000
04003000
07fff800
06003000
06003000
06003000
07fff000
06183000
04182000
00180600
ffffff00
00180000
0ffff800
0c001800
0c819800
0cffd800
0cc19800
0cc19800
0cff9800
0c811800
0c001800
0ffff800
0c001800
08001000
00000000
00000000
00000000
ENDCHAR
STARTCHAR 555b
ENCODING 21851
SWIDTH 962 0
DWIDTH 26 0
BBX 26 27 0 -1
BITMAP
00040000
00070000
00061800
00fffc00
46060000
7f063000
667ff800
66063000
66063600
67ffff00
66063000
66063000
667ff000
66062000
660c0c00
7efffe00
66186000
64306000
4078c000
000f8000
000ee000
00383800
01c00c00
0e000800
00000000
00000000
00000000
ENDCHAR
STARTCHAR 555d
ENCODING 21853
SWIDTH 962 0
DWIDTH 26 0
BBX 26 27 0 -1
BITMAP
00000000
00060000
001f0000
00f84600
46187f00
7f186600
66186600
661a6600
66ff6600
66186600
66386600
663c6600
667a6600
665b6600
66da6600
7e986600
65986600
61187e00
42186600
04186400
00184000
00180000
00180000
00100000
00000000
00000000
00000000
ENDCHAR
STARTCHAR 5560
ENCODING 21856
SWIDTH 962 0
DWIDTH 26 0
BBX 26 27 0 -1
BITMAP
01803000
13c47800
1e07c000
18060000
18c61800
1ff7fc00
19866000
19866000
19866000
198c6000
318c6000
31986000
21906000
49204000
0fffe000
0c006000
0c006000
0c006000
0c006000
0c006000
0fffe000
0c006000
08004000
00000000
00000000
00000000
00000000
ENDCHAR
STARTCHAR 5568
ENCODING 21864
SWIDTH 962 0
DWIDTH 26 0
BBX 26 27 0 -1
BITMAP
00010000
0001c000
42018c00
7f7ffe00
63018000
63019000
631ff800
63018000
63018600
63ffff00
63000000
631ff800
63181800
7f181800
631ff800
62181800
40181800
001ff800
00181800
00181800
00181800
0018f800
00183000
00102000
00000000
00000000
00000000
ENDCHAR
STARTCHAR 5569
ENCODING 21865
SWIDTH 962 0
DWIDTH 26 0
BBX 26 27 0 -1
BITMAP
00104000
001c7000
00186000
001a6000
8cff6000
fe186000
cc186000
cc187000
cc196800
cdffec00
cc006600
cc106700
cc1c6300
cc186200
cc196000
cdffe000
fc186000
cc186000
c8186000
80196000
001e6000
03f86000
00606000
00004000
00000000
00000000
00000000
ENDCHAR
STARTCHAR 556b
ENCODING 21867
SWIDTH 962 0
DWIDTH 26 0
BBX 26 27 0 -1
BITMAP
00020000
00038000
00030800
00034e00
463fec00
7f031800
66033000
66033000
66036600
66ffff00
66018000
66030000
660c1800
661ffc00
66781800
66d81800
7f181800
661ff800
64181800
40181800
00181800
001ff800
00181800
00101000
00000000
00000000
00000000
ENDCHAR
STARTCHAR 556f
ENCODING 21871
SWIDTH 962 0
DWIDTH 26 0
BBX 26 27 0 -1
BITMAP
00000000
00000000
00800c00
44fffe00
7ec00c00
66c0cc00
66dfec00
66c30c00
66c30c00
66c30c00
66c34c00
66dfec00
66c30c00
66c34c00
66c36c00
7ec32c00
66c30c00
64fffc00
40c00c00
00c00c00
00fffc00
00c00c00
00c00800
00800000
00000000
00000000
00000000
ENDCHAR
STARTCHAR 5570
ENCODING 21872
SWIDTH 962 0
DWIDTH 26 0
BBX 26 27 0 -1
BITMAP
00000000
00200c00
203ffe00
3f324c00
33324c00
33324c00
33324c00
33324c00
333ffc00
33280800
330e0000
330c1800
330ffc00
33181800
33181800
3f343000
32463000
20036000
00026000
0000c000
00018000
00030000
000c0000
00700000
00000000
00000000
00000000
ENDCHAR
STARTCHAR 5571
ENCODING 21873
SWIDTH 962 0
DWIDTH 26 0
BBX 26 27 0 -1
BITMAP
00010000
0001c000
00418400
00718700
44618600
7e618600
66fffe00
66600600
66000400
66000000
66ffff00
660c0000
660c0000
66180000
66380c00
7e3ffe00
66780c00
64780c00
40d80c00
01980c00
021ffc00
04180c00
00180800
00100000
00000000
00000000
00000000
ENDCHAR
STARTCHAR 5572
ENCODING 21874
SWIDTH 962 0
DWIDTH 26 0
BBX 26 27 0 -1
BITMAP
00104000
001c7000
00186000
00306000
44a46000
7cfec600
64ccff00
64ccc600
64cd8600
64cd8600
64cd0600
64ce6600
64fc3600
64cc3600
64cc2600
64cc0600
7ccc0600
64cc0600
64cc0600
40fc0e00
00ccfc00
00c81800
00801000
00000000
00000000
00000000
00000000
ENDCHAR
STARTCHAR 5573
ENCODING 21875
SWIDTH 962 0
DWIDTH 26 0
BBX 26 27 0 -1
BITMAP
00040000
00072000
00863800
46663000
7f366000
66264800
66fffc00
660c0000
660c0000
66180c00
67fffe00
66304000
66306000
667ff800
66f0df00
7f30c800
6630c000
6437c800
40318800
00310800
00300c00
003ffc00
001ff800
00000000
00000000
00000000
00000000
ENDCHAR
STARTCHAR 5574
ENCODING 21876
SWIDTH 962 0
DWIDTH 26 0
BBX 26 27 0 -1
BITMAP
00101000
000c1c00
00063000
00042000
23204c00
3fbffe00
33318c00
33318c00
33318c00
333ffc00
33318c00
33318c00
33318c00
333ffc00
33218800
3f018000
32018200
20ffff00
00018000
00018000
00018000
00018000
00018000
00010000
00000000
00000000
00000000
ENDCHAR
STARTCHAR 5579
ENCODING 21881
SWIDTH 962 0
DWIDTH 26 0
BBX 26 27 0 -1
BITMAP
00000000
00200600
003fff00
00300600
46300600
7f300600
663ffe00
66304400
66307000
66306000
66306c00
6637fe00
66306000
66306000
66346600
6667ff00
7e660600
64660600
40c60600
00c60600
0187fe00
01060600
02060400
04040000
00000000
00000000
00000000
ENDCHAR
STARTCHAR 557a
ENCODING 21882
SWIDTH 962 0
DWIDTH 26 0
BBX 26 27 0 -1
BITMAP
00000000
00103000
001ff800
43183000
7f983000
631ff000
63183000
63183000
631ff000
63000600
63ffff00
63180000
63180c00
633ffe00
63366c00
7f666c00
628ccc00
40198c00
00330c00
00c60c00
020c1c00
0031f800
00c03000
02002000
00000000
00000000
00000000
ENDCHAR
STARTCHAR 5585
ENCODING 21893
SWIDTH 962 0
DWIDTH 26 0
BBX 26 27 0 -1
BITMAP
00000000
00101800
001ffc00
23181800
3f981800
331ff800
33181800
33181800
33181800
331ff800
33101000
33030000
33018000
33010c00
337ffe00
3f002000
33103800
32083000
200c6000
00066000
0004c000
00008600
03ffff00
00000000
00000000
00000000
00000000
ENDCHAR
STARTCHAR 5586
ENCODING 21894
SWIDTH 962 0
DWIDTH 26 0
BBX 26 27 0 -1
BITMAP
04008000
0700e000
0600c000
0600c000
0600c000
0640cc00
7feffe00
0600c000
0600c000
0600c000
0600c800
3fc7fc00
00000000
10c21800
1fe3fc00
18c31800
18c31800
18c31800
18c31800
18c31800
18c31800
1fc3f800
18c31800
10821000
00000000
00000000
00000000
ENDCHAR
STARTCHAR 5590
ENCODING 21904
SWIDTH 962 0
DWIDTH 26 0
BBX 26 27 0 -1
BITMAP
00200000
00384600
00307f00
00626600
8bff6600
fc606600
ccc06400
ccc66400
cdff6800
cdc66800
cec66400
ccc66600
ccfe6300
ccc66300
ccc66300
ccc66300
fcfe6f00
ccc66600
c8c66400
80c66000
00c66000
00de6000
00cc6000
00884000
00000000
00000000
00000000
ENDCHAR
STARTCHAR 5596
ENCODING 21910
SWIDTH 962 0
DWIDTH 26 0
BBX 26 27 0 -1
BITMAP
00200000
00384000
00307000
00306000
8c306000
fe306000
cc346000
cdfe6c00
cc33fe00
cc786000
cc746000
cc766000
ccf46400
ccb3fe00
cdb30c00
fd330c00
cb330c00
c2330c00
84330c00
08330c00
0033fc00
00330c00
00330800
00220000
00000000
00000000
00000000
ENDCHAR
STARTCHAR 5597
ENCODING 21911
SWIDTH 962 0
DWIDTH 26 0
BBX 26 27 0 -1
BITMAP
00000000
00400c00
007ffe00
00420c00
44c38800
7ec30000
667ff800
66030000
66431800
667ffc00
66631800
667ff800
66631800
66631800
667ff800
66431000
7e030400
65fffe00
60030000
40030000
00030000
00030000
00030000
00020000
00000000
00000000
00000000
ENDCHAR
STARTCHAR 559b
ENCODING 21915
SWIDTH 962 0
DWIDTH 26 0
BBX 26 27 0 -1
BITMAP
00000000
00007800
0007fc00
467e1000
7f221c00
66331800
6619b000
66112000
66004000
667ff800
66060000
66060c00
67fffe00
660c0000
660c3000
7e1ff800
66183000
64343000
40636000
00c1c000
01836000
020c3800
04301f00
00c00800
00000000
00000000
00000000
ENDCHAR
STARTCHAR 559e
ENCODING 21918
SWIDTH 962 0
DWIDTH 26 0
BBX 26 27 0 -1
BITMAP
00100000
001c0000
00300000
00a44600
44fe7f00
7ec66600
64c66600
64fe6600
64c66600
64c66600
64c66600
64fe6600
64046600
64806600
64e46600
7cc76600
64cc7e00
64d06c00
40e26800
00c26000
00ff6000
007e6000
00006000
00004000
00000000
00000000
00000000
ENDCHAR
STARTCHAR 55a0
ENCODING 21920
SWIDTH 962 0
DWIDTH 26 0
BBX 26 27 0 -1
BITMAP
00000000
00007000
0003f800
003f8000
23018000
3f818c00
337ffe00
33018000
33119800
331ffc00
33199800
33199800
331ff800
33199800
33199800
3f1ff800
33119000
32018000
20019800
003ffc00
00018000
00018600
01ffff00
00000000
00000000
00000000
00000000
ENDCHAR
STARTCHAR 55a9
ENCODING 21929
SWIDTH 962 0
DWIDTH 26 0
BBX 26 27 0 -1
BITMAP
00040000
00070000
00060000
440d8000
7e18c000
64307000
64601c00
65bfef00
66000400
64888800
64fcee00
64cccc00
64cd9800
64cd1000
64fe2000
7cce2000
64cd1000
40cc8800
00fccc00
00cc6e00
00cc6600
00cc6600
00dc4400
00880000
00000000
00000000
00000000
ENDCHAR
STARTCHAR 55af
ENCODING 21935
SWIDTH 962 0
DWIDTH 26 0
BBX 26 27 0 -1
BITMAP
00020000
00038000
00030000
00030c00
46fffe00
7f068000
660cc000
66186000
66323800
66439f00
66832800
663ff000
66030000
66134000
661a7000
7e186400
66fffe00
64186000
40186000
00306000
00306000
00606000
00c06000
01004000
00000000
00000000
00000000
ENDCHAR
STARTCHAR 55b0
ENCODING 21936
SWIDTH 962 0
DWIDTH 26 0
BBX 26 27 0 -1
BITMAP
00020000
00038000
00070000
00068000
460c4000
7f186000
66363800
66c31f00
67020800
663fe000
66306000
66306000
663fe000
66306000
66306000
7e3fe800
66300e00
64333000
4030c000
00306000
0033b800
007c1c00
00300800
00200000
00000000
00000000
00000000
ENDCHAR
STARTCHAR 55b4
ENCODING 21940
SWIDTH 962 0
DWIDTH 26 0
BBX 26 27 0 -1
BITMAP
00004000
00007000
00006600
44006300
7e806200
64ffff00
64c06000
64c26000
64df6000
64c46000
64c66400
64c46700
64ffe600
64c96c00
7cc96c00
64d33800
64ce3000
60cb3000
41917100
01a0d900
03418d00
06060700
08180300
10400100
00000000
00000000
00000000
ENDCHAR
STARTCHAR 55b6
ENCODING 21942
SWIDTH 962 0
DWIDTH 26 0
BBX 26 27 0 -1
BITMAP
00002000
0c203800
06183000
030c6000
030cc000
02088000
10010c00
1ffffe00
30000c00
3200c800
63ffe000
0300c000
0300c000
0300c000
03ffc000
02188000
08303000
0ffff800
0c003000
0c003000
0c003000
0ffff000
0c003000
08002000
00000000
00000000
00000000
ENDCHAR
STARTCHAR 55b8
ENCODING 21944
SWIDTH 962 0
DWIDTH 26 0
BBX 26 27 0 -1
BITMAP
001c3000
00181800
7ffffe00
00180000
0ffff000
0c183000
0c183000
0ffff000
0c183000
0c183000
0ffff000
0c183000
0c183000
08142000
10670000
1ff62000
18663800
18666000
18678400
18660400
18660600
1fe7fe00
1043fc00
00000000
00000000
00000000
00000000
ENDCHAR
STARTCHAR 55ba
ENCODING 21946
SWIDTH 962 0
DWIDTH 26 0
BBX 26 27 0 -1
BITMAP
00200000
00380c00
00303e00
4637e000
7f608000
6660e800
66718e00
66e11800
66e23000
676ff000
66666000
6660c800
66610400
6667fe00
7e636600
66606000
64626800
40636400
00666600
006c6600
00686400
0073e000
0060c000
00408000
00000000
00000000
00000000
ENDCHAR
STARTCHAR 55bc
ENCODING 21948
SWIDTH 962 0
DWIDTH 26 0
BBX 26 27 0 -1
BITMAP
00040000
00070000
00061800
000ffc00
000c1800
43182000
7f904c00
633ffe00
63400c00
63000c00
631ffc00
63000c00
63000c00
633ffc00
63000800
63010000
7f098800
634ed400
624c9600
40cc1700
00cc1b00
00cffa00
0087f000
00000000
00000000
00000000
00000000
ENDCHAR
STARTCHAR 55c1
ENCODING 21953
SWIDTH 962 0
DWIDTH 26 0
BBX 26 27 0 -1
BITMAP
00003800
0043fe00
007f4000
46606000
7f606800
66607c00
66646200
6667ff00
66664200
66666400
66667800
6667e400
66666600
66667c00
7e660000
6666f800
64669800
40cc9800
00cc9900
01989900
03191900
02311f00
04620e00
08840000
00000000
00000000
00000000
ENDCHAR
STARTCHAR 55d7
ENCODING 21975
SWIDTH 962 0
DWIDTH 26 0
BBX 26 27 0 -1
BITMAP
00103000
001ff800
00183000
46193000
7f1fb000
6619b000
6619b000
6699b200
66ffff00
66c00600
67903400
661ff800
66183000
66183000
7e1ff000
66183000
64183000
401ff000
00183000
00183000
00183000
0019f000
00186000
00104000
00000000
00000000
00000000
ENDCHAR
STARTCHAR 55d8
ENCODING 21976
SWIDTH 962 0
DWIDTH 26 0
BBX 26 27 0 -1
BITMAP
0000e000
0003f800
00ff1000
46421c00
7f319800
66193000
66142000
66074000
66187000
667fc000
66318000
66062000
66181000
667ff800
7e321800
66038000
64030600
41ffff00
00068000
000cc000
00186000
00303800
00c01f00
02000800
00000000
00000000
00000000
ENDCHAR
STARTCHAR 55de
ENCODING 21982
SWIDTH 962 0
DWIDTH 26 0
BBX 26 27 0 -1
BITMAP
00004000
00407000
00306000
0018c000
000c8000
88091800
fdfffc00
cc208000
cc30e000
cc20c000
cc689000
cc4d9c00
cc991800
cdfbf000
ccd1b000
cc206000
fc606000
cc40c000
c8d09000
81090800
07fffc00
030d8c00
00080800
00000000
00000000
00000000
00000000
ENDCHAR
STARTCHAR 55e0
ENCODING 21984
SWIDTH 962 0
DWIDTH 26 0
BBX 26 27 0 -1
BITMAP
00820000
01c38000
07e30000
7c061800
0427fc00
22361800
136d1800
1a493000
1090e000
7fe0e000
00c1b000
01031c00
03260f00
03580400
03841000
0f07f800
7b061800
23061800
03061800
03061800
3f07f800
06061800
04061000
00040000
00000000
00000000
00000000
ENDCHAR
STARTCHAR 55ed
ENCODING 21997
SWIDTH 962 0
DWIDTH 26 0
BBX 26 27 0 -1
BITMAP
00080000
000e0000
000c0c00
7ffffe00
000c0000
08ffe000
0ec06000
0cffe000
0cc06000
0cffe000
0cc06000
0cffe000
0c000c00
1ffffe00
00020000
3fe39000
30631c00
30633000
3063c200
30630200
3fe30300
3063ff00
2041fe00
00000000
00000000
00000000
00000000
ENDCHAR
STARTCHAR 55ee
ENCODING 21998
SWIDTH 962 0
DWIDTH 26 0
BBX 26 27 0 -1
BITMAP
00000000
00000000
00000600
012fff00
49e09000
7d209000
49209000
49249200
4927ff00
49249200
49249200
49e49200
49249200
49249200
49249200
49248e00
79250200
49260200
49e40200
41240200
0107fe00
01040200
00040200
00040000
00000000
00000000
00000000
ENDCHAR
STARTCHAR 55f0
ENCODING 22000
SWIDTH 962 0
DWIDTH 26 0
BBX 26 27 0 -1
BITMAP
00400000
00700000
00600600
006fff00
8ccc4600
fecc6600
cccc4600
cdcc4600
cecdf600
cccc4600
cccc4600
cccd5600
cccdf600
cccd1600
cccd1600
fccd1600
cccdf600
c8cd1600
80cd0600
00cc0600
00cffe00
00cc0600
00c80400
00800000
00000000
00000000
00000000
ENDCHAR
STARTCHAR 55f1
ENCODING 22001
SWIDTH 962 0
DWIDTH 26 0
BBX 26 27 0 -1
BITMAP
00020000
00038000
00030000
4606c000
7f0c6000
66183800
6637df00
66c00c00
671ff000
66183000
66183000
661ff000
66100000
6603f800
7e7f0000
66031000
667ff800
64030400
43fffe00
00030000
00030000
00030000
003f0000
00060000
00000000
00000000
00000000
ENDCHAR
STARTCHAR 55f4
ENCODING 22004
SWIDTH 962 0
DWIDTH 26 0
BBX 26 27 0 -1
BITMAP
00404000
00307000
0018c000
44108000
7efff800
66060000
66060000
66062000
667ff000
66060000
66060000
66060c00
67fffe00
660d9000
7e0d9800
66199000
6419a400
4031fe00
00318400
00618100
00c18100
0181ff00
0600fe00
08000000
00000000
00000000
00000000
ENDCHAR
STARTCHAR 55f8
ENCODING 22008
SWIDTH 962 0
DWIDTH 26 0
BBX 26 27 0 -1
BITMAP
02010000
0381c000
03318000
7ffb0c00
0303fe00
1fe61800
03051800
7ff93000
0c01b000
0fe0e000
0c60e000
1861b000
37e31c00
40cc0f00
80900400
04003000
07fff800
06003000
06003000
06003000
07fff000
06003000
06002000
04000000
00000000
00000000
00000000
ENDCHAR
STARTCHAR 55fb
ENCODING 22011
SWIDTH 962 0
DWIDTH 26 0
BBX 26 27 0 -1
BITMAP
00030000
00018000
0000c000
00408c00
8c7ffe00
fe600000
cc642000
cc673800
cc663000
cc663400
cc7ffe00
cc663000
cc663000
cc663000
cc67f000
fc663000
ccc42000
c8c00000
818a4800
01892400
0319b600
03192600
06300400
08000000
00000000
00000000
00000000
ENDCHAR
STARTCHAR 5603
ENCODING 22019
SWIDTH 962 0
DWIDTH 26 0
BBX 26 27 0 -1
BITMAP
00018000
0000c000
00808600
44ffff00
7ec0c000
64c0c400
64dffe00
64c0c400
64ffff00
64c0c400
64dffc00
64c0c000
64d0c600
64dfff00
7cd8c600
64d8c600
64dffe00
40d8c600
0198c600
019ffe00
0318c600
0218c600
04189e00
08100400
00000000
00000000
00000000
ENDCHAR
STARTCHAR 5605
ENCODING 22021
SWIDTH 962 0
DWIDTH 26 0
BBX 26 27 0 -1
BITMAP
00000000
00880400
00fdfe00
8ccc3000
fecc3000
cccd3000
cccdb000
ccfd3000
cccd3000
cccd3400
cccdfe00
cccd3000
ccfc3000
ccc83000
ccc07c00
fcd07800
ccc8d800
c8ccd900
80d59900
00e59900
01c31900
00861f00
00080e00
00100000
00000000
00000000
00000000
ENDCHAR
STARTCHAR 5607
ENCODING 22023
SWIDTH 962 0
DWIDTH 26 0
BBX 26 27 0 -1
BITMAP
00080000
000e0000
00180000
8c304000
fe603000
ccfff800
ccb05800
ccc06000
cd90c800
cffbfc00
cd0e8800
cc1b0000
cc34c000
cc677000
fd8c1f00
ce190c00
c8638000
81064000
00187000
0061c000
01070000
001c0000
00e00000
07000000
00000000
00000000
00000000
ENDCHAR
STARTCHAR 560a
ENCODING 22026
SWIDTH 962 0
DWIDTH 26 0
BBX 26 27 0 -1
BITMAP
00020000
00439000
00731c00
00631800
8c631800
fefff800
cc400000
cc800c00
ccfffe00
ccc10000
ccc1c000
ccc19000
ccdff800
ccc18000
ccc18c00
fcfffe00
ccc10000
c8c1c000
81819000
019ff800
03018000
06018600
09ffff00
10000000
00000000
00000000
00000000
ENDCHAR
STARTCHAR 560b
ENCODING 22027
SWIDTH 962 0
DWIDTH 26 0
BBX 26 27 0 -1
BITMAP
00004000
00407000
00706000
8c626000
fe636000
cdfec400
cc66fe00
cc6cd800
cfff9800
cc199800
cc329800
cc649800
cdfc9800
cc985800
fd305800
ce337800
c83c3800
83f07000
01307000
0030d800
00318c00
03f30f00
00640400
00480000
00000000
00000000
00000000
ENDCHAR
STARTCHAR 5611
ENCODING 22033
SWIDTH 962 0
DWIDTH 26 0
BBX 26 27 0 -1
BITMAP
00030000
00033000
0003f800
00030000
46430400
7f7ffe00
66630600
6663e400
667f1000
66631800
6661f000
66600000
6660fc00
667fc800
6668cc00
7e66c800
66c4d200
64ffff00
4180c000
0180c000
0300c000
0207c000
04018000
08010000
00000000
00000000
00000000
ENDCHAR
STARTCHAR 5619
ENCODING 22041
SWIDTH 962 0
DWIDTH 26 0
BBX 26 27 0 -1
BITMAP
00004000
00007000
00806000
44446600
7c67ff00
66466400
65166000
6597fc00
65268c00
64268c00
64665800
67ec3000
6468dc00
64758f00
64470400
7c0c0600
65ffff00
64183000
40306000
007cc000
0007c000
000e7000
00701c00
03800c00
00000000
00000000
00000000
ENDCHAR
STARTCHAR 561a
ENCODING 22042
SWIDTH 962 0
DWIDTH 26 0
BBX 26 27 0 -1
BITMAP
00400000
00741800
0067fc00
8c661800
fec61800
cc87f800
cd261800
ce3e1800
cc37f800
cc641000
cc600c00
cccffe00
cdc03000
cec03600
fcffff00
ccc83000
c8c63000
80c33000
00c23000
00c03000
00c03000
00c3f000
00c0e000
00804000
00000000
00000000
00000000
ENDCHAR
STARTCHAR 5620
ENCODING 22048
SWIDTH 962 0
DWIDTH 26 0
BBX 26 27 0 -1
BITMAP
00000000
00000c00
00fffe00
46030000
7f123000
661ff800
66183000
661ff000
66183000
661ff000
66983600
66ffff00
66888600
678e6400
7e0c2000
660ffe00
65fe2000
40063800
00036000
0003c200
000ec200
00707200
03801e00
00000600
00000000
00000000
00000000
ENDCHAR
STARTCHAR 5621
ENCODING 22049
SWIDTH 962 0
DWIDTH 26 0
BBX 26 27 0 -1
BITMAP
00010000
0021c800
00118e00
00198c00
460d9800
7f499200
667fff00
66c00600
67901400
661ff800
66181800
66181800
66181800
661ff800
66111000
7e01c000
66019800
643ffc00
40018000
00018000
00018600
01ffff00
00000000
00000000
00000000
00000000
00000000
ENDCHAR
STARTCHAR 5622
ENCODING 22050
SWIDTH 962 0
DWIDTH 26 0
BBX 26 27 0 -1
BITMAP
00000000
02040600
03feff00
8a640600
fa640600
ca648c00
cbfc6800
ca643000
ca643000
ca642200
ca67ff00
cbfc3300
ca683600
c8603000
c8603000
cbfc3000
f8603000
c8603000
80643000
00783000
03e03000
0181f000
00006000
00004000
00000000
00000000
00000000
ENDCHAR
STARTCHAR 5625
ENCODING 22053
SWIDTH 962 0
DWIDTH 26 0
BBX 26 27 0 -1
BITMAP
00004000
00207000
00386000
00626000
00c36400
65027e00
7f226000
66326000
66626200
666fff00
66604000
66e07000
66e46000
67676400
66667e00
66666000
7e666000
66666000
44666000
00676000
006ce000
006c7f00
00681c00
00500000
00000000
00000000
00000000
ENDCHAR
STARTCHAR 5626
ENCODING 22054
SWIDTH 962 0
DWIDTH 26 0
BBX 26 27 0 -1
BITMAP
04006000
07fff000
06006000
06006000
06006000
07ffe000
01008000
01c06000
06001800
18000e00
6ffff600
00660000
0ffff000
0c663000
0c663000
0ffff000
00300400
7ffffe00
00c18000
01830000
03fe0000
0073c000
03c07000
1c003000
00000000
00000000
00000000
ENDCHAR
STARTCHAR 5628
ENCODING 22056
SWIDTH 962 0
DWIDTH 26 0
BBX 26 27 0 -1
BITMAP
00020000
00038000
00031800
467ffc00
7f031800
66031a00
66ffff00
66031800
66031800
667ff800
66031000
66030800
66a32e00
66d33c00
7edb2c00
66cb4c00
64fffc00
40c78c00
00cf4c00
019b6c00
01b34c00
03230c00
02430c00
04020800
00000000
00000000
00000000
ENDCHAR
STARTCHAR 562b
ENCODING 22059
SWIDTH 962 0
DWIDTH 26 0
BBX 26 27 0 -1
BITMAP
00104000
001c7000
00186000
00306800
46326400
7f3f6600
66266400
66666000
6657fe00
66966000
662cd000
662cd000
66199800
66319800
66230c00
7e420f00
66840400
65080000
40488800
00444c00
00466600
00c66600
01844600
01000400
00000000
00000000
00000000
ENDCHAR
STARTCHAR 5637
ENCODING 22071
SWIDTH 962 0
DWIDTH 26 0
BBX 26 27 0 -1
BITMAP
00020000
00038000
00263000
463ff800
7f303000
66303000
663ff000
66303000
663ff000
66303000
66303000
663ff000
66831000
66631c00
7e476000
661b2000
64e31800
40430800
01fffe00
00030000
00030000
00030000
00030000
00020000
00000000
00000000
00000000
ENDCHAR
STARTCHAR 563c
ENCODING 22076
SWIDTH 962 0
DWIDTH 26 0
BBX 26 27 0 -1
BITMAP
10641800
1ff7fc00
18661800
18661800
1fe7f800
10001000
07ffe000
06186000
06186000
07ffe000
06186000
06186000
07ffe000
04004000
00000c00
7ffffe00
00000000
04006000
07fff000
06006000
06006000
06006000
07ffe000
06004000
00000000
00000000
00000000
ENDCHAR
STARTCHAR 5643
ENCODING 22083
SWIDTH 962 0
DWIDTH 26 0
BBX 26 27 0 -1
BITMAP
00003000
0001f800
003f8000
46019000
7f199800
660db000
6609c600
66ffff00
6607a000
660d9000
66199800
66318f00
66410400
66bffc00
66318c00
7e318c00
66318c00
643ffc00
40318c00
00318c00
00318c00
003ffc00
00300c00
00200800
00000000
00000000
00000000
ENDCHAR
STARTCHAR 5644
ENCODING 22084
SWIDTH 962 0
DWIDTH 26 0
BBX 26 27 0 -1
BITMAP
00100000
001c0600
0018ff00
44ff6600
7e186600
667e6600
66184600
66ff4600
66189e00
661a8400
66132000
66063800
66186000
667f8000
7e262000
66181800
647ffc00
40198800
0021a000
00399800
00618c00
00cf8600
03030400
00020000
00000000
00000000
00000000
ENDCHAR
STARTCHAR 5647
ENCODING 22087
SWIDTH 962 0
DWIDTH 26 0
BBX 26 27 0 -1
BITMAP
00060000
00030000
00023000
8cfff800
fe204000
cc18e000
cc088800
cdfffc00
cc000000
cc803000
ccfff800
ccc63000
ccc63000
ccfff000
ccc63000
fcc63000
ccfff000
c8862000
80060000
00fff000
00060000
00060600
0fffff00
00000000
00000000
00000000
00000000
ENDCHAR
STARTCHAR 564b
ENCODING 22091
SWIDTH 962 0
DWIDTH 26 0
BBX 26 27 0 -1
BITMAP
00404000
00307000
00186000
00106000
46fec000
7f00cc00
667dfe00
66451800
66469800
66449800
667c9800
66009800
66feb000
6604b000
6608b000
7e186000
661e6000
65f8f000
40d8d000
00199800
00198c00
00fb0f00
00340400
00080000
00000000
00000000
00000000
ENDCHAR
STARTCHAR 564f
ENCODING 22095
SWIDTH 962 0
DWIDTH 26 0
BBX 26 27 0 -1
BITMAP
00020000
00038000
00030000
0006c000
460c6000
7f18b800
666fdf00
66800800
661ff000
66183000
661ff000
66102000
66040c00
66fefe00
66468c00
7e366c00
66264c00
640e1c00
40366c00
00e7cc00
00468c00
003e7c00
000c1800
00081000
00000000
00000000
00000000
ENDCHAR
STARTCHAR 5650
ENCODING 22096
SWIDTH 962 0
DWIDTH 26 0
BBX 26 27 0 -1
BITMAP
00000000
10641800
1ff7fc00
18661800
18661800
18661800
18661800
1fe7f800
10441000
00000000
1ffff800
00180000
00180000
00180c00
7ffffe00
00000000
10641800
1ff7fc00
18661800
18661800
18661800
18661800
1fe7f800
10441000
00000000
00000000
00000000
ENDCHAR
STARTCHAR 5651
ENCODING 22097
SWIDTH 962 0
DWIDTH 26 0
BBX 26 27 0 -1
BITMAP
00020000
00038000
00060000
46243000
7f3ff800
66303000
66303000
663ff000
66303000
66303000
663ff000
66831000
66631c00
66472000
7e1bc000
66e33800
64430800
41fffe00
00030000
00030000
00030000
00030000
00030000
00020000
00000000
00000000
00000000
ENDCHAR
STARTCHAR 5652
ENCODING 22098
SWIDTH 962 0
DWIDTH 26 0
BBX 26 27 0 -1
BITMAP
00020000
00239000
00131800
441b2000
7e134800
66fffc00
660fc000
661b6000
66333800
66c30f00
67222400
66383800
66343000
667efc00
7ec63000
66a6b000
6536b400
402dfe00
000cb000
00183000
00303000
00603000
01803000
06002000
00000000
00000000
00000000
ENDCHAR
STARTCHAR 5655
ENCODING 22101
SWIDTH 962 0
DWIDTH 26 0
BBX 26 27 0 -1
BITMAP
00007000
001ff800
1ff88000
0430e000
03198000
09120000
0fffc000
0c008000
0ffff000
0c002000
0ffffc00
18008c00
1a44cc00
32664c00
26223c00
4c001800
80002000
07fff000
06003000
06003000
06003000
07fff000
06003000
04002000
00000000
00000000
00000000
ENDCHAR
STARTCHAR 5656
ENCODING 22102
SWIDTH 962 0
DWIDTH 26 0
BBX 26 27 0 -1
BITMAP
00000000
00080800
01fdfc00
44306000
7e306000
66fdf800
66306000
66306000
66346800
67fffc00
66070000
660d8000
6618c000
66307000
7ec63e00
67031000
64024000
407fe000
0000c000
0000c000
00018000
00018000
00030000
00020000
00000000
00000000
00000000
ENDCHAR
STARTCHAR 565b
ENCODING 22107
SWIDTH 962 0
DWIDTH 26 0
BBX 26 27 0 -1
BITMAP
00020000
00038000
00230000
463b3000
7f33f800
66330000
66330c00
67fffe00
66000000
66821000
66e35c00
66d27800
66dad800
66d29800
7efff800
66c71800
64ce9800
40cad800
00d25800
00e21800
00c21800
01fff800
00c01800
00001000
00000000
00000000
00000000
ENDCHAR
STARTCHAR 565d
ENCODING 22109
SWIDTH 962 0
DWIDTH 26 0
BBX 26 27 0 -1
BITMAP
00404000
00707000
00606000
44c06000
7ec0c000
64908800
651d0e00
67fbfc00
65311800
64303000
64606000
64408800
64a10400
6513fe00
67f96400
7d106000
64026800
41536400
035a6600
034c6600
03486400
0203e000
02006000
00004000
00000000
00000000
00000000
ENDCHAR
STARTCHAR 565f
ENCODING 22111
SWIDTH 962 0
DWIDTH 26 0
BBX 26 27 0 -1
BITMAP
00180000
000c0000
20080c00
3ffffe00
30888000
30ee6000
30cc4800
319ffc00
319cc000
33aff800
35ccc000
398ff800
318cc000
318ccc00
318ffe00
318c0000
31081800
31fffc00
31801800
31801800
21801800
61fff800
41801800
81001000
00000000
00000000
00000000
ENDCHAR
STARTCHAR 5661
ENCODING 22113
SWIDTH 962 0
DWIDTH 26 0
BBX 26 27 0 -1
BITMAP
00040000
00070000
000c6000
001ff000
46306000
7f408600
66ffff00
67661000
666d8c00
6670c800
66608600
667fff00
66600000
666ffc00
66600000
7e6ffc00
66600000
64cffc00
40cc0c00
018c0c00
018c0c00
030ffc00
040c0c00
08080800
00000000
00000000
00000000
ENDCHAR
STARTCHAR 5667
ENCODING 22119
SWIDTH 962 0
DWIDTH 26 0
BBX 26 27 0 -1
BITMAP
00082000
000e3800
460c3000
7f7ffe00
660c3000
66082000
663ffc00
66318c00
66318c00
663ffc00
66318c00
66318c00
663ffc00
66018000
7e7ffe00
6661a600
64619600
407ffe00
006c1600
00600600
00600600
00607e00
00601c00
00400800
00000000
00000000
00000000
ENDCHAR
STARTCHAR 5675
ENCODING 22133
SWIDTH 962 0
DWIDTH 26 0
BBX 26 27 0 -1
BITMAP
00604000
30307000
18108000
19fff800
10060000
00486000
0c7ff000
fe606000
0c7fe000
0c606000
0c7fe000
0c606000
0c7fe000
1b000000
71fffe00
207ff000
04002000
07fff000
06003000
06003000
06003000
07fff000
06003000
04002000
00000000
00000000
00000000
ENDCHAR
STARTCHAR 567a
ENCODING 22138
SWIDTH 962 0
DWIDTH 26 0
BBX 26 27 0 -1
BITMAP
00000000
00600000
00300c00
00209e00
45fcf000
7e00c000
6488c000
64ccc000
6488c000
6410c200
65feff00
6430cc00
6430cc00
67ffcc00
6430cc00
7d38cc00
65b4cc00
6336cc00
42358c00
04318c00
09f30c00
00620c00
00440c00
00080800
00000000
00000000
00000000
ENDCHAR
STARTCHAR 567d
ENCODING 22141
SWIDTH 962 0
DWIDTH 26 0
BBX 26 27 0 -1
BITMAP
02000000
03800000
03200600
7ff7ff00
03003000
03003000
1fe06000
00006000
1fe0e000
18617800
18636c00
1fe26600
10466300
0c646200
04886000
fff86000
00006000
1fe06000
18606000
18604000
18600600
1fefff00
18600000
10400000
00000000
00000000
00000000
ENDCHAR
ENDFONT
